<svg id="Layer_1" data-name="Layer 1" xmlns="http://www.w3.org/2000/svg" xmlns:xlink="http://www.w3.org/1999/xlink" viewBox="0 0 3807.46 2300"><defs><style>.cls-1{fill:#88b3ff;}.cls-101,.cls-102,.cls-103,.cls-104,.cls-105,.cls-106,.cls-107,.cls-2,.cls-3,.cls-30,.cls-4,.cls-5{fill-rule:evenodd;}.cls-2{fill:url(#linear-gradient);}.cls-3{fill:#0e2d34;}.cls-4{fill:url(#linear-gradient-2);}.cls-5{fill:#5f9850;}.cls-6{fill:#bcbcbc;opacity:0.88;}.cls-11,.cls-38,.cls-41,.cls-53,.cls-56,.cls-57,.cls-6,.cls-65,.cls-8,.cls-80,.cls-86{isolation:isolate;}.cls-11,.cls-7,.cls-8{fill:#1ddbd6;}.cls-8{opacity:0.79;}.cls-9{fill:#057047;}.cls-10{fill:#0d9161;}.cls-11{opacity:0.54;}.cls-12{fill:#12106b;}.cls-13{fill:#0e0e59;}.cls-14{fill:#ffb600;}.cls-15{fill:#482db5;}.cls-16{fill:#261c8c;}.cls-17{fill:#3a28a3;}.cls-18{fill:#2c2291;}.cls-19{fill:#e23b3b;}.cls-20{fill:#ffebeb;}.cls-21{fill:#f44545;}.cls-22{fill:#ff5f5f;}.cls-23{fill:#ea2a2a;}.cls-24{fill:#ff7878;}.cls-25{fill:#f47621;}.cls-26{fill:#ff8d40;}.cls-27{fill:#ff9b57;}.cls-28{fill:#ffe1e1;}.cls-29,.cls-74{fill:none;}.cls-30,.cls-44,.cls-86{fill:#fff;}.cls-31{fill:#d3d3d3;}.cls-32{fill:#111;}.cls-33{fill:#333;}.cls-34{fill:#d2e2ff;}.cls-35{fill:#f4f4f4;}.cls-36{fill:#b7b7b7;}.cls-37{fill:#722a09;}.cls-38,.cls-41,.cls-53,.cls-56,.cls-57,.cls-58,.cls-65{opacity:0.6;}.cls-38{fill:url(#linear-gradient-3);}.cls-39{fill:#ffba94;}.cls-40{fill:#f0f9ff;}.cls-41{fill:url(#linear-gradient-4);}.cls-42{fill:#dd4343;}.cls-43{fill:#e6f4fc;}.cls-45{fill:#f4a57d;}.cls-46{fill:#c2e9ff;}.cls-47{fill:#ed4747;}.cls-48{fill:#d13030;}.cls-49{fill:url(#linear-gradient-5);}.cls-50{fill:url(#linear-gradient-6);}.cls-51{fill:#f9a880;}.cls-52{fill:#fca286;}.cls-53{fill:url(#linear-gradient-7);}.cls-54{fill:#352d29;}.cls-55{fill:#ff806d;}.cls-56{fill:url(#linear-gradient-8);}.cls-57{fill:url(#linear-gradient-9);}.cls-59,.cls-65{fill:#6f87aa;}.cls-60{fill:#e1ebff;}.cls-61{fill:#6db8ff;}.cls-62{fill:#9570ee;}.cls-63{fill:#f9fbfc;}.cls-64{fill:#cdd4ff;}.cls-66{fill:#4a82f4;}.cls-67{fill:#e5373a;}.cls-68{fill:#e6e7e8;}.cls-69{fill:#d1d3d4;}.cls-70{fill:#d11922;}.cls-71{fill:#f4e9d5;}.cls-72{fill:#dbbc8f;}.cls-73{fill:#e5d0ae;}.cls-74{stroke:#d2e2ff;stroke-miterlimit:10;stroke-width:5.08px;}.cls-75{fill:#b8d8ff;}.cls-76{fill:#9b9b9b;}.cls-77{fill:#a34b11;}.cls-78{fill:#d8761d;}.cls-79{fill:#c96e24;}.cls-80{fill:#dbdbdb;}.cls-80,.cls-86{opacity:0.7;}.cls-81{fill:#ced3e7;}.cls-82{fill:#7564bf;}.cls-83{fill:#ffaa3b;}.cls-84{fill:#4d388a;}.cls-85{fill:#8376cc;}.cls-87{fill:#ebeffc;}.cls-88{fill:#877cd8;}.cls-89{fill:#e4e8f9;}.cls-90{fill:#373536;}.cls-91{fill:#f9af8f;}.cls-92{fill:url(#linear-gradient-10);}.cls-93{fill:#db3e3e;}.cls-94{fill:#fbbd9d;}.cls-95{fill:#2d71d3;}.cls-96{fill:#99470b;}.cls-97{fill:#f9b393;}.cls-98{fill:#7f3808;}.cls-99{fill:#bc5e0f;}.cls-100{fill:url(#linear-gradient-11);}.cls-101{fill:#b83470;}.cls-102{fill:#00000f;}.cls-103{fill:#171e44;}.cls-104{fill:#e94d90;}.cls-105{fill:url(#linear-gradient-12);}.cls-106{fill:#f44271;}.cls-107{fill:#c7c3d1;}.cls-108{fill:#d82323;}</style><linearGradient id="linear-gradient" x1="473.02" y1="1154.06" x2="869.78" y2="606.99" gradientTransform="matrix(1, 0, 0, -1, 0, 3120)" gradientUnits="userSpaceOnUse"><stop offset="0" stop-color="#00b488"/><stop offset="0.92" stop-color="#007bc0"/></linearGradient><linearGradient id="linear-gradient-2" x1="404.71" y1="1860.11" x2="1329.74" y2="738.78" gradientTransform="matrix(1, 0, 0, -1, 0, 3120)" gradientUnits="userSpaceOnUse"><stop offset="0" stop-color="#8ccc6d"/><stop offset="0.19" stop-color="#81c768"/><stop offset="0.54" stop-color="#62b85b"/><stop offset="0.92" stop-color="#39a54a"/></linearGradient><linearGradient id="linear-gradient-3" x1="2289.41" y1="1195.06" x2="2480.69" y2="1421.81" gradientTransform="matrix(1, 0, 0, -1, 0, 3120)" gradientUnits="userSpaceOnUse"><stop offset="0" stop-color="#fff" stop-opacity="0.5"/><stop offset="1"/></linearGradient><linearGradient id="linear-gradient-4" x1="2834.65" y1="1271.53" x2="2594.01" y2="1458.18" xlink:href="#linear-gradient-3"/><linearGradient id="linear-gradient-5" x1="2689.63" y1="1707.72" x2="2679.09" y2="1672.03" gradientTransform="matrix(1, 0, 0, -1, 0, 3120)" gradientUnits="userSpaceOnUse"><stop offset="0" stop-color="#352d29"/><stop offset="1" stop-color="#1e1b15"/></linearGradient><linearGradient id="linear-gradient-6" x1="2643.35" y1="1740.7" x2="2578.13" y2="1519.78" xlink:href="#linear-gradient-5"/><linearGradient id="linear-gradient-7" x1="2368.22" y1="1354.26" x2="2499.7" y2="1354.26" xlink:href="#linear-gradient-3"/><linearGradient id="linear-gradient-8" x1="3718.07" y1="2463.32" x2="3686.22" y2="2276.79" gradientTransform="matrix(0.98, -0.19, -0.19, -0.98, -640.9, 4529.5)" xlink:href="#linear-gradient-3"/><linearGradient id="linear-gradient-9" x1="2363.59" y1="1593.16" x2="2417.37" y2="1593.16" xlink:href="#linear-gradient-3"/><linearGradient id="linear-gradient-10" x1="3570.47" y1="539.98" x2="3666.42" y2="539.98" gradientTransform="matrix(1, 0, 0, -1, 0, 3120)" gradientUnits="userSpaceOnUse"><stop offset="0" stop-color="#6d2f5b"/><stop offset="1" stop-color="#934869"/></linearGradient><linearGradient id="linear-gradient-11" x1="3423.5" y1="545.75" x2="3556.26" y2="545.75" xlink:href="#linear-gradient-10"/><linearGradient id="linear-gradient-12" x1="1471.57" y1="1662.6" x2="1492.26" y2="1349.07" gradientTransform="matrix(1, 0, 0, -1, 0, 3120)" gradientUnits="userSpaceOnUse"><stop offset="0" stop-color="#c91451"/><stop offset="1" stop-color="#e31c3b"/></linearGradient></defs><title>onlinex</title><g id="_10" data-name=" 10"><path class="cls-1" d="M749.36,2621.12S312.9,2204.26,507,1512.67s763.75-952,1351-952c725.33,0,1507.09,716.74,1507.09,716.74S4571.2,1232.94,4161.34,2617Z" transform="translate(-438.85 -410)"/><path class="cls-2" d="M962.92,2335.2l-25.29,139.65-4.11,22.8-20.63,114C699.12,2521,338.78,2252.49,465,2088.83,587.24,1930.27,949,2330.27,962.92,2335.2Z" transform="translate(-438.85 -410)"/><path class="cls-3" d="M937.63,2474.85l-4.11,22.8C726,2352.24,592.1,2235.1,591.06,2234.18a9.79,9.79,0,0,1-1.12-13.8c.22-.25.44-.49.68-.72a11.53,11.53,0,0,1,15.51-.6C607.14,2220,736.57,2333.18,937.63,2474.85Z" transform="translate(-438.85 -410)"/><path class="cls-4" d="M1427.1,2238.39l-65.86,157-8.74,20.78-73,174s-823-464.75-685.65-734c0,0-159.48-443.41,127.59-487.37,256.55-39.34,279.58,275,446,315.57S1427.1,2238.39,1427.1,2238.39Z" transform="translate(-438.85 -410)"/><path class="cls-5" d="M1361.24,2395.35l-8.74,20.78C993.91,2045.42,750.18,1631.76,749,1629.81a9.79,9.79,0,0,1,3.25-13.46,8.92,8.92,0,0,1,.86-.47,11.58,11.58,0,0,1,14.92,4.34C769.22,1622.18,1008.89,2028.86,1361.24,2395.35Z" transform="translate(-438.85 -410)"/><path class="cls-6" d="M2913.32,2189.33c-13.14-35.35-46.68-60.54-85.87-60.54H2588c15.92-7,28.46-18.68,34.93-32.81a52.54,52.54,0,0,0,5.07-22.49v-141.2a52.4,52.4,0,0,0-5.07-22.49c-10.72-23.43-38.08-40.12-70-40.12H1095.26c-20.74,0-34.82,7-43.72,18.35s-12.62,27-12.62,44.25v141.2c0,19.44,4.71,36.82,16.2,48.31a44.22,44.22,0,0,0,9.16,7H994.42c-50.83,0-92.1,42.33-92.1,94.48v35.59H890.79v153.71h11.53v23.77c0,52.14,41.27,94.47,92.1,94.47h386.22v12.7h80.15v-12.7h64.88v12.7h80.14v-12.7H2827.45c39.19,0,72.73-25.18,85.87-60.54a94.56,94.56,0,0,0,6.23-33.93V2223.27A94.65,94.65,0,0,0,2913.32,2189.33Z" transform="translate(-438.85 -410)"/><path class="cls-6" d="M2708.78,1180.39h0q-24.84-30.86-52.72-59.79c13.53-91.9,9.25-184.54,3.36-222.59l.56.11,7.32-37.58a29.46,29.46,0,0,0-14.14-30.94,10,10,0,0,0,.25-1.21,823,823,0,0,0-6.49-301.53l1.36-1-.46-41.4L1744.58,410,1064.25,802.1l12.11,43,379.26,37,41.13,123.31-.65.44h0a898.49,898.49,0,0,0-197.68,188.29h0A901.86,901.86,0,0,0,1230,1296.23,891.77,891.77,0,0,0,1167.21,1429q-2,5.38-4,10.77c-.19.52-.36,1-.55,1.58-1.34,3.71-2.63,7.43-3.92,11.16-.57,1.67-1.15,3.34-1.72,5-1.23,3.64-2.42,7.28-3.6,10.92-.58,1.78-1.16,3.56-1.72,5.34-1.13,3.56-2.22,7.12-3.3,10.68-.57,1.89-1.14,3.77-1.7,5.66-1,3.47-2,7-3,10.43q-.84,3-1.67,6c-.94,3.39-1.84,6.78-2.73,10.18-.55,2.1-1.1,4.19-1.64,6.29-.84,3.3-1.65,6.61-2.46,9.92-.53,2.2-1.07,4.41-1.59,6.62q-1.12,4.82-2.2,9.65c-.51,2.31-1,4.62-1.52,6.92-.67,3.14-1.33,6.28-2,9.42-.5,2.41-1,4.81-1.45,7.22-.6,3-1.17,6.1-1.73,9.15-.47,2.51-.92,5-1.37,7.53-.52,3-1,5.93-1.51,8.89-.43,2.61-.86,5.23-1.27,7.84q-.66,4.3-1.3,8.62c-.39,2.71-.77,5.43-1.16,8.14s-.74,5.57-1.1,8.35-.71,5.63-1,8.44-.62,5.39-.92,8.09c-.31,2.91-.62,5.82-.91,8.72-.26,2.62-.5,5.23-.74,7.84-.27,3-.52,6-.77,9-.2,2.52-.4,5.05-.58,7.57-.22,3.1-.43,6.19-.62,9.29-.15,2.43-.29,4.87-.42,7.3q-.26,4.79-.46,9.56c-.1,2.35-.19,4.71-.28,7.06-.11,3.27-.2,6.54-.29,9.81,0,2.27-.1,4.53-.14,6.8-.06,3.36-.09,6.72-.11,10.09v6.52c0,3.45,0,6.9.08,10.35q0,3.13.1,6.27.11,5.29.27,10.59.09,3,.2,6c.14,3.61.3,7.23.49,10.84.09,1.91.19,3.82.3,5.75q.32,5.55.69,11.08l.39,5.51q.43,5.65.93,11.32c.15,1.74.3,3.49.46,5.24q.54,5.79,1.16,11.57c.18,1.65.35,3.31.53,5,.44,3.94.92,7.87,1.41,11.8.19,1.57.39,3.15.59,4.72.52,4,1.08,8,1.65,12,.22,1.49.43,3,.65,4.46q.91,6.12,1.91,12.23c.23,1.41.45,2.81.69,4.22q1,6.21,2.17,12.41c.25,1.33.48,2.66.73,4q1.18,6.32,2.45,12.61c.25,1.25.5,2.49.76,3.74.87,4.27,1.79,8.54,2.73,12.8.26,1.17.51,2.33.77,3.5l3,13c.26,1.09.51,2.17.78,3.26q1.61,6.6,3.33,13.17c.25,1,.51,2,.77,3q1.77,6.69,3.64,13.35c.26.92.51,1.85.77,2.77q1.92,6.77,4,13.5c.25.85.5,1.7.76,2.55q2.07,6.84,4.27,13.64c.25.78.49,1.55.74,2.32q2.23,6.91,4.59,13.8c.24.69.47,1.39.71,2.09q2.41,7,4.94,13.94c.23.62.44,1.24.67,1.86q2.58,7.07,5.28,14.08c.21.54.41,1.09.62,1.63q2.76,7.14,5.65,14.23l.56,1.38q2.94,7.2,6,14.36c.16.39.32.77.49,1.16q3.12,7.28,6.39,14.51c.14.3.27.59.4.89q3.32,7.35,6.78,14.63l.32.68q3.51,7.4,7.17,14.75c.08.14.15.29.22.43q3.72,7.48,7.6,14.9l.08.17a895.76,895.76,0,0,0,202.12,257.75q19.62,17.37,40.49,33.69c.94.78,1.87,1.5,2.83,2.25l.26.2h0c1.52,1.19,3.06,2.35,4.59,3.52s3,2.32,4.51,3.46l4.38,3.28,4.92,3.68,4.1,3c1.75,1.27,3.5,2.56,5.25,3.82l4.09,2.89q2.65,1.91,5.32,3.78c1.33.93,2.66,1.83,4,2.75,1.83,1.26,3.65,2.53,5.49,3.78,1.22.84,2.46,1.65,3.69,2.48,2,1.31,3.89,2.63,5.85,3.93l3.29,2.15c2.09,1.37,4.19,2.75,6.29,4.1,1.05.68,2.12,1.34,3.17,2,2.16,1.37,4.31,2.75,6.47,4.11l3.06,1.88c2.2,1.37,4.41,2.75,6.63,4.1,1,.58,1.9,1.14,2.86,1.71,2.29,1.39,4.59,2.78,6.89,4.14.84.5,1.68,1,2.52,1.47,2.42,1.42,4.84,2.84,7.27,4.24l2.46,1.39c2.46,1.41,4.92,2.81,7.39,4.18.78.45,1.58.87,2.37,1.31q3.75,2.09,7.51,4.13l2.32,1.24c2.54,1.36,5.08,2.73,7.62,4.07l2,1.05,8,4.12,1.71.86q4.16,2.1,8.3,4.16l2,1q4,2,8.11,4l1.87.87q4.11,2,8.25,3.89l1.66.75q4.25,2,8.5,3.87l1.37.61q4.39,2,8.81,3.88l1.53.65q4.35,1.88,8.72,3.71l1.08.44q4.59,1.92,9.18,3.78l1,.41q4.62,1.86,9.25,3.67l1.12.43q4.61,1.78,9.22,3.52l1,.36q4.68,1.76,9.38,3.46l1,.35c3.14,1.12,6.27,2.24,9.42,3.33l.93.32q4.74,1.64,9.5,3.23l1,.33q4.73,1.56,9.45,3.08l1,.32,9.46,3,1.13.34q4.7,1.42,9.4,2.81l.71.2q4.9,1.44,9.81,2.81l1.32.36c3.09.85,6.17,1.7,9.26,2.52l.89.23q4.85,1.29,9.71,2.52l.68.17q5,1.24,9.93,2.45l1.08.25c3.18.76,6.37,1.51,9.55,2.23l1.06.23c3.2.72,6.39,1.43,9.59,2.12l1.44.3q4.61,1,9.24,1.92l1.34.26c3.11.62,6.22,1.23,9.35,1.82l1.42.26c3.09.58,6.18,1.15,9.28,1.69l1.71.3c3,.52,6,1,9,1.53l1.48.23c3.08.5,6.17,1,9.25,1.46l1.83.26c3,.45,5.94.89,8.92,1.3l1.82.24q4.47.62,9,1.19l1.41.17c3.11.38,6.23.76,9.34,1.12l2,.22c2.93.33,5.85.65,8.78.95l1.52.14c3.09.31,6.17.61,9.26.89l1.85.16q4.46.39,8.93.75l2.37.17c2.81.21,5.61.42,8.42.6l2.66.16c2.71.17,5.43.34,8.14.48l2.76.13c2.67.14,5.33.27,8,.39l3,.1c2.59.1,5.17.2,7.76.28l3,.07c2.59.07,5.18.14,7.77.18h2.92c2.62,0,5.25.07,7.88.09h14.32c2.42,0,4.84,0,7.26-.09l3.61-.09c2.4-.06,4.79-.11,7.18-.18l3.61-.13c2.39-.08,4.78-.16,7.18-.26l3.69-.18c2.36-.11,4.72-.22,7.08-.35,1.25-.06,2.5-.15,3.75-.22,2.34-.14,4.68-.27,7-.43,1.31-.08,2.62-.19,3.93-.28,2.28-.16,4.55-.32,6.83-.5,1.35-.1,2.69-.23,4-.34,2.23-.18,4.47-.36,6.7-.57,1.41-.12,2.83-.27,4.24-.41,2.17-.2,4.33-.4,6.5-.62l4.38-.48,6.33-.69,4.69-.56,6-.73,5-.66,5.69-.76c1.76-.24,3.51-.51,5.27-.76l5.4-.79c1.73-.26,3.46-.54,5.19-.82s3.65-.56,5.47-.86l5.19-.88c1.73-.3,3.63-.6,5.44-.92l5.25-1c1.79-.33,3.58-.64,5.37-1s3.85-.75,5.78-1.12l4.79-.94c2.08-.41,4.14-.85,6.21-1.28,1.46-.3,2.91-.59,4.36-.9,2.13-.45,4.25-.93,6.37-1.4l4.17-.91c2-.45,4-.93,6-1.4,1.51-.35,3-.68,4.51-1,2-.47,3.91-1,5.87-1.44,1.54-.37,3.08-.74,4.62-1.13l6.09-1.56c1.45-.38,2.91-.74,4.37-1.13,2.14-.56,4.28-1.15,6.42-1.73,1.34-.36,2.67-.71,4-1.08,2.25-.62,4.49-1.27,6.73-1.9,1.22-.35,2.45-.69,3.67-1,2.4-.69,4.8-1.41,7.2-2.13,1.05-.31,2.11-.61,3.16-.93l7-2.15,3.38-1.05c2.21-.7,4.41-1.42,6.62-2.13l3.68-1.19q3.72-1.23,7.42-2.49l2.83-1c2.57-.88,5.14-1.79,7.7-2.69l2.53-.88c2.44-.87,4.87-1.76,7.3-2.65,1-.35,1.93-.69,2.89-1.05,2.38-.88,4.75-1.78,7.11-2.68,1-.38,2-.75,3-1.14,2.49-1,5-1.93,7.44-2.9l2.67-1.05c2.52-1,5-2,7.56-3l2.5-1c2.79-1.14,5.58-2.31,8.36-3.49l1.66-.7c2.61-1.11,5.22-2.24,7.81-3.38l2.17-.94c2.44-1.07,4.88-2.17,7.31-3.27l2.63-1.17c2.54-1.16,5.08-2.34,7.61-3.52.76-.35,1.52-.69,2.27-1,2.49-1.17,5-2.36,7.45-3.55l2.39-1.14c2.62-1.27,5.22-2.56,7.83-3.85l2-1q4-2,8.07-4.1l1.67-.84q3.9-2,7.78-4.07l1.91-1c2.61-1.38,5.21-2.79,7.8-4.2l1.83-1c2.82-1.54,5.64-3.11,8.45-4.68l1.12-.62q3.88-2.19,7.74-4.42l1.79-1q4.08-2.35,8.12-4.76l1.34-.79c2.65-1.57,5.28-3.17,7.91-4.77l1.5-.91c2.48-1.51,4.94-3,7.41-4.59.65-.41,1.3-.8,1.94-1.21,2.32-1.46,4.63-2.94,6.94-4.42l2.35-1.5c2.3-1.49,4.6-3,6.89-4.51l2.33-1.53c2.77-1.84,5.54-3.71,8.29-5.58l.86-.58q3.73-2.55,7.44-5.14l1.67-1.15c2.57-1.8,5.13-3.63,7.69-5.46l1.34-.95c2.45-1.76,4.89-3.55,7.33-5.34l1.63-1.19c2.44-1.79,4.86-3.61,7.27-5.43l1.63-1.22q3.95-3,7.85-6l1-.74q3.78-2.94,7.53-5.93l1.23-1c2.23-1.78,4.44-3.58,6.65-5.37.68-.56,1.36-1.1,2-1.65,2-1.65,4-3.31,6-5l2.61-2.17c1.89-1.58,3.77-3.19,5.65-4.79,1-.83,1.93-1.64,2.89-2.46,1.89-1.63,3.77-3.28,5.65-4.93l2.81-2.45q3.29-2.91,6.55-5.86l1.83-1.63c1.83-1.66,3.64-3.33,5.46-5,1-.88,1.91-1.74,2.85-2.62,1.66-1.54,3.3-3.1,4.94-4.65,1.1-1,2.2-2.05,3.29-3.09,2-1.89,4-3.81,5.94-5.73l2.2-2.12c2-2,4.08-4,6.12-6.05l1.95-1.93q2.46-2.46,4.9-5c1-1.05,2.06-2.08,3.08-3.13,1.17-1.2,2.32-2.42,3.48-3.62,1.48-1.54,3-3.06,4.42-4.6,1.22-1.28,2.41-2.57,3.62-3.86,1.4-1.49,2.8-3,4.19-4.47q7.56-8.16,15-16.56c.13-.16.27-.31.4-.46,1.39-1.58,2.76-3.17,4.14-4.76l3.42-3.93c1.17-1.37,2.32-2.75,3.49-4.13,1.32-1.56,2.65-3.11,4-4.68q5.45-6.53,10.8-13.19c3.7-4.61,7.39-9.24,11-13.94a903,903,0,0,0,107-176.72h0C2968.39,1812.43,2922.55,1445.63,2708.78,1180.39Zm-159.36-154.21-.76-.58q1.35-2.44,2.69-4.8C2550.71,1022.59,2550.06,1024.38,2549.42,1026.18ZM2649.59,1114q-4.05-4.11-8.16-8.17c8.16-60.72,12.31-127.53,14.33-171.7C2658.92,978.91,2658.79,1046.88,2649.59,1114Zm-16.83-290.65a11.82,11.82,0,0,0-.11,2.85,29.39,29.39,0,0,0-22.89,23.33l-7.27,37.34,1.09.21c-12.48,23.67-38.19,73.87-63.58,132.11a894.55,894.55,0,0,0-278.12-138l-4.1-80.25L2628,540.16a792,792,0,0,1,4.76,283.18Z" transform="translate(-438.85 -410)"/><path class="cls-7" d="M2606.9,1050.87a916.41,916.41,0,0,1,151.3,148.59c217.2,269.5,263.78,642.2,119.42,957.19h0a917.7,917.7,0,0,1-108.7,179.55c-309.21,399.8-883.06,472.54-1281.73,162.46-1-.75-1.92-1.49-2.88-2.28-14.17-11.07-27.84-22.46-41.14-34.23-287.05-253-380.52-652.65-255.31-999.2,1.3-3.64,2.66-7.29,4-10.94a909.57,909.57,0,0,1,63.74-135c190.27-331.76,567.24-509.67,944.29-445.66C2343.63,895.73,2483.64,955,2606.9,1050.87Z" transform="translate(-438.85 -410)"/><path class="cls-8" d="M1567.17,1324.9c51,38.33,92.36,102.7,117.35,182.25,18.2,57.89,27.79,123.8,26.18,193.54a638,638,0,0,1-9,93.86c-25.94,149.86-103.7,266.45-199.78,299.28a168.8,168.8,0,0,1-59.15,9.31c-142.8-3.27-254.37-188.82-249.2-414.38q.3-12.87,1.1-25.49c10.68-172.19,88.34-313.88,190.06-360.6a180.74,180.74,0,0,1,41.49-13.42,166.34,166.34,0,0,1,35.28-2.94c27,.61,52.9,7.76,77.06,20.47A213,213,0,0,1,1567.17,1324.9Z" transform="translate(-438.85 -410)"/><path class="cls-9" d="M1664.3,1453.47l-2.67,50.16s-31.16,28,.82,60,59.75,21.92,53.2,58.8-37.41,31.83-26.53,61.66,21,47.19,21,47.19,19.38,8,27,35.25-4,30.11,14.71,51.81,11.71,40,52.23,33.49,77.6-8.5,77.6-8.5,21.36,21.36,29.41,32.38,53.44-41.54,55.16,14.4-18.18,97.46-23.7,107.41-28.86-24.82-13.94,34.26,21,75.67,14.53,82.53-28.26-.61-40.74,13.43-85.87,66.16-85.87,66.16-39.58-26-57.61,57.29-45.61,54.74-53.1,101.16,8.26,96.64,8.26,96.64-40,33-57.58,35.94-45.48,14.49-57.79,12-91.24-4.48-91.24-4.48l-64.3-30.3c-290.06-255.7-382.46-661.1-251.3-1010.14l9.8.12s22.36,29.26,57,18.19,45.37-52.56,83.48-25.3,41.24,41.58,60.1,32.5,18.62-18,41.87-20.47,13.17,3.92,33.06,7.52-28.2-7.68,71-35S1664.3,1453.47,1664.3,1453.47Z" transform="translate(-438.85 -410)"/><path class="cls-10" d="M1658.17,1461.4l-2.67,50.16s-31.17,28,.81,60,59.76,21.92,53.21,58.8-37.41,31.83-26.53,61.66,21,47.19,21,47.19,19.38,8,27,35.25-4,30.11,14.72,51.81,11.71,40,52.23,33.49,77.6-8.5,77.6-8.5,21.36,21.36,29.41,32.38,53.44-41.54,55.15,14.4-18.17,97.46-23.69,107.41-28.86-24.82-14,34.26,21,75.67,14.54,82.53-28.27-.61-40.74,13.43-85.88,66.16-85.88,66.16-39.57-26-57.61,57.29-45.61,54.74-53.09,101.16,8.26,96.64,8.26,96.64-40,33-57.58,35.94-45.48,14.49-57.79,12-91.24-4.48-91.24-4.48l-14.74-7q-21.26-16.61-41.15-34.23c-287-253-380.51-652.66-255.3-999.21l5.39.07s22.36,29.26,57,18.19,45.38-52.56,83.49-25.3,41.24,41.58,60.1,32.5,18.61-18,41.87-20.47,13.16,3.92,33.06,7.52-28.2-7.68,71-35S1658.17,1461.4,1658.17,1461.4Z" transform="translate(-438.85 -410)"/><path class="cls-9" d="M1543.69,1091.41c29.93,47,71,3,87.22,67.83s-45.47,104.72-79.11,102.3-45.29.39-99.42,27.52-59.37,3.3-59.37,3.3-28.91-17.73-81.86,17.06c-22.65,14.91-42.65,16.21-58.09,12.85a921.3,921.3,0,0,1,270.43-295C1523,1042.34,1522.14,1057.55,1543.69,1091.41Z" transform="translate(-438.85 -410)"/><path class="cls-10" d="M1546.22,1086.22c29.93,47,71,3,87.22,67.84s-45.47,104.71-79.11,102.29-45.29.39-99.42,27.52-59.37,3.3-59.37,3.3-28.9-17.73-81.86,17.06c-22.65,14.91-42.65,16.21-58.09,12.85A921.39,921.39,0,0,1,1526,1022C1525.5,1037.15,1524.67,1052.37,1546.22,1086.22Z" transform="translate(-438.85 -410)"/><path class="cls-10" d="M2758.21,1199.44c217.2,269.51,263.78,642.21,119.42,957.19h0l-48.3,47.09s-67.92,127.62-126.85,115-66.16-27.72-92.74-27S2514.49,2372,2468.63,2315s-8.78-59.06-66.13-122.66-87-63.72-87.07-102.57,30-29.74,18.6-74.19-17.26-66.32-24.17-85.56-10.8-29.44,12.1-80.48,49.08-90,22.94-131.73-49.79-54.63-32.8-76.18,20.81-29.73,19-45.76-63.07-50.09-42-98.7,50.71-56.38,38.82-108.36-12.22-54.61-21.27-73.52-12.31-2.46-37.5-64.78-32.76-80.09-24.58-99.85,16-20.75,32.1-41.51,23.39-34,29.2-58-11.54-42.21,15.58-40.11,64.87,5.33,85.71,12.05,35.93,27.94,35.93,27.94l19.13,38.63s32.65-5.48,46.92-8.63,16.5-48.89,45.13,9,17.63,93.53,37,111.38a77.56,77.56,0,0,0,42.84,19.55l40.47-13.64,56.57-15.35Z" transform="translate(-438.85 -410)"/><path class="cls-10" d="M2199.87,871.43c-2.42,7.9-5.82,15.66-8.46,23.24a50.42,50.42,0,0,1-5.65,12.33,96.72,96.72,0,0,0-8.76,18.12c-2.71,7.43-3.74,13.84-8.26,20.11-2.88,4-4.07,5-4.29,10a134.18,134.18,0,0,1,3,19.33,58.31,58.31,0,0,1-2.7,31.47c-3.72,11.36-11.88,24-20,33.32-6,6.89-14.14,9.47-20,16.48-19,22.62-36.3,48.88-64.57,61.32-11.75,5.2-24.24,3.18-36.22,7.21-11.28,3.76-24.55,10.81-36.68,10.26-6.17-.28-6.83-2.55-11.56-5.8-6-4.16-15-5.32-22.13-6.77-15.27-3.09-31,0-46-3.85-9.34-2.37-16.79-8.73-25.92-11.18-10-2.72-21.41-1.41-31.52-2.1s-20.49-4.07-30.52-3.65c-6.89.28-13.64,2.45-20.5,2.81-11.84.62-24.7-.88-35.43-6.1-4.64-2.27-8-7.08-12.26-9.25-4.45-2.27-2-2.3-8.72,1.53-9.81,5.71-19.06,11.49-29.36,16.3-7.75,3.65-23.19,10.64-33.56,9.41-7.71-.87-14-9.06-18.47-14.51-8-9.73-12.83-22-21.23-31.32-16.46-22.92-11.24-43.88-10.64-48.45.84-6.28,3.47-12.63,2.94-18.8-.68-7.69-3.06-15.82-4.58-23.41-.6-3.08-.3-5.31-1.91-8.18-1.48-2.67-3.77-4.55-6.17-6.41A914.89,914.89,0,0,1,2199.87,871.43Z" transform="translate(-438.85 -410)"/><path class="cls-11" d="M2606.9,1050.87a916.41,916.41,0,0,1,151.3,148.59c217.2,269.5,263.78,642.2,119.42,957.19h0a917.7,917.7,0,0,1-108.7,179.55c-309.14,399.71-882.8,472.5-1281.47,162.67,223.42-34.12,434.68-151,584.1-344.17a917.26,917.26,0,0,0,108.71-179.55h0c144.36-315,97.79-687.69-119.42-957.19a916.35,916.35,0,0,0-151.29-148.59l-.27-.2a913.31,913.31,0,0,1,290.6,2.26C2343.63,895.73,2483.64,955,2606.9,1050.87Z" transform="translate(-438.85 -410)"/><path class="cls-12" d="M2304.14,895.79C2150.5,1004.34,1961.7,1037,1808.66,1042c-18.39.6-36.29.81-53.53.68-38.78-.25-74.33-2.11-105.23-4.61-75.31-6.11-123.07-16-123.07-16l-46.37-139,138.39-18.9,107.71-14.72,71.61-9.77,499.61-68.23Z" transform="translate(-438.85 -410)"/><path class="cls-13" d="M1649.9,1038.07c-75.31-6.11-123.07-16-123.07-16l-46.37-139,138.39-18.9Z" transform="translate(-438.85 -410)"/><path class="cls-13" d="M1808.66,1042c-18.39.6-36.29.81-53.53.68L1726.56,849.4l71.61-9.77Z" transform="translate(-438.85 -410)"/><path class="cls-14" d="M2659.2,886.67l46.94,12s0,1.31-.07,3.38c9.13,38.85,18.57,213.66-25.85,339.59-.82,2.27-2.95,3.55-4.68,3.11-1.82-.79-2.81-3.5-1.94-6,32.72-92.71,35.69-219.26,30.74-289.59-4.23,92.47-17.64,282.57-57,315.07-2.48,2-8.15,1.57-15.09-.15,8-32.4,17-72.42,15.83-92.56-8.61,34.85-15.93,65.47-25.48,89.54-24.73-8.88-58.49-28.75-62.18-38-12.27-30.71,10.86-111.26,37.79-185.86-20.24,35.46-41.15,85.13-64,168.85-.68,2.49-2.79,4.12-4.65,3.6s-2.83-3-2.25-5.56C2558.77,1069.45,2659.2,886.67,2659.2,886.67Z" transform="translate(-438.85 -410)"/><path d="M2650.21,901.19l58.38,11.44,7.44-38.18a29.75,29.75,0,0,0-58.27-12.05c-.06.28-.11.57-.16.85Z" transform="translate(-438.85 -410)"/><path d="M2681,836.65c17.58-108.49,13.41-215.43-12.42-322.26-3.27-13.5,17.4-19.72,20.67-6.17A836.85,836.85,0,0,1,2702,841.78c-2.23,13.74-23.17,8.54-21-5.13Z" transform="translate(-438.85 -410)"/><polygon class="cls-15" points="648.38 405.06 1339.66 6.66 2257.39 82.36 1661.46 496.7 648.38 405.06"/><polygon class="cls-16" points="648.38 405.06 660.68 448.72 1659.33 546.08 1661.46 496.7 648.38 405.06"/><polygon class="cls-16" points="2257.39 82.36 1661.46 496.7 1659.33 546.08 2257.85 124.42 2257.39 82.36"/><polygon class="cls-17" points="1586.35 28.39 810.27 311.76 648.38 405.06 836 420.72 1813.35 45.73 1586.35 28.39"/><polygon class="cls-17" points="933.04 429.02 1882.92 51.47 1960.65 57.88 1027.5 439.36 933.04 429.02"/><polygon class="cls-17" points="1416.54 474.54 2098.24 193.01 1661.46 496.7 1416.54 474.54"/><path class="cls-15" d="M4160.92,2633.47a76.43,76.43,0,0,1-76.33,76.53H725a76.54,76.54,0,0,1,0-153.07H4084.59a76.43,76.43,0,0,1,76.33,76.53Z" transform="translate(-438.85 -410)"/><path class="cls-18" d="M1994.77,2562.75c0,27-256.8,48.93-573.58,48.93s-573.58-21.92-573.58-48.93c0-2,1.37-3.92,4-5.82H1990.73C1993.41,2558.83,1994.77,2560.78,1994.77,2562.75Z" transform="translate(-438.85 -410)"/><path class="cls-18" d="M4135,2632.59c0,32.23-217.29,58.35-485.32,58.35-255.35,0-464.63-23.72-483.87-53.83-138.95,3.12-301.9,4.9-476.12,4.9-509,0-921.57-15.27-921.57-34.12s412.6-34.11,921.57-34.11c269.56,0,512.1,4.29,680.6,11.11,79-6.69,175.39-10.64,279.39-10.64C3917.71,2574.25,4135,2600.38,4135,2632.59Z" transform="translate(-438.85 -410)"/><path class="cls-19" d="M2866.66,2253.55v213.07a94.56,94.56,0,0,1-6.23,33.93c-13.14,35.36-46.68,60.54-85.87,60.54h-1833c-50.83,0-92.1-42.33-92.1-94.47V2253.55c0-52.15,41.27-94.48,92.1-94.48h1833c39.19,0,72.73,25.19,85.87,60.54A94.65,94.65,0,0,1,2866.66,2253.55Z" transform="translate(-438.85 -410)"/><path class="cls-20" d="M2866.66,2253.55v213.07a94.56,94.56,0,0,1-6.23,33.93,134.15,134.15,0,0,1-19.82,1.42h-1896c-52.56,0-95.21-29.91-95.21-66.69v-150.4c0-36.77,42.65-66.69,95.21-66.69h1896a135.52,135.52,0,0,1,19.82,1.42A94.65,94.65,0,0,1,2866.66,2253.55Z" transform="translate(-438.85 -410)"/><path class="cls-19" d="M2486.27,2253.55v213.07c0,52.14-41.27,94.47-92.1,94.47H941.53c-50.83,0-92.1-42.33-92.1-94.47V2253.55c0-52.15,41.27-94.48,92.1-94.48H2394.17C2445,2159.07,2486.27,2201.4,2486.27,2253.55Z" transform="translate(-438.85 -410)"/><path class="cls-21" d="M2451.69,2253.55v213.07c0,52.14-41.27,94.47-92.11,94.47h-1418c-50.83,0-92.1-42.33-92.1-94.47V2253.55c0-52.15,41.27-94.48,92.1-94.48h1418C2410.42,2159.07,2451.69,2201.4,2451.69,2253.55Z" transform="translate(-438.85 -410)"/><rect class="cls-22" x="399.05" y="1879.14" width="368.86" height="153.71"/><rect class="cls-23" x="399.05" y="1914.61" width="368.86" height="118.24"/><rect class="cls-24" x="888.9" y="1749.07" width="80.14" height="414.71"/><rect class="cls-24" x="1033.93" y="1749.07" width="80.14" height="414.71"/><path class="cls-25" d="M2575.07,1962.56v141.21a52.54,52.54,0,0,1-5.07,22.49c-10.72,23.43-38.08,40.12-70.05,40.12H1042.36c-41.46,0-56.32-28.06-56.32-62.61V1962.56c0-34.55,14.86-62.6,56.32-62.6H2500c32,0,59.33,16.69,70.05,40.12A52.48,52.48,0,0,1,2575.07,1962.56Z" transform="translate(-438.85 -410)"/><path class="cls-20" d="M2575.07,1962.56v141.21a52.54,52.54,0,0,1-5.07,22.49,136.67,136.67,0,0,1-16.18.94H1044.9c-42.87,0-58.86-19.83-58.86-44.2v-99.67c0-24.37,16-44.19,58.86-44.19H2553.82a134.57,134.57,0,0,1,16.18.94A52.32,52.32,0,0,1,2575.07,1962.56Z" transform="translate(-438.85 -410)"/><path class="cls-25" d="M2302.4,1962.56v141.21c0,34.55-33.66,62.61-75.13,62.61H1042.36c-41.46,0-56.32-28.06-56.32-62.61V1962.56c0-34.55,14.86-62.6,56.32-62.6H2227.27C2268.74,1900,2302.4,1928,2302.4,1962.56Z" transform="translate(-438.85 -410)"/><path class="cls-26" d="M2274.2,1962.55v141.21c0,34.55-33.67,62.62-75.13,62.62H1042.37c-41.48,0-56.34-28.07-56.34-62.62V1962.55c0-34.52,14.86-62.59,56.34-62.59h1156.7C2240.53,1900,2274.2,1928,2274.2,1962.55Z" transform="translate(-438.85 -410)"/><path class="cls-27" d="M2274.2,1962.55v70.61H986v-70.61c0-34.52,14.86-62.59,56.34-62.59H2199C2240.53,1900,2274.2,1928,2274.2,1962.55Z" transform="translate(-438.85 -410)"/><ellipse class="cls-28" cx="731.16" cy="1632.26" rx="72.21" ry="84.6"/><rect class="cls-28" x="831.94" y="1535.38" width="14.96" height="192.83"/><rect class="cls-28" x="862.08" y="1562.51" width="14.96" height="140.01"/><path class="cls-29" d="M937.07,1077c-2.39,0-3.87.12-5.46.19l-4.49.26c-2.91.19-5.71.42-8.54.7-5.63.56-11.28,1.29-17.15,2.26s-12,2.2-18.51,3.85a189.51,189.51,0,0,0-21.24,6.68,153,153,0,0,0-26.12,12.86l-1.8,1.11-1.94,1.29q-1.94,1.3-3.84,2.65c-.65.47-1.23.86-1.93,1.4l-2,1.57c-1.33,1.06-2.67,2.14-4,3.23l-1,.83-1.08.94-2.11,1.92q-2.11,1.93-4.14,3.94c-1.42,1.44-2.89,3-4.28,4.56l-2.09,2.36c-.69.81-1.34,1.55-2.07,2.49-1.43,1.79-2.81,3.62-4.15,5.47-.68.93-1.34,1.86-2,2.81s-1.33,2-2,3a112.47,112.47,0,0,0-7.15,13.12c-1.08,2.33-2.1,4.7-3.05,7.08s-1.77,4.9-2.56,7.39-1.52,5-2.1,7.51-1.08,5-1.52,7.54a117.79,117.79,0,0,0-1.4,28.5c.07,1.12.16,2.23.26,3.34s.23,2,.36,3q.39,3,.89,6,.93,5.51,2.4,10.89c.45,1.71.93,3.45,1.44,5.11.48,1.49,1,3,1.49,4.44s1,2.94,1.6,4.4c.28.71.57,1.49.84,2.14l.8,1.88c1.09,2.51,2.23,5,3.4,7.46,1.12,2.25,2.22,4.29,3.38,6.42l1.75,3.15,1.66,2.73c1.12,1.82,2.26,3.61,3.41,5.4.3.47.56.85.83,1.24l.81,1.17,1.65,2.34L806,1288c.55.78,1.12,1.57,1.63,2.22l3.18,4.07c1.07,1.34,2.18,2.77,3.18,3.91l3.08,3.6c1,1.17,2.1,2.44,3.07,3.47,2,2.13,4,4.32,6,6.38l5.81,5.81a426.13,426.13,0,0,0,43.47,36.33l114.29-154.55-1.8-1.31-1.7-1.3-3.41-2.6c-1.16-.87-2.14-1.71-3.23-2.56s-2.18-1.71-3.13-2.53l-2.94-2.46-.74-.61-.65-.59-1.33-1.18-1.38-1.1c-.47-.39-.79-.74-1.19-1.11-.75-.71-1.6-1.46-2.27-2.13s-1.27-1.28-1.92-1.91-1-1.08-1.5-1.6a5.3,5.3,0,0,1-.54-.63l-.48-.54a1.31,1.31,0,0,1-.27-.35,2,2,0,0,0-.19-.22h0l.08.09a.41.41,0,0,1,.07.11v.06l.07.1a7.8,7.8,0,0,1,.5.77l.22.41c.16.24.31.49.45.74.3.53.51,1,.81,1.61a25.07,25.07,0,0,1,1.14,2.47l.25.64.36.87c.24.6.47,1.21.68,1.82s.4,1.24.58,1.86c.25.79.52,1.65.74,2.48.46,1.72.73,3.19,1.21,5.55.19,1.09.35,2.18.47,3.28l.17,1.68c.07.66.14,1.32.19,2,.11,1.33.16,2.66.17,4v4.28a81.1,81.1,0,0,1-1,9.33c-.27,1.63-.61,3.25-1,4.85s-.81,3.28-1.33,4.9-1.1,3.23-1.71,4.79-1.22,3.08-1.92,4.58a77.26,77.26,0,0,1-4.56,8.33l-1.25,1.89c-.38.58-.76,1.15-1.16,1.71-.8,1.12-1.64,2.22-2.52,3.28l-1.19,1.44q-.57.69-1.17,1.35c-.78.88-1.65,1.77-2.44,2.55s-1.4,1.41-2.14,2.08c-.36.34-.74.66-1.11,1l-.57.48-.46.4c-.61.53-1.24,1-1.88,1.53l-1.8,1.33a19.13,19.13,0,0,1-1.58,1.1l-.82.52-.62.41a38.17,38.17,0,0,1-6.49,3.32c-.94.36-.92.3-.4.17s1.59-.37,2.9-.58,2.9-.43,4.52-.59c.8-.08,1.62-.15,2.35-.2h1Z" transform="translate(-438.85 -410)"/><path class="cls-30" d="M902.52,1242.6,889,1256.26a295.06,295.06,0,0,0,25.54,22.25l11.87-15.13A275.81,275.81,0,0,1,902.52,1242.6Z" transform="translate(-438.85 -410)"/><path class="cls-30" d="M881.16,1200.18l-17.51-7.92a32.35,32.35,0,0,0-2.92,12.5,22.76,22.76,0,0,0,0,3.09,23.21,23.21,0,0,0,.26,3l.46,2.89c.19.93.44,1.81.66,2.72a62.32,62.32,0,0,0,8.59,18.21l16-10.58C881.27,1215.93,878,1206.61,881.16,1200.18Z" transform="translate(-438.85 -410)"/><path class="cls-30" d="M926.46,1180.83l-2.14-19.11a161.11,161.11,0,0,0-17.34,2.86c-2.9.65-5.81,1.38-8.73,2.28a88.64,88.64,0,0,0-8.81,3.13l7.37,17.75a69.24,69.24,0,0,1,7-2.48c2.4-.74,4.87-1.36,7.37-1.92A138.23,138.23,0,0,1,926.46,1180.83Z" transform="translate(-438.85 -410)"/><path class="cls-29" d="M875.36,1353.82c14,10.3,27.63,19.52,41.23,28.28s27.09,17,40.56,24.86l5.05,3,5,2.91,10.08,5.78c6.72,3.77,13.45,7.59,20.16,11.25l5,2.77L1005,1434l1.26.69,1.39.74,11.11,5.83,5.55,2.91c1.86,1,3.67,1.83,5.51,2.75l11,5.39,83.65-173.06-8.64-4.24c-1.42-.71-2.92-1.39-4.27-2.12l-4.12-2.17-8.25-4.32-1-.54-1.13-.63-2.27-1.25-4.55-2.49c-6.08-3.32-12-6.7-18-10.06l-8.88-5.09-4.43-2.55-4.36-2.57c-11.69-6.84-23.07-13.8-34-20.83s-21.4-14.13-30.89-21.14Z" transform="translate(-438.85 -410)"/><path class="cls-30" d="M1045.69,1338.93l-9.29,16.83c9.46,5.28,19.29,10.43,29.08,15.45l8.65-17.18C1064.59,1349.15,1055.13,1344.2,1045.69,1338.93Z" transform="translate(-438.85 -410)"/><path class="cls-30" d="M995.48,1310l-10,16.44,7,4.24,7.06,4.15c4.69,2.8,9.43,5.49,14.16,8.22l9.55-16.69c-4.67-2.69-9.35-5.35-14-8.1l-7-4.1Z" transform="translate(-438.85 -410)"/><path class="cls-30" d="M947.17,1278.73l-11.06,15.72q13.56,9.51,27.43,18.34l10.36-16.19Q960.31,1288,947.17,1278.73Z" transform="translate(-438.85 -410)"/><path class="cls-29" d="M1040.84,1452.33c29.23,14.1,58,26.25,86.71,37.61s57.32,21.84,85.93,31.71L1276.35,1340q-39.76-13.71-78.14-28.82c-25.48-10.07-50.44-20.67-73.72-31.92Z" transform="translate(-438.85 -410)"/><path class="cls-30" d="M1204.53,1409.19l-6.65,18c10.23,3.72,20.43,7.51,30.71,11l6.39-18.13C1224.77,1416.63,1214.67,1412.87,1204.53,1409.19Z" transform="translate(-438.85 -410)"/><path class="cls-30" d="M1150.43,1388.28l-7.25,17.81c5.06,2.06,10.14,4,15.2,6.05s10.13,4,15.23,5.95l6.89-17.94c-5-1.89-10-3.9-15-5.88S1155.42,1390.32,1150.43,1388.28Z" transform="translate(-438.85 -410)"/><path class="cls-30" d="M1097.52,1365.3l-8.11,17.43,7.46,3.44c2.49,1.15,5,2.32,7.48,3.39l15,6.57,7.58-17.66-14.78-6.47c-2.48-1-4.91-2.2-7.35-3.32Z" transform="translate(-438.85 -410)"/><path class="cls-29" d="M1213.48,1521.65c57.2,19.73,114.39,37.47,171.71,53.92l53.12-184.73c-54.75-15.7-108.94-32.55-162-50.83Z" transform="translate(-438.85 -410)"/><polygon class="cls-30" points="931.3 1053.93 925.78 1072.34 957.01 1081.56 962.38 1063.11 931.3 1053.93"/><path class="cls-30" d="M1314.64,1446.77l-5.83,18.32c10.36,3.24,20.7,6.6,31.09,9.72l5.66-18.37C1335.21,1453.33,1324.94,1450,1314.64,1446.77Z" transform="translate(-438.85 -410)"/><path class="cls-30" d="M1259.64,1428.68l-6.19,18.2c10.3,3.48,20.59,7,30.93,10.32l6-18.27C1280.08,1435.62,1269.87,1432.14,1259.64,1428.68Z" transform="translate(-438.85 -410)"/><path class="cls-29" d="M1385.19,1575.57c28.65,8.29,57.35,16.11,86,23.85,28.72,7.59,57.45,15.08,86.23,22.2l46.46-186.52c-27.81-6.88-55.5-14.09-83.14-21.4s-55.13-14.94-82.48-22.86Z" transform="translate(-438.85 -410)"/><polygon class="cls-30" points="1099.55 1100.63 1094.75 1119.25 1126.28 1127.29 1130.97 1108.65 1099.55 1100.63"/><polygon class="cls-30" points="1043.34 1085.78 1038.32 1104.34 1054.03 1108.58 1069.77 1112.72 1074.66 1094.13 1058.99 1090.01 1043.34 1085.78"/><path class="cls-30" d="M1426.35,1480.32l-5.26,18.49c10.44,3,20.9,5.85,31.35,8.78l5.12-18.53C1447.16,1486.14,1436.73,1483.29,1426.35,1480.32Z" transform="translate(-438.85 -410)"/><path class="cls-29" d="M1557.47,1621.62q86.33,21.48,173,40.39l41-187.78q-84.15-18.37-167.58-39.13Z" transform="translate(-438.85 -410)"/><polygon class="cls-30" points="1269.35 1141.64 1265.11 1160.39 1296.85 1167.47 1301 1148.7 1269.35 1141.64"/><path class="cls-30" d="M1651.53,1538.54l-4.41,18.71c10.56,2.46,21.1,5,31.68,7.39l4.31-18.73C1672.57,1543.53,1662.06,1541,1651.53,1538.54Z" transform="translate(-438.85 -410)"/><path class="cls-30" d="M1595.19,1525l-4.61,18.66c10.52,2.64,21.08,5.12,31.61,7.69l4.5-18.69C1616.19,1530.06,1605.67,1527.58,1595.19,1525Z" transform="translate(-438.85 -410)"/><path class="cls-29" d="M1730.49,1662q86.7,18.91,173.83,35.54l36-188.81q-84.66-16.15-168.85-34.51Z" transform="translate(-438.85 -410)"/><path class="cls-30" d="M1879.11,1587.82l-3.73,18.85c10.64,2.08,21.26,4.24,31.91,6.25l3.64-18.88C1900.31,1592,1889.72,1589.89,1879.11,1587.82Z" transform="translate(-438.85 -410)"/><polygon class="cls-30" points="1383.25 1166.29 1379.35 1185.11 1411.22 1191.62 1415.02 1172.77 1383.25 1166.29"/><path class="cls-30" d="M1765.39,1564.27l-4.06,18.79c10.6,2.27,21.18,4.61,31.8,6.8l4-18.81C1786.51,1568.86,1776,1566.54,1765.39,1564.27Z" transform="translate(-438.85 -410)"/><path class="cls-29" d="M1904.32,1697.55q87.12,16.62,174.68,31l31.05-189.69q-85-13.92-169.69-30.11Z" transform="translate(-438.85 -410)"/><path class="cls-30" d="M2050.92,1619.5l-3.24,19c10.68,1.87,21.38,3.61,32.07,5.39l3.14-19C2072.23,1623.1,2061.56,1621.36,2050.92,1619.5Z" transform="translate(-438.85 -410)"/><polygon class="cls-30" points="1554.78 1199.45 1551.37 1218.37 1583.39 1224.07 1586.71 1205.13 1554.78 1199.45"/><path class="cls-30" d="M1936.62,1599l-3.57,18.89q16,3,32,5.94l3.48-18.9C1957.87,1602.9,1947.23,1601,1936.62,1599Z" transform="translate(-438.85 -410)"/><path class="cls-29" d="M2079,1728.54q87.59,14.37,175.67,26.24l25.64-190.5q-85.21-11.44-170.26-25.43Z" transform="translate(-438.85 -410)"/><polygon class="cls-30" points="1784.65 1236.58 1781.93 1255.61 1814.15 1260.11 1816.76 1241.07 1784.65 1236.58"/><polygon class="cls-30" points="1727.11 1228.08 1724.22 1247.09 1740.3 1249.54 1756.39 1251.9 1759.18 1232.88 1743.14 1230.53 1727.11 1228.08"/><polygon class="cls-30" points="1669.84 1219.11 1666.78 1238.09 1698.9 1243.21 1701.87 1224.22 1669.84 1219.11"/><path class="cls-29" d="M2254.67,1754.78q88.11,11.84,176.83,20.91l19.32-191.23q-85.25-8.64-170.51-20.18Z" transform="translate(-438.85 -410)"/><path class="cls-30" d="M2396.78,1668.54l-2.11,19.11c10.78,1.19,21.56,2.4,32.35,3.47l2-19.12C2418.26,1670.93,2407.52,1669.73,2396.78,1668.54Z" transform="translate(-438.85 -410)"/><polygon class="cls-30" points="1900.16 1251.87 1897.84 1270.95 1930.16 1274.76 1932.36 1255.67 1900.16 1251.87"/><polygon class="cls-30" points="1842.67 1244.53 1840.15 1263.59 1856.27 1265.73 1872.41 1267.76 1874.82 1248.69 1858.74 1246.66 1842.67 1244.53"/><path class="cls-29" d="M2431.5,1775.69c59.16,6,118.55,11,178.3,14.45l11.32-191.88q-85-5-170.3-13.8Z" transform="translate(-438.85 -410)"/><polygon class="cls-30" points="2131.81 1274.49 2130.44 1293.66 2162.94 1295.84 2164.14 1276.66 2131.81 1274.49"/><polygon class="cls-30" points="2073.86 1269.92 2072.23 1289.07 2088.45 1290.46 2104.68 1291.72 2106.16 1272.55 2090.01 1271.3 2073.86 1269.92"/><polygon class="cls-30" points="2016.16 1264.66 2014.28 1283.79 2046.68 1286.84 2048.43 1267.69 2016.16 1264.66"/><path class="cls-29" d="M2609.8,1790.14l22.41,1.28c7.48.41,15,.72,22.46,1.08s15,.75,22.48,1l22.53.81c7.5.3,15,.46,22.57.64l22.6.52,22.66.26,11.34.13h11.37V1603.64h-10.49l-10.53-.12-21.06-.24-21.11-.5c-7-.16-14.07-.31-21.13-.59l-21.17-.76c-7.05-.22-14.13-.63-21.2-.94s-14.13-.62-21.21-1l-21.24-1.21Z" transform="translate(-438.85 -410)"/><polygon class="cls-30" points="2306.13 1282.54 2305.78 1301.76 2338.4 1302.14 2338.5 1282.92 2306.13 1282.54"/><polygon class="cls-30" points="2248.06 1280.87 2247.34 1300.08 2263.62 1300.66 2271.77 1300.95 2279.92 1301.15 2280.44 1281.93 2272.34 1281.73 2264.25 1281.45 2248.06 1280.87"/><path class="cls-30" d="M2629.07,1688.16l-1.06,19.2c10.83.67,21.68,1.13,32.53,1.64l.88-19.2C2650.64,1689.29,2639.85,1688.83,2629.07,1688.16Z" transform="translate(-438.85 -410)"/><path class="cls-29" d="M2790.22,1795.83H2813l22.82-.37,11.42-.19,11.46-.37,22.93-.76c30.65-1.32,61.49-3.31,92.58-6.23l-18.56-191.31q-40.5,3.76-81.88,5.49l-20.77.69-10.39.33-10.45.17-20.89.34h-21Z" transform="translate(-438.85 -410)"/><polygon class="cls-30" points="2480.36 1279.01 2481.62 1298.19 2497.94 1297.1 2514.26 1295.69 2512.58 1276.55 2496.48 1277.93 2480.36 1279.01"/><path class="cls-30" d="M2861.28,1691.81l.63,19.22c5.44-.19,10.88-.33,16.33-.55l16.32-.8-1-19.19-16.15.78C2872.06,1691.49,2866.67,1691.63,2861.28,1691.81Z" transform="translate(-438.85 -410)"/><polygon class="cls-30" points="2364.6 1282.89 2364.7 1302.12 2372.86 1302.1 2381.02 1301.98 2397.34 1301.71 2396.96 1282.49 2380.78 1282.76 2372.69 1282.88 2364.6 1282.89"/><path class="cls-29" d="M2974.17,1787.86c31.16-3.12,62.57-7.18,94.47-12.9s64.28-13.11,97.61-24l-59.73-182.69c-22.11,7.24-46.7,13-72.14,17.53s-51.92,8-78.77,10.73Z" transform="translate(-438.85 -410)"/><path class="cls-30" d="M3091.11,1665.25l4.47,18.7,16-4.14c2.67-.71,5.35-1.36,8-2.12l8-2.41-5.51-18.41-7.67,2.32c-2.56.74-5.17,1.36-7.75,2Z" transform="translate(-438.85 -410)"/><path class="cls-30" d="M3034.49,1676.39l3.08,19,8.12-1.29c2.71-.41,5.4-1,8.1-1.48l16.19-3-3.8-18.84-15.81,3c-2.65.47-5.27,1-7.92,1.44Z" transform="translate(-438.85 -410)"/><path class="cls-30" d="M2977.34,1684l2.06,19.11c5.43-.6,10.87-1.14,16.3-1.79l16.27-2.16-2.6-19-16,2.11C2988,1682.89,2982.69,1683.43,2977.34,1684Z" transform="translate(-438.85 -410)"/><path class="cls-6" d="M3497.13,1386.14H2696.34c-17.49-6.8-30.83-6.38-30.83-6.38h0c-74.6-45.83-142.57-2.61-142.57-2.61s-19.94-.65-44.64,9H1862.62a57.47,57.47,0,0,0-57.4,57.56h0V2525.5a53,53,0,0,0,52.92,53.08H3501.59a53,53,0,0,0,52.94-53.06V1443.7a57.47,57.47,0,0,0-57.4-57.56Z" transform="translate(-438.85 -410)"/><path class="cls-31" d="M1825.8,2514H3556.08v21.5a60.4,60.4,0,0,1-60.4,60.4H1886.21a60.4,60.4,0,0,1-60.4-60.4V2514h0Z" transform="translate(-438.85 -410)"/><path class="cls-32" d="M3556.08,1469V2514H1825.8V1469a65.49,65.49,0,0,1,65.49-65.49h1599.3A65.49,65.49,0,0,1,3556.08,1469Z" transform="translate(-438.85 -410)"/><path class="cls-33" d="M3575.1,1469V2514H1844.82V1469a65.49,65.49,0,0,1,65.49-65.49h1599.3A65.49,65.49,0,0,1,3575.1,1469Z" transform="translate(-438.85 -410)"/><path class="cls-1" d="M3510.19,1465.31V2456.9a1.31,1.31,0,0,1-1.14,1.43H1906.36a1.34,1.34,0,0,1-1.19-1.43V1465.31a1.29,1.29,0,0,1,1.19-1.36H3509.05A1.27,1.27,0,0,1,3510.19,1465.31Z" transform="translate(-438.85 -410)"/><path class="cls-34" d="M3510.19,1465.31V2456.9a1.31,1.31,0,0,1-1.14,1.43H2221.65a1.33,1.33,0,0,1-1.19-1.43V1465.31a1.28,1.28,0,0,1,1.19-1.36h1287.4A1.27,1.27,0,0,1,3510.19,1465.31Z" transform="translate(-438.85 -410)"/><path class="cls-35" d="M1844.83,2514H3575.11v21.5a60.4,60.4,0,0,1-60.4,60.4H1905.23a60.4,60.4,0,0,1-60.4-60.4V2514Z" transform="translate(-438.85 -410)"/><path class="cls-36" d="M3268.83,1892.13c.89-2.41,48.52-83.63,41.7-89.52-7-6-21.74,5.9-21.74,5.9l7.9-19.39a3.93,3.93,0,0,0-3.45-4.34,4.26,4.26,0,0,0-1,0c-15.68,3-42.78,41.46-44.54,44l9.77-29.27a1.38,1.38,0,0,0-.88-1.74,1.26,1.26,0,0,0-.61-.06c-29.79,2.9-100.3,116.44-107.58,128.22-5.14-15.39-24.75-71-40.87-67.22-18.68,4.36-3.71,170.64-3.71,170.64l-18.23,32.86a30.88,30.88,0,0,0-4.5.54l-17.36,32.43-19.36,7.92c-12.15,10.46-31,47.66-46.44,81.31l-1.09-1.08c-4-4.08-8-8.32-12-12.65-48.16-52.59-91.28-121.42-116.8-164.88-25.35-43.24-49-71.77-61.35-85.39,7.2-25.09.35-62-35.82-94.37-60.16-53.85-11.44-71.8,0-135.91,8.2-46-6.87-84-16.06-101.74h0a107.57,107.57,0,0,0-6.32-10.9l-4.66-12c39.55-71.69,8.47-156.49-23.46-189.2-33.08-33.9-71.37-32.63-71.37-32.63h0c-78.67-48.32-150.33-2.75-150.33-2.75s-112.06-3.71-139.31,131a193.38,193.38,0,0,0-3.94,44.9h0s-18.17,99.62-9.41,155.11-93.13,75.81-91.48,146.12,38.89,85.7,7.67,121.41c-19.93,22.78-17.77,61.89,7.18,73.23a22.37,22.37,0,0,0,2.13,1.88c-9.63,33.57-18.55,75.65-26.58,120.51-20.59,93.7-41.36,209.53-39.34,288.33-2.6,24.54-4,39.29-4,39.29h458.09v-.47h495c22-27.65,52.5-213.9,48.24-266.78s-17.77-56.69-17.77-56.69l6.41-29.94c-5.65-4.46-11.08-8.46-16.34-12.13l10.9-35.19,11.29-17.26a473.13,473.13,0,0,0,48.38-33c4-3.16,9.22-10.07,15.09-19.47,29.85-47.89,54.76-144.06,54.76-144.06C3302,1836,3268.83,1892.13,3268.83,1892.13Z" transform="translate(-438.85 -410)"/><path class="cls-37" d="M2739.52,1573.17s33.82,48.54,22.38,112.65-60.15,82.06,0,135.91,39.27,120.22,7.45,123.93-163.4-25.22-163.4-25.22l-43.7-175.22L2637.3,1603l89.9-61.44Z" transform="translate(-438.85 -410)"/><path class="cls-37" d="M2346.45,1512.49s-18.18,99.62-9.42,155.11-93.13,75.81-91.48,146.13,38.89,85.69,7.67,121.4-8.22,111.52,71.76,57.68,197.91-237.41,197.91-237.41l-10.41-153.82Z" transform="translate(-438.85 -410)"/><path class="cls-38" d="M2369.15,1580s10.19,51.09,5.68,81.54c-6,40.65-40.54,51.08-49.3,90.09-12.46,55.44-46,35.71-54.23,79.65s13.69,97.79-3.84,125.26-24.65,62.62,26.3,60.42,310-214.24,310-214.24,6.58-48.34-34.51-95S2531.5,1600,2531.5,1600Z" transform="translate(-438.85 -410)"/><path class="cls-39" d="M3251.89,1987.41c-5.87,9.41-11.07,16.31-15.08,19.47a472.16,472.16,0,0,1-48.39,33l-11.29,17.26-78.46,253.37-89.38-131.27L3094.87,2025s-15-166.28,3.71-170.64c16.12-3.74,35.73,51.84,40.87,67.22.75,2.45,1.22,3.9,1.22,3.9s59.81,11.7,66.81,67.32C3207.48,1992.84,3235.4,1980.13,3251.89,1987.41Z" transform="translate(-438.85 -410)"/><path class="cls-39" d="M3306.65,1843.35s-24.9,96.17-54.76,144.06c-5.87,9.41-11.07,16.31-15.08,19.47a472.16,472.16,0,0,1-48.39,33l-11.29,17.26-74.75-148.73,36.5,14.16s.21-.35.57-1c7.28-11.78,77.79-125.32,107.58-128.22a1.38,1.38,0,0,1,1.55,1.19,1.59,1.59,0,0,1-.06.61l-9.77,29.27c1.77-2.52,28.86-41,44.54-44a3.92,3.92,0,0,1,4.44,3.31,3.81,3.81,0,0,1,0,1l-7.9,19.39s14.75-11.93,21.74-5.9c6.82,5.89-40.81,87.11-41.7,89.53C3259.89,1887.83,3293.07,1831.64,3306.65,1843.35Z" transform="translate(-438.85 -410)"/><path class="cls-40" d="M2944,2285.46l18.86-45s48.93-121.3,72.55-141.63l19.36-7.92,17.35-32.43s39.91-9.68,110.44,46.06l-6.42,29.94s13.51,3.79,17.77,56.68-26.28,239.13-48.24,266.78Z" transform="translate(-438.85 -410)"/><path class="cls-40" d="M3145.7,2457.89h-367l-16.82-506.65,27-44.45s33.32,31.78,70.22,94.7c25.51,43.46,68.63,112.29,116.8,164.88,4,4.33,8,8.57,12,12.65,17.82,18.11,36.18,33.6,54.48,44.49Z" transform="translate(-438.85 -410)"/><path class="cls-41" d="M2745.85,1584.08s.17,1.41.36,4c1.18,16,3.15,77.1-28,139.27-36.32,72.4-24.6,150.81,14.28,179.41s-122.43-20-122.43-20L2562.25,1737l48.49-114.68,79.64-98.25" transform="translate(-438.85 -410)"/><path class="cls-42" d="M2429,1854.21s-78.18,53.57-155.06,120.21c0,0,109.46,152.89,100.34,483.48h404.47l53.3-259.29A446.53,446.53,0,0,0,2821.62,2037l-32.77-130.22s-46.16-15.41-142.59-51.29Z" transform="translate(-438.85 -410)"/><path class="cls-43" d="M2657.08,2235.32l-3.6,125.91-2.76,97.14H2192.63s33.88-362.33,81.81-484c0,0,86.2-78.55,153.58-118.84l173.57,241.06A654.51,654.51,0,0,1,2657.08,2235.32Z" transform="translate(-438.85 -410)"/><path class="cls-44" d="M2428,1855.51,2470.24,2074l131.35,22.56S2485.93,1922.71,2428,1855.51Z" transform="translate(-438.85 -410)"/><path class="cls-44" d="M2676.14,2389.7l-22.66-28.47-102.42-128.71,6.87-143.45,43.66,7.49a654.75,654.75,0,0,1,55.49,138.76C2682,2327.17,2676.14,2389.7,2676.14,2389.7Z" transform="translate(-438.85 -410)"/><path class="cls-43" d="M2778.73,2457.89s0-22.93-.42-57.24h0c-1-79.5-4.5-220-16.41-277.27-2.88-13.87-8.2-30.26-15-47.9C2713.3,1988.93,2643,1872,2643,1872v-17.8l145.93,52.6,58.57,160.47,4,390.62Z" transform="translate(-438.85 -410)"/><path class="cls-44" d="M2818.65,2102.63l-40.34,298c-1-79.5-4.5-220-16.41-277.27-2.88-13.87-8.2-30.26-15-47.9l9.56-24.39Z" transform="translate(-438.85 -410)"/><path class="cls-44" d="M2646.26,1855.51l107.21,95.72,3,151.4S2663.69,1903.53,2643,1872Z" transform="translate(-438.85 -410)"/><path class="cls-39" d="M2659.23,2346.21l72.7-130.44,77.54-61.72a5.66,5.66,0,0,1,9.18,4.45v7.21a46.05,46.05,0,0,1-11.19,30.05l-34.93,40.36-4.62,18.5,57.2-22.2s30.45,48.11,6.46,157.28l-143.92,29.6Z" transform="translate(-438.85 -410)"/><path class="cls-39" d="M2824.19,2260.17l.92-27.75,50.74-24.06s40.6-58.28,64.58-51.8l9.23,6.47-52.59,74-62.73,44.4Z" transform="translate(-438.85 -410)"/><path class="cls-39" d="M2904.45,2201l-8.3,62.92-12.92,17.57v37l-20.29,37-6,15.33a26,26,0,0,1-14.69,14.71l-10.67,4.19-12.92-86,51.67-66.61Z" transform="translate(-438.85 -410)"/><polygon class="cls-45" points="2461.44 1822.52 2453.69 1830.64 2401.93 1865.13 2403.87 1871.45 2453.22 1835.73 2461.44 1822.52"/><polygon class="cls-45" points="2444.39 1871.45 2412.63 1900.49 2412.63 1909.05 2444.39 1877.82 2444.39 1871.45"/><path class="cls-40" d="M2274.45,1974.34s-97.74,349.1-74.37,483.56h203.53l45.76-160.26S2439.28,1987.91,2274.45,1974.34Z" transform="translate(-438.85 -410)"/><path class="cls-40" d="M2320.43,2457.9s53.91-74,253.62-135.38a32.63,32.63,0,0,1,22.43,1.21l30.34,13,32.4-17.72s10.31,63.51,66.29,118.17l-17.68,20.68Z" transform="translate(-438.85 -410)"/><path class="cls-46" d="M2363.6,2022.76s90.43,102,106.64,272.57l-45.38,86.78,24.51-84.47S2434.65,2166,2363.6,2022.76Z" transform="translate(-438.85 -410)"/><path class="cls-46" d="M2424.86,2382.11s-67.42,12-112.91,48.63Z" transform="translate(-438.85 -410)"/><path class="cls-46" d="M2423.93,2381.78s-65,21.62-104.72,64.47Z" transform="translate(-438.85 -410)"/><path class="cls-46" d="M2626.82,2336.77s24.2,98.64,73.92,121.13H2640S2616.53,2401.1,2626.82,2336.77Z" transform="translate(-438.85 -410)"/><path class="cls-47" d="M2613.7,1774.53s56.68,51.58,26.47,176.7l-71.44-152.56Z" transform="translate(-438.85 -410)"/><path class="cls-48" d="M2444.94,1809.78l-7.69-36.59s13.35-21.56,96.85-23.52-22.3,60.11-22.3,60.11l-36.27,17.64Z" transform="translate(-438.85 -410)"/><path class="cls-48" d="M2614.68,1792.77s38.68,70.11,25.49,158.46l-36.31-114Z" transform="translate(-438.85 -410)"/><path class="cls-39" d="M2477.19,1642.41l-9.77,193.39s52.12,83.31,171.61,109.86c0,0,8.2-58.57-22.42-116.72l-6.52-122.17S2592.51,1564.67,2477.19,1642.41Z" transform="translate(-438.85 -410)"/><path class="cls-49" d="M2702.19,1453.63c-2-6.8-4.15-12.16-6.62-15.53-18.76-25.76-36.34,2.19-36.34,2.19s-3.44-20.51,14.65-24S2698.66,1440,2702.19,1453.63Z" transform="translate(-438.85 -410)"/><path class="cls-50" d="M2659.23,1440.29c-30.26-20.56-51.07-13.89-59.27,40.84-.92,6-1.66,12.54-2.26,19.71-.24,3-.47,6.05-.66,9.25-.22,3.66-.39,7.46-.55,11.4-.79,20.86-7.3,37.08-16.9,49.73-1.19,1.57-2.41,3.08-3.71,4.55a90.84,90.84,0,0,1-13.63,12.59c1.09-1.24,18.49-21.7,19.17-61.88.7-41.47-1.9-99.79,39.68-108.86C2621.1,1417.62,2645.88,1415,2659.23,1440.29Z" transform="translate(-438.85 -410)"/><path class="cls-47" d="M2428,1855.51l9.23-82.32a1.72,1.72,0,0,1,1.72-1.74,1.84,1.84,0,0,1,.57.09c19.25,6.68,178.87,68.73,200.63,179.69C2640.17,1951.23,2488.61,1911.37,2428,1855.51Z" transform="translate(-438.85 -410)"/><path class="cls-51" d="M2729.83,1493.23s8.81,203.84-69,251.87c-8.48,5.21-17.66,9.94-27.69,11.67-39.16,6.73-115.81-4.16-152.26-75.86-43.49-85.48-22.2-213.94-22.2-213.94l133.49-79.09,4.84,2,83.23,34.26Z" transform="translate(-438.85 -410)"/><path class="cls-39" d="M2729.83,1493.23a740.88,740.88,0,0,1-1.74,82.43,563.2,563.2,0,0,1-8.29,63.92c-9.19,47.78-27.64,86.19-59,105.52a100.35,100.35,0,0,1-27.69,11.67c-49.16,6.61-111.21-18.78-144.82-84.91-43.48-85.49-66.34-200.33-66.34-200.33l175-81.65,92,20.1Z" transform="translate(-438.85 -410)"/><ellipse class="cls-52" cx="2551.04" cy="1623.03" rx="50.96" ry="56.04" transform="translate(-859.25 653.96) rotate(-21.81)"/><path class="cls-37" d="M2501.73,1762c-42.25,43.19-47.93,47.8-34.3,116.53s-33.61,33-30,92.53c3.21,53.26-69.3,55.3-69.19,7a64,64,0,0,1,3.35-19.3c21.71-67.4,74.26-63.27,57.74-114.66s-21.67-96,8.1-117.6,42.05-137.35,32.83-157.47c-5.86-12.73,9-17.28,20.67-18.91a93.85,93.85,0,0,1,12.42-.91s16.26,63.79.65,93.23S2544,1718.83,2501.73,1762Z" transform="translate(-438.85 -410)"/><path class="cls-53" d="M2483.52,1730.67c-42.25,43.19-47.93,47.81-34.3,116.54s-33.61,33-30,92.53c2.16,35.72-29.77,48.41-51,38.29a64,64,0,0,1,3.35-19.3c21.71-67.4,74.26-63.27,57.74-114.66s-21.67-96,8.1-117.6,42.05-137.35,32.83-157.47c-5.86-12.73,9-17.28,20.67-18.91,2.46,20.25,3.11,45.42-5.14,61C2470.13,1640.52,2525.75,1687.48,2483.52,1730.67Z" transform="translate(-438.85 -410)"/><path class="cls-37" d="M2648.08,1432.19a93.1,93.1,0,0,1-16.25-1.22s-33.51-16.36-42.42,3.12-22.84,131.3-140,153.93l4.09,3.3-11.29,68.31s-119.11-57.34-91.86-192,139.31-131,139.31-131,79-50.21,162.08,10.65C2725.6,1401.33,2670.73,1431.8,2648.08,1432.19Z" transform="translate(-438.85 -410)"/><path class="cls-54" d="M2589.2,1522.07c4,1,9.21,1,14.26,1.2s10.21.3,14.65.52,9.58.56,14.66,1,10.28.84,14.26.24,5.46-2.62,1-5.48c-4.18-2.77-15.23-6.12-30-6.88s-25.76,1.51-29.92,3.87C2583.72,1518.91,2585.35,1521.13,2589.2,1522.07Z" transform="translate(-438.85 -410)"/><path class="cls-54" d="M2691.37,1528.25c2.39.49,5.42.14,8.37-.09s6-.5,8.56-.64,5.61-.25,8.59-.3,6-.09,8.31-.83,3-2.4.22-4.28c-2.62-1.83-9.27-3.62-17.9-3.15s-14.88,3-17.14,5.08S2689.07,1527.8,2691.37,1528.25Z" transform="translate(-438.85 -410)"/><path class="cls-52" d="M2727.05,1584.08a542.88,542.88,0,0,1-8,61.31,77.19,77.19,0,0,1-2.54-28.77C2717.71,1604.06,2721.56,1592.78,2727.05,1584.08Z" transform="translate(-438.85 -410)"/><path class="cls-39" d="M2686.9,1603.15l11.08,19.77s6.87-9.42.27-16.49C2693.92,1601.8,2686.9,1603.15,2686.9,1603.15Z" transform="translate(-438.85 -410)"/><path class="cls-55" d="M2685.16,1634.91l-.6.12-7.86,1.18a1.77,1.77,0,0,1-1.84-1.62,1.7,1.7,0,0,1,1.18-2.09l7.87-1.19c2.31-.33,4.21-2,5.42-4.78a17.88,17.88,0,0,0,1-10.2l-.2-1.1c-.51-2.9-2.36-5-4.13-4.79-2.63.4-5.35-.75-7.66-3.23a18.53,18.53,0,0,1-4.44-9.42l-2.67-15.68a1.74,1.74,0,0,1,1.19-2.08,1.8,1.8,0,0,1,1.84,1.64l2.67,15.67a14.17,14.17,0,0,0,3.35,7.17,5.89,5.89,0,0,0,5.07,2.22c3.44-.52,6.94,3.09,7.81,8l.19,1.1a22.16,22.16,0,0,1-1.22,12.65C2690.55,1632,2688.11,1634.25,2685.16,1634.91Z" transform="translate(-438.85 -410)"/><path class="cls-54" d="M2622.87,1574.76c.46,7.28-3.83,13.49-9.59,13.85s-10.81-5.24-11.27-12.53,3.84-13.49,9.6-13.86S2622.41,1567.47,2622.87,1574.76Z" transform="translate(-438.85 -410)"/><path class="cls-54" d="M2606,1570.22a18.59,18.59,0,0,1-8.73-5.93s2.53,6.24,4.88,8.77S2606,1570.22,2606,1570.22Z" transform="translate(-438.85 -410)"/><path class="cls-54" d="M2698.06,1575.44c-.11,6.62,3.54,12.29,8.15,12.66s8.44-4.69,8.55-11.31-3.54-12.3-8.15-12.67S2698.17,1568.82,2698.06,1575.44Z" transform="translate(-438.85 -410)"/><path class="cls-54" d="M2711.41,1571.43a13.84,13.84,0,0,0,6.76-5.33s-1.8,5.65-3.59,7.93S2711.41,1571.43,2711.41,1571.43Z" transform="translate(-438.85 -410)"/><path class="cls-56" d="M2648.08,1432.19a93.1,93.1,0,0,1-16.25-1.22s-33.51-16.36-42.42,3.12-22.84,131.3-140,153.93l-.41,2.47c-9.39-2-7.33-5.33,16.55-10.66,84.93-18.95,95-137.63,119.12-170.21s54.47-2.38,54.47-2.38Z" transform="translate(-438.85 -410)"/><path class="cls-57" d="M2413.57,1584.08s-42.22-69.56-21.54-174.1c0,0-54,102.21-13.19,200.14,0,0,13.66,17.64,38.53,33.58Z" transform="translate(-438.85 -410)"/><path class="cls-39" d="M2468.74,1583.59s-12.5-38.35-47.54-26.34-34.53,70.57-8.11,98.48,54.8-1.39,54.8-1.39Z" transform="translate(-438.85 -410)"/><path class="cls-55" d="M2431.67,1635.78a4.34,4.34,0,0,0,3.07-1.2l19.14-17.83-24.42-31a4.31,4.31,0,0,0-6-.86,3.09,3.09,0,0,0-.39.33,5.22,5.22,0,0,0-.51,7l18.53,23.49-12.24,11.42a5.2,5.2,0,0,0-.5,7A4.42,4.42,0,0,0,2431.67,1635.78Z" transform="translate(-438.85 -410)"/><path class="cls-55" d="M2684,1669.6s-17.14-.93-44.36-5.09c0,0-10.15,40.71,11.54,42.56S2684,1669.6,2684,1669.6Z" transform="translate(-438.85 -410)"/><path class="cls-47" d="M2573.77,1474.16l-63.38-16.77a1.63,1.63,0,0,0-1.16,3l58.21,30.21a8.84,8.84,0,0,0,11.92-3.77,8,8,0,0,0,.38-.84h0a8.89,8.89,0,0,0-5-11.52C2574.4,1474.35,2574.09,1474.25,2573.77,1474.16Z" transform="translate(-438.85 -410)"/><path class="cls-47" d="M2562.22,1500.72l-56.49-32c-1.67-1-3.27.85-1.84,2.07l48.26,41.3c3.85,3.3,9.84,3.26,12.88-.08h0C2568.11,1508.57,2566.79,1503.31,2562.22,1500.72Z" transform="translate(-438.85 -410)"/><path class="cls-37" d="M2640,1339.38s38.29-1.27,71.38,32.63,65.3,123.77,18.86,197c0,0-20.61-132.3-56.39-152.68Z" transform="translate(-438.85 -410)"/><path class="cls-46" d="M2987.89,2179c-14.92,27-52.44,98.58-66,157.55,0,0,19.34-129.87,54-170.2C2979.84,2170.7,2983.85,2174.94,2987.89,2179Z" transform="translate(-438.85 -410)"/><path class="cls-34" d="M2135.59,1576.65H1983a11.86,11.86,0,0,0-11.85,11.87h0v153a11.86,11.86,0,0,0,11.84,11.88h152.56a11.87,11.87,0,0,0,11.85-11.88v-153A11.86,11.86,0,0,0,2135.59,1576.65Z" transform="translate(-438.85 -410)"/><path class="cls-34" d="M2135.26,1777.68h-151.9a12.18,12.18,0,0,0-12.17,12.19h0v152.33a12.19,12.19,0,0,0,12.17,12.21h151.9a12.2,12.2,0,0,0,12.18-12.21V1789.88A12.19,12.19,0,0,0,2135.26,1777.68Z" transform="translate(-438.85 -410)"/><path class="cls-34" d="M2136.88,1978.7H1981.74a10.56,10.56,0,0,0-10.55,10.57h0v155.58a10.56,10.56,0,0,0,10.54,10.58h155.15a10.57,10.57,0,0,0,10.56-10.58h0V1989.28a10.57,10.57,0,0,0-10.56-10.58Z" transform="translate(-438.85 -410)"/><path class="cls-34" d="M2133.31,2179.72h-148a14.14,14.14,0,0,0-14.12,14.16h0V2342.3a14.14,14.14,0,0,0,14.11,14.17h148a14.16,14.16,0,0,0,14.13-14.17V2193.89A14.16,14.16,0,0,0,2133.31,2179.72Z" transform="translate(-438.85 -410)"/><rect class="cls-44" x="1524.64" y="1157.75" width="176.24" height="176.74" rx="13.52"/><ellipse class="cls-34" cx="1613.22" cy="1211.62" rx="34.44" ry="34.54"/><path class="cls-34" d="M2049.74,1656.16h4a46.45,46.45,0,0,1,46.45,46.45v41.89h-96.84v-41.9A46.45,46.45,0,0,1,2049.74,1656.16Z" transform="translate(-438.85 -410)"/><rect class="cls-44" x="1524.64" y="1358.78" width="176.24" height="176.74" rx="13.89"/><ellipse class="cls-34" cx="1613.22" cy="1412.64" rx="34.44" ry="34.54"/><path class="cls-34" d="M2049.74,1857.18h4a46.45,46.45,0,0,1,46.45,46.45v41.89h-96.84v-41.89A46.45,46.45,0,0,1,2049.74,1857.18Z" transform="translate(-438.85 -410)"/><rect class="cls-44" x="1524.64" y="1559.8" width="176.24" height="176.74" rx="12.04"/><ellipse class="cls-34" cx="1613.22" cy="1613.67" rx="34.44" ry="34.54"/><path class="cls-34" d="M2049.74,2058.2h4a46.45,46.45,0,0,1,46.45,46.45v41.89h-96.84v-41.89A46.45,46.45,0,0,1,2049.74,2058.2Z" transform="translate(-438.85 -410)"/><rect class="cls-44" x="1524.64" y="1760.82" width="176.24" height="176.74" rx="16.11"/><ellipse class="cls-34" cx="1613.22" cy="1814.69" rx="34.44" ry="34.54"/><path class="cls-34" d="M2049.74,2259.23h4a46.45,46.45,0,0,1,46.45,46.45v41.89h-96.84v-41.89A46.45,46.45,0,0,1,2049.74,2259.23Z" transform="translate(-438.85 -410)"/><g class="cls-58"><path class="cls-59" d="M4036.1,918.08H3254.27a9.19,9.19,0,0,0-9.18,9.21v605.36a9.19,9.19,0,0,0,9.18,9.21H4036.1a9.19,9.19,0,0,0,9.18-9.21V927.29A9.19,9.19,0,0,0,4036.1,918.08Z" transform="translate(-438.85 -410)"/><path class="cls-59" d="M4049.27,661.89H3244.34a31.63,31.63,0,0,0-31.59,31.67h0V825.43a31.64,31.64,0,0,0,31.59,31.68h804.93a31.64,31.64,0,0,0,31.59-31.68V693.56a31.63,31.63,0,0,0-31.59-31.67Z" transform="translate(-438.85 -410)"/></g><rect class="cls-60" x="2816.19" y="496.88" width="800.2" height="623.77" rx="10.48"/><rect class="cls-61" x="2889.3" y="554.92" width="649.91" height="61.1" rx="9.82"/><path class="cls-61" d="M3420.57,1365.61h-54.85a23.38,23.38,0,0,1-23.35-23.41h0a23.38,23.38,0,0,1,23.35-23.41h54.85a23.37,23.37,0,0,1,23.34,23.4h0a23.37,23.37,0,0,1-23.33,23.41Z" transform="translate(-438.85 -410)"/><path class="cls-62" d="M3952.69,1365.61h-54.85a23.38,23.38,0,0,1-23.35-23.41h0a23.38,23.38,0,0,1,23.35-23.41h54.85A23.37,23.37,0,0,1,3976,1342.2h0A23.37,23.37,0,0,1,3952.69,1365.61Z" transform="translate(-438.85 -410)"/><rect class="cls-63" x="2883.21" y="677.12" width="670.22" height="46.84" rx="7.21"/><rect class="cls-63" x="2883.21" y="756.54" width="670.22" height="46.84" rx="7.21"/><rect class="cls-64" x="2947.18" y="832.92" width="544.31" height="10.69" rx="5.11"/><rect class="cls-60" x="2783.86" y="240.68" width="868.11" height="195.22" rx="36.04"/><rect class="cls-61" x="2877.73" y="274.27" width="683.22" height="30.11" rx="14.4"/><rect class="cls-61" x="2877.73" y="323.24" width="683.22" height="30.11" rx="14.4"/><rect class="cls-61" x="2877.73" y="372.21" width="683.22" height="30.11" rx="14.4"/><path class="cls-65" d="M3595.53,1305.34H2871.67a14,14,0,0,0-14,14v458.25a14,14,0,0,0,13.94,14.06h723.92a14,14,0,0,0,14-14V1319.39a14,14,0,0,0-14-14.05Z" transform="translate(-438.85 -410)"/><rect class="cls-66" x="2427.71" y="886.42" width="751.89" height="486.31" rx="15.99"/><rect class="cls-34" x="2487.66" y="925.19" width="631.98" height="408.75" rx="11.17"/><polygon class="cls-67" points="2558.12 1208.63 2541.83 1176.56 2507.05 1185.41 2549.4 1091.73 2600.48 1114.95 2558.12 1208.63"/><polygon class="cls-68" points="2597.35 1113.53 2556.12 1204.7 2558.12 1208.63 2600.48 1114.95 2597.35 1113.53"/><polygon class="cls-67" points="2633.29 1207.05 2648.21 1174.32 2683.34 1181.69 2637.08 1089.88 2587.03 1115.23 2633.29 1207.05"/><polygon class="cls-68" points="2590.1 1113.68 2635.12 1203.03 2633.29 1207.05 2587.03 1115.23 2590.1 1113.68"/><path class="cls-69" d="M3078.77,1505.51a65.44,65.44,0,0,1-92.5,2.6l-.62-.6-6.75,14.93c4.13.22,9.06-.58,11.92,1.26,2.27,1.45,3.58,4.82,5,8,1.31,2.92,2.72,5.66,5,6.58,4.79,1.87,12.07-4.81,17.25-3.9,4.36.78,8.36,7.5,12.79,9.19l2-4.37,2.16,4.28c4.36-1.88,8.07-8.76,12.4-9.72,5.14-1.13,12.68,5.24,17.39,3.16s5.21-12,9.44-15c2.78-2,7.74-1.37,11.85-1.76Z" transform="translate(-438.85 -410)"/><path class="cls-70" d="M3105.18,1470.18c.89-5,9.66-9.6,9.55-14.91s-9.07-9.5-10.17-14.5c-1.13-5.15,5.22-12.72,3.15-17.44-1-2.31-3.8-3.6-6.76-4.79-3.22-1.3-6.63-2.47-8.18-4.68-3-4.28,0-13.72-3.76-17.33-1.56-1.49-4.07-1.79-6.8-1.81-3.82,0-8.05.42-10.62-1.22a11.13,11.13,0,0,1-3.48-4.65c-1.89-3.88-3.35-8.66-6.58-9.92-4.79-1.88-12.06,4.8-17.24,3.89-5-.89-9.58-9.69-14.88-9.57s-9.47,9.09-14.46,10.19a6.4,6.4,0,0,1-1.75.12c-5-.28-11.44-5.13-15.64-3.28-4.78,2.11-5.21,12-9.44,15s-13.68,0-17.27,3.77-.23,13.07-3,17.47-12.63,5.2-14.53,10.09c-1.66,4.28,3.44,10.54,3.93,15.52a6.56,6.56,0,0,1,0,1.77c-.89,5-9.66,9.61-9.55,14.92s9.07,9.5,10.17,14.49c1.13,5.15-5.22,12.73-3.15,17.45,1.4,3.18,6.22,4.45,10.17,6.17a11.18,11.18,0,0,1,4.77,3.3c1.74,2.49,1.46,6.76,1.66,10.59.15,2.72.54,5.23,2.1,6.73,3.74,3.6,13,.22,17.41,3,2.27,1.45,3.58,4.82,5,8,1.32,2.92,2.73,5.66,5.06,6.57,4.79,1.88,12.06-4.8,17.24-3.89s9.58,9.69,14.87,9.58,9.48-9.1,14.46-10.2c5.14-1.13,12.69,5.24,17.39,3.16s5.22-12,9.45-15,13.68,0,17.27-3.77.22-13.07,3-17.46,12.63-5.21,14.53-10.1S3104.26,1475.37,3105.18,1470.18Zm-72.62,52.68a65,65,0,0,1-26.55-5,65.44,65.44,0,1,1,26.55,5Z" transform="translate(-438.85 -410)"/><ellipse class="cls-71" cx="2592.32" cy="1047.03" rx="67.36" ry="67.55"/><ellipse class="cls-67" cx="2592.32" cy="1047.03" rx="59.94" ry="60.11"/><path class="cls-72" d="M3099.45,1458.17a65.77,65.77,0,0,0-21.56-47.36,65.72,65.72,0,0,1-90.8,95,65.59,65.59,0,0,0,112.36-47.61Z" transform="translate(-438.85 -410)"/><path class="cls-73" d="M2973.89,1461.34a59.9,59.9,0,0,1,103.84-42.17,60,60,0,1,0-92.59,76.33c.68.83,1.39,1.65,2.12,2.44A59.89,59.89,0,0,1,2973.89,1461.34Z" transform="translate(-438.85 -410)"/><rect class="cls-74" x="2464.83" y="909.84" width="678.55" height="439.46" rx="12"/><rect class="cls-75" x="2705.03" y="984.57" width="363.34" height="28.26" rx="13.51"/><rect class="cls-75" x="2705.03" y="1044.06" width="363.34" height="28.26" rx="13.51"/><rect class="cls-75" x="2705.03" y="1103.54" width="363.34" height="28.26" rx="13.51"/><rect class="cls-75" x="2705.03" y="1163.03" width="363.34" height="28.26" rx="13.51"/><rect class="cls-75" x="2705.03" y="1222.52" width="363.34" height="28.26" rx="13.51"/><path class="cls-76" d="M3995.3,2269.37h30.41c5.22,0,9.43-5.44,9.43-12.18v-53.87c0-6.34-3.76-11.52-8.54-12.1a3,3,0,0,0-.89-.08h-718c-5.22,0-9.42,5.43-9.42,12.18v54.28c.19,6.58,4.33,11.77,9.42,11.77H3332l-38.6,189.3h0l-.71,4.49-26.27,164.33h32l37.21-151.15,6.06-24.67,7.94-32.25,4.26-17.31,45.53-132.78H3926l45.53,132.78,4.27,17.31,7.93,32.25,6.06,24.67L4027,2627.53h33.92Z" transform="translate(-438.85 -410)"/><path class="cls-76" d="M3336.66,2121.07h149.68l-5.44,59.24H3455a5.24,5.24,0,0,0,0,10.47h186.36a5.24,5.24,0,0,0,0-10.47h-38.47l-5.43-59.24h144.38a12.82,12.82,0,0,0,12.8-12.84h0V1852.11a13.9,13.9,0,0,0-13.88-13.91h-403a13.89,13.89,0,0,0-13.87,13.91h0v256.12A12.82,12.82,0,0,0,3336.66,2121.07Z" transform="translate(-438.85 -410)"/><polygon class="cls-77" points="2965.73 1858.91 2964.55 1863.71 2919.02 1996.48 2914.75 2013.79 2906.81 2046.04 2900.76 2070.71 2863.54 2221.87 2839.96 2221.87 2866.23 2057.53 2866.94 2053.04 2866.94 2053 2905.54 1863.71 2906.3 1858.91 2965.73 1858.91"/><polygon class="cls-78" points="2957.3 1858.91 2956.11 1863.71 2910.58 1996.48 2906.31 2013.79 2898.38 2046.04 2892.32 2070.71 2855.11 2221.87 2831.53 2221.87 2857.79 2057.53 2858.51 2053.04 2858.51 2053 2897.11 1863.71 2897.87 1858.91 2957.3 1858.91"/><polygon class="cls-78" points="3625.99 2221.87 3602.39 2221.87 3565.17 2070.71 3559.12 2046.04 3551.18 2013.79 3546.91 1996.48 3501.38 1863.71 3500.2 1858.91 3559.65 1858.91 3560.41 1863.71 3625.99 2221.87"/><polygon class="cls-77" points="3615.68 2221.87 3592.08 2221.87 3554.87 2070.71 3548.81 2046.04 3540.87 2013.79 3536.6 1996.48 3491.08 1863.71 3489.89 1858.91 3549.34 1858.91 3550.1 1863.71 3615.68 2221.87"/><path class="cls-77" d="M4039.1,2207.65v53.87c0,6.75-4.2,12.18-9.43,12.18h-718c-5.1,0-9.24-5.19-9.43-11.77v-54.28c0-6.75,4.2-12.18,9.43-12.18h718a2.73,2.73,0,0,1,.9.09C4035.34,2196.13,4039.1,2201.32,4039.1,2207.65Z" transform="translate(-438.85 -410)"/><path class="cls-79" d="M4030.63,2196.05v53.78c0,6.75-4.27,12.18-9.49,12.18h-718a3.72,3.72,0,0,1-1-.08v-54.28c0-6.75,4.2-12.18,9.43-12.18h718a2.73,2.73,0,0,1,.9.09A1.41,1.41,0,0,1,4030.63,2196.05Z" transform="translate(-438.85 -410)"/><path class="cls-31" d="M3327.83,2106h426.08v4.83a14.6,14.6,0,0,1-14.6,14.6H3342.43a14.6,14.6,0,0,1-14.6-14.6h0V2106Z" transform="translate(-438.85 -410)"/><path class="cls-32" d="M3753.92,1858.38V2106H3327.84V1858.38a15.83,15.83,0,0,1,15.83-15.83h394.46A15.82,15.82,0,0,1,3753.92,1858.38Z" transform="translate(-438.85 -410)"/><path class="cls-33" d="M3758.6,1858.36V2106H3332.52V1858.36a15.83,15.83,0,0,1,15.83-15.83h394.46A15.82,15.82,0,0,1,3758.6,1858.36Z" transform="translate(-438.85 -410)"/><path class="cls-44" d="M3742.62,1857.21v235.21a.33.33,0,0,1-.29.34H3347.67a.33.33,0,0,1-.29-.34V1857.21a.31.31,0,0,1,.29-.33h394.66a.31.31,0,0,1,.29.33Z" transform="translate(-438.85 -410)"/><path class="cls-35" d="M3332.52,2106H3758.6v4.83a14.6,14.6,0,0,1-14.6,14.6H3347.12a14.6,14.6,0,0,1-14.6-14.6h0V2106Z" transform="translate(-438.85 -410)"/><polygon class="cls-36" points="3162.92 1778.4 3045.67 1778.4 3051.45 1715.4 3156.46 1715.09 3162.24 1778.08 3162.92 1778.4"/><polygon class="cls-35" points="3169 1778.4 3051.75 1778.4 3057.53 1715.4 3162.54 1715.09 3168.32 1778.08 3169 1778.4"/><polygon class="cls-80" points="3150.12 1715.4 3101.98 1778.4 3051.75 1778.4 3057.53 1715.4 3150.12 1715.4"/><path class="cls-80" d="M3601.42,2125.4h-105l-.81,8.77h106.65Z" transform="translate(-438.85 -410)"/><rect class="cls-36" x="3014.89" y="1774.65" width="184.3" height="10.46" rx="5"/><rect class="cls-35" x="3056.72" y="1774.65" width="154.97" height="10.46" rx="5"/><path class="cls-81" d="M3730.18,1871.32v176.53a5.78,5.78,0,0,1-5.77,5.79H3368.09a5.78,5.78,0,0,1-5.78-5.78h0V1871.32a5.8,5.8,0,0,1,5.78-5.79h356.32A5.78,5.78,0,0,1,3730.18,1871.32Z" transform="translate(-438.85 -410)"/><path class="cls-82" d="M3730.18,1871.32v4.27H3362.31v-4.27a5.8,5.8,0,0,1,5.78-5.79h356.32A5.78,5.78,0,0,1,3730.18,1871.32Z" transform="translate(-438.85 -410)"/><circle class="cls-83" cx="2934.96" cy="1460.88" r="2.87"/><circle class="cls-83" cx="2943.66" cy="1460.88" r="2.87"/><circle class="cls-83" cx="2952.37" cy="1460.88" r="2.87"/><path class="cls-82" d="M3654.15,1887.82H3525.44v-4a3.11,3.11,0,0,1,3.09-3.09h122.53a3.09,3.09,0,0,1,3.09,3.09h0Z" transform="translate(-438.85 -410)"/><rect class="cls-84" x="3086.59" y="1477.82" width="128.71" height="79.98"/><rect class="cls-44" x="3090.17" y="1547.31" width="121.36" height="3.09"/><rect class="cls-85" x="3093.49" y="1548.32" width="114.34" height="1.08"/><rect class="cls-84" x="3093.49" y="1548.32" width="41.87" height="1.08"/><ellipse class="cls-84" cx="3135.36" cy="1548.86" rx="1.54" ry="1.55"/><ellipse class="cls-86" cx="3150.9" cy="1512.56" rx="16.62" ry="16.66"/><polygon class="cls-44" points="3145.8 1503.71 3160.29 1513.75 3145.8 1522.11 3145.8 1503.71"/><path class="cls-87" d="M3730.18,1875.59v172.26a5.78,5.78,0,0,1-5.77,5.79H3671v-178Z" transform="translate(-438.85 -410)"/><rect class="cls-88" x="3241.15" y="1478" width="43.41" height="25.88" rx="1.46"/><rect class="cls-88" x="3241.15" y="1510.12" width="43.41" height="25.88" rx="1.46"/><rect class="cls-88" x="3241.15" y="1542.27" width="43.41" height="25.88" rx="1.46"/><rect class="cls-88" x="3241.15" y="1575.02" width="43.41" height="25.88" rx="1.46"/><rect class="cls-88" x="3241.15" y="1608.21" width="43.41" height="25.88" rx="1.46"/><rect class="cls-89" x="2937.82" y="1477" width="136.6" height="105.96" rx="5.6"/><rect class="cls-90" x="3078.26" y="1631.13" width="153.93" height="12.51"/><path class="cls-76" d="M4011.57,2061.3c2.48-16.77-7.47-32.29-20.68-32.29H3888.83c-2.71-5.44-7.23-12.51-14.89-20.85a94.09,94.09,0,0,0-30.14-21.46c-3.32-6.08-5.55-11.85-5.64-17-.41-24.63-27.06-50.1-27.06-50.1s-.84-13.78-7.08-37.16c-5.71-21.4-20.5-31.27-23-32.79a32.56,32.56,0,0,0-15.2-9c-42.89-10.75-59.4,11.14-59.4,11.14s-24.43-3.34-35.54,11.69c0,0-3.33,3.34,6.11,8.91a49,49,0,0,0,.27,21.09c-2.86,15.71-11.15,69.12,5.84,81.9,8.51,6.4,19.33,6.33,29,4.16l7.46,24.74c-8.16,7.84-16,16.88-20.09,25.68-10.78,23.16-26.72,84.93-26.72,84.93l-11.86,22.88a18.1,18.1,0,0,1-11.55,9.18c-22.7,5.85-87.63,23.85-94.61,39.75h-33.62l-49.27,17.77v9.26h80.6a23.31,23.31,0,0,0,2.29,5.39h109.66a41.55,41.55,0,0,0,24.47-8l55.54-53.13a7.19,7.19,0,0,1,11.81,2.92l23.72,29.31h0l-8.49,57.62c-7.54,3.81-32.89,15.62-60.4,17.34-32.87,2.06-77,11.33-86.25,35,0,0,0,2.85.34,7.45l-10.45,6.15a27.46,27.46,0,0,0-11.77,14L3508,2532.44l-13.21-4.39-19.37,46.2-48.69,19.16a6,6,0,0,0-4,3.8l-5.34,15.26a6,6,0,0,0,3.66,7.66,6.12,6.12,0,0,0,2,.34h99l27.78-74.11-3.68-1.23L3630,2416.67a63.6,63.6,0,0,0,5.14-12l-1.21,11c-5.69,2.31-1.94,6.3-1.94,10.84,0,3.71-2.51,7.06-.3,9.42l-11.53,104.33h-9.5l-2.68,40.26a5.38,5.38,0,0,1-2.83,4.39l-35.55,19a3.63,3.63,0,0,0-1.68,1.86l-3.65,8.92a3.69,3.69,0,0,0,2,4.81,3.57,3.57,0,0,0,1.4.28h76.62a7.42,7.42,0,0,0,7.36-6.59l8.28-72.9h-3l25.45-100.8h113.76v189.16H3748a13.36,13.36,0,0,0-13.34,13.38h0A13.38,13.38,0,0,0,3748,2655.4h140.63A13.38,13.38,0,0,0,3902,2642h0a13.37,13.37,0,0,0-13.35-13.38h-47.74V2439.47H3956.1a13,13,0,0,0,0-25.9h3.58Z" transform="translate(-438.85 -410)"/><polygon class="cls-91" points="3208.21 1945.44 3184.7 2158.23 3217.55 2158.23 3255.83 2006.57 3255.83 1948.93 3208.21 1945.44"/><path class="cls-92" d="M3617.13,2540.27h49.29l-8.29,72.9a7.4,7.4,0,0,1-7.35,6.59h-76.63a3.7,3.7,0,0,1-3.68-3.7,3.87,3.87,0,0,1,.28-1.39l3.65-8.92a3.61,3.61,0,0,1,1.67-1.86l35.56-19a5.43,5.43,0,0,0,2.83-4.39Z" transform="translate(-438.85 -410)"/><path class="cls-93" d="M3837.36,1981.93s24.58,6.08,43.06,26.23,18.88,33,18.88,33l-29.84-5.38s-39.05-24.3-37.52-27.59S3837.36,1981.93,3837.36,1981.93Z" transform="translate(-438.85 -410)"/><polygon class="cls-94" points="3122.34 1776.75 3088.72 1776.75 3039.45 1794.52 3039.45 1803.78 3126.7 1803.78 3122.34 1776.75"/><path class="cls-94" d="M3637.25,2304.37l-16.11,9.48a27.44,27.44,0,0,0-11.78,14L3506.14,2550.4l34.9,12.35,95.44-146.08a63.83,63.83,0,0,0,8.11-31.14V2378l50.09-.05Z" transform="translate(-438.85 -410)"/><path class="cls-95" d="M3780.17,2246.72s-29.8,16.47-62.67,18.53-77,11.33-86.25,35c0,0-.95,80,63.43,77.72h96.7Z" transform="translate(-438.85 -410)"/><path class="cls-96" d="M3649.72,2413.57s21.4-32.51,45-35.6,101.32-2.16,101.32-2.16v37.76Z" transform="translate(-438.85 -410)"/><polygon class="cls-97" points="3278.65 1566.05 3288.32 1598.16 3328.35 1582.72 3303.5 1551.07 3278.65 1566.05"/><path class="cls-94" d="M3684.61,1889.14s-15,71.26,5,86.29,52.74-5.57,52.74-5.57l-25.54-64Z" transform="translate(-438.85 -410)"/><path class="cls-47" d="M3831.94,2081l-45.56,109.32L3762.67,2161a7.2,7.2,0,0,0-11.82-2.92l-55.53,53.13a41.57,41.57,0,0,1-24.47,8H3561.19s-8.47-13.12,0-32.42c7-15.9,71.9-33.9,94.6-39.75a18.14,18.14,0,0,0,11.56-9.18l11.86-22.88s15.94-61.77,26.72-84.93c5.72-12.32,18.81-25.14,29.82-34.44,9.68-8.18,17.72-13.64,17.72-13.64Z" transform="translate(-438.85 -410)"/><path class="cls-93" d="M3831.94,2081l-45.56,109.32L3762.67,2161a7.2,7.2,0,0,0-11.82-2.92l-55.53,53.13a41.57,41.57,0,0,1-24.47,8h-12.66c39.27,0,60-42.71,91.63-102.93s-14.07-120.67-14.07-120.67c9.68-8.18,17.72-13.64,17.72-13.64Z" transform="translate(-438.85 -410)"/><path class="cls-54" d="M3881.28,2053.23c-9.58,14.2,6.24,23-17.91,38.83-.28.19-12.74,4.76-13.07,4.83a49.62,49.62,0,0,1-6.36,1.57c-99,18-68.84-85.18-106-106.89S3709.6,1927,3709.6,1927c-35-20.61-26.1-54.56-26.1-54.56-9.44-5.57-6.11-8.91-6.11-8.91,11.11-15,35.54-11.69,35.54-11.69s16.51-21.89,59.39-11.14a32.64,32.64,0,0,1,15.21,9c2.46,1.52,17.25,11.39,23,32.79,6.24,23.38,7.07,37.16,7.07,37.16s26.65,25.47,27.07,50.1S3894.49,2033.64,3881.28,2053.23Z" transform="translate(-438.85 -410)"/><rect class="cls-98" x="3363.82" y="2016.53" width="44.65" height="215.48"/><rect class="cls-96" x="3363.82" y="2016.53" width="29.27" height="215.48"/><rect class="cls-98" x="3302.23" y="2218.63" width="167.32" height="26.76" rx="12.8"/><path class="cls-78" d="M3899.35,2439.47H3662.17c-33.05,0-23.71-5.8-23.71-12.95h0c0-7.15-9.34-12.95,23.71-12.95h237.18c-18.79,0-13,5.8-13,12.95h0C3886.34,2433.67,3880.56,2439.47,3899.35,2439.47Z" transform="translate(-438.85 -410)"/><path class="cls-83" d="M4018.05,2061.3l-51.94,352.27H3753.48l53.42-362.46c1.91-12.84,10.59-22.1,20.69-22.1h169.77C4010.58,2029,4020.53,2044.53,4018.05,2061.3Z" transform="translate(-438.85 -410)"/><path class="cls-78" d="M4018.05,2061.3l-51.94,352.27H3780.17l53.43-362.46c1.9-12.84,10.58-22.1,20.69-22.1h143.07C4010.58,2029,4020.53,2044.53,4018.05,2061.3Z" transform="translate(-438.85 -410)"/><path class="cls-99" d="M3753.48,2413.57H3963a12.39,12.39,0,0,1,12.39,12.39v1.13a12.39,12.39,0,0,1-12.39,12.39H3753.48v-25.9Z" transform="translate(-438.85 -410)"/><path class="cls-100" d="M3501.26,2528.05l55,18.29-27.78,74.11h-99a6,6,0,0,1-6-6,5.85,5.85,0,0,1,.34-2l5.33-15.26a6,6,0,0,1,4.06-3.8l48.69-19.16Z" transform="translate(-438.85 -410)"/><path class="cls-101" d="M1540.09,1409.86H1436.87a9.3,9.3,0,0,0-9.26,9.29v51a9.3,9.3,0,0,0,9.26,9.28h103.22a9.3,9.3,0,0,0,9.27-9.28v-51A9.31,9.31,0,0,0,1540.09,1409.86Z" transform="translate(-438.85 -410)"/><path class="cls-102" d="M1556.77,1425.66H1420.2a12.32,12.32,0,0,0-12.26,12.29v67.43a12.31,12.31,0,0,0,12.26,12.29h136.57a12.3,12.3,0,0,0,12.25-12.29V1438A12.3,12.3,0,0,0,1556.77,1425.66Z" transform="translate(-438.85 -410)"/><path class="cls-102" d="M1645.18,1802.81h-55.56c-3.66,0-5.84,3-4.85,6.67l23.64,87.44a9.39,9.39,0,0,0,8.46,6.67h11.21a5.69,5.69,0,0,0,1.3-.14,8.93,8.93,0,0,0,1.55.14h14.25a8.5,8.5,0,0,0,8.46-8.48v-83.82A8.5,8.5,0,0,0,1645.18,1802.81Z" transform="translate(-438.85 -410)"/><path class="cls-102" d="M1342.48,1779.67h14.26l41.31,23.14c3.2,1.79,5.84,3,4.85,6.67l-23.65,87.44a9.37,9.37,0,0,1-8.45,6.67h-11.21a5.69,5.69,0,0,1-1.3-.14,8.93,8.93,0,0,1-1.55.14h-14.26a8.49,8.49,0,0,1-8.45-8.48v-107A8.5,8.5,0,0,1,1342.48,1779.67Z" transform="translate(-438.85 -410)"/><path class="cls-103" d="M1663.24,1802.81h-55.57c-3.65,0-5.83,3-4.84,6.67l23.64,87.44a9.39,9.39,0,0,0,8.46,6.67h11.21a5.69,5.69,0,0,0,1.3-.14,8.93,8.93,0,0,0,1.55.14h14.25a8.5,8.5,0,0,0,8.46-8.48v-83.82A8.5,8.5,0,0,0,1663.24,1802.81Z" transform="translate(-438.85 -410)"/><path class="cls-103" d="M1360.54,1802.81h55.57c3.66,0,5.84,3,4.85,6.67l-23.65,87.44a9.38,9.38,0,0,1-8.46,6.67h-11.2a5.69,5.69,0,0,1-1.3-.14,9,9,0,0,1-1.56.14h-14.25a8.49,8.49,0,0,1-8.45-8.48v-83.82A8.48,8.48,0,0,1,1360.54,1802.81Z" transform="translate(-438.85 -410)"/><path class="cls-104" d="M1563.5,1409.86H1460.28a9.3,9.3,0,0,0-9.26,9.29v51a9.3,9.3,0,0,0,9.26,9.28H1563.5a9.3,9.3,0,0,0,9.27-9.28v-51A9.31,9.31,0,0,0,1563.5,1409.86Z" transform="translate(-438.85 -410)"/><path class="cls-103" d="M1580.18,1425.66H1443.61a12.32,12.32,0,0,0-12.26,12.29v67.43a12.31,12.31,0,0,0,12.26,12.29h136.57a12.3,12.3,0,0,0,12.25-12.29V1438A12.3,12.3,0,0,0,1580.18,1425.66Z" transform="translate(-438.85 -410)"/><path class="cls-105" d="M1485.14,1442.52h0c-121.46,0-219.91,98.73-219.91,220.53s98.45,220.53,219.91,220.53c4.4,0,8.78-.15,13.12-.41h13.63V1882c108.83-13.24,193.16-106.19,193.16-218.9s-84.33-205.66-193.16-218.9v-1.63Z" transform="translate(-438.85 -410)"/><path class="cls-106" d="M1731.8,1663.05v.41q0,8.51-.68,16.85c-.14,1.88-.3,3.76-.5,5.63a220.68,220.68,0,0,1-78.11,146.44,218.45,218.45,0,0,1-140.62,51.19c-121.12,0-219.91-99.06-219.91-220.52s98.79-220.53,219.91-220.53S1731.8,1541.58,1731.8,1663.05Z" transform="translate(-438.85 -410)"/><path class="cls-107" d="M1511.89,1854.78c-105.3,0-191.19-86.13-191.19-191.73s85.89-191.74,191.19-191.74,191.2,86.14,191.2,191.74S1617.2,1854.78,1511.89,1854.78Z" transform="translate(-438.85 -410)"/><ellipse class="cls-44" cx="1073.04" cy="1253.05" rx="175.09" ry="175.58"/><path class="cls-102" d="M1511.89,1526.89a5.15,5.15,0,0,1-5.13-5.14v-9a5.14,5.14,0,0,1,10.27-.45,3.38,3.38,0,0,1,0,.45v9A5.15,5.15,0,0,1,1511.89,1526.89Zm0,291.57a5.15,5.15,0,0,1-5.13-5.14v-9a5.14,5.14,0,0,1,10.27-.45,3.38,3.38,0,0,1,0,.45v9A5.15,5.15,0,0,1,1511.89,1818.46ZM1444,1545.13a5.13,5.13,0,0,1-7-1.88l-4.47-7.77a5.14,5.14,0,0,1,8.79-5.33l.11.19,4.47,7.77a5.16,5.16,0,0,1-1.88,7Zm145.38,252.51a5.13,5.13,0,0,1-7-1.88l-4.47-7.77a5.13,5.13,0,1,1,8.89-5.14l4.47,7.76a5.16,5.16,0,0,1-1.87,7ZM1394.31,1595a5.13,5.13,0,0,1-7,1.89l-7.75-4.49a5.14,5.14,0,0,1,5.14-8.91l7.74,4.48a5.17,5.17,0,0,1,1.88,7Zm251.8,145.79a5.13,5.13,0,0,1-7,1.88l-7.75-4.48a5.14,5.14,0,0,1,5.13-8.92h0l7.75,4.48a5.18,5.18,0,0,1,1.88,7Zm-270-77.71a5.14,5.14,0,0,1-5.13,5.15h-9a5.15,5.15,0,1,1,0-10.3h9a5.14,5.14,0,0,1,5.13,5.15Zm290.75,0a5.14,5.14,0,0,1-5.13,5.15h-8.94a5.15,5.15,0,1,1,0-10.3h8.94a5.14,5.14,0,0,1,5.13,5.15Zm-272.56,68.07a5.18,5.18,0,0,1-1.88,7l-7.74,4.48a5.15,5.15,0,0,1-5.14-8.92l7.75-4.48a5.13,5.13,0,0,1,7,1.88Zm251.8-145.78a5.16,5.16,0,0,1-1.88,7l-7.74,4.49a5.15,5.15,0,0,1-5.14-8.92l7.75-4.48a5.13,5.13,0,0,1,7,1.88ZM1444,1781a5.18,5.18,0,0,1,1.88,7l-4.47,7.77a5.14,5.14,0,1,1-8.9-5.15h0l4.47-7.76a5.14,5.14,0,0,1,7-1.89Zm147.25-245.47-4.47,7.76a5.13,5.13,0,1,1-8.89-5.14l4.47-7.77a5.14,5.14,0,0,1,9.07,4.85Z" transform="translate(-438.85 -410)"/><path class="cls-102" d="M1515.07,1669.13h0a6.09,6.09,0,0,1-6.07-6.08V1559.66a6.09,6.09,0,0,1,6.07-6.08h0a6.09,6.09,0,0,1,6.06,6.08v103.39A6.09,6.09,0,0,1,1515.07,1669.13Z" transform="translate(-438.85 -410)"/><path class="cls-104" d="M1516.18,1658.75h0c2.36,2.36,2.36,6.23,2.38,8.6l-53.44,53.59c-4.74,2.36-8.6,2.36-10.95,0h0a5.55,5.55,0,0,1-.11-7.85,5.43,5.43,0,0,1,.9-.75l53.44-53.59C1510,1656.39,1513.82,1656.39,1516.18,1658.75Z" transform="translate(-438.85 -410)"/><path class="cls-108" d="M970.34,930.47a60.14,60.14,0,0,0-54.56,85L970.34,1152l54.55-136.52a60.14,60.14,0,0,0-54.55-85Zm-.1,86.73a27.08,27.08,0,1,1,27-27.16v.08a27,27,0,0,1-26.92,27.08Z" transform="translate(-438.85 -410)"/><polygon class="cls-108" points="531.49 741.95 520.87 741.95 528.8 720.59 531.49 741.95"/><path class="cls-21" d="M959.82,930.47a60.16,60.16,0,0,0-54.56,85L959.82,1152l54.55-136.52a60.14,60.14,0,0,0-54.55-85Zm-.1,86.73a27.08,27.08,0,1,1,27-27.16v.08a27,27,0,0,1-26.92,27.08Z" transform="translate(-438.85 -410)"/><path class="cls-108" d="M748.52,1783.11a91.74,91.74,0,0,0-83.21,129.59l83.21,208.23,83.22-208.23a91.74,91.74,0,0,0-83.22-129.59Zm-.14,132.3a41.32,41.32,0,1,1,41.2-41.44v.13a41.25,41.25,0,0,1-41.19,41.31Z" transform="translate(-438.85 -410)"/><path class="cls-21" d="M732.59,1783.11a91.74,91.74,0,0,0-83.21,129.59l83.21,208.23L815.8,1912.7a91.74,91.74,0,0,0-83.21-129.59Zm-.14,132.3A41.32,41.32,0,1,1,773.64,1874v.14A41.26,41.26,0,0,1,732.45,1915.41Z" transform="translate(-438.85 -410)"/><polygon class="cls-108" points="309.67 1710.93 293.74 1710.93 310.6 1668.73 309.67 1710.93"/><path class="cls-108" d="M2883.39,964.2a91.47,91.47,0,0,0,8.17,37.95l83.21,208.23L3058,1002.15a91.46,91.46,0,1,0-174.59-37.95Zm50.33-.65a41.2,41.2,0,1,1,41.19,41.31,41.21,41.21,0,0,1-41.19-41.31Z" transform="translate(-438.85 -410)"/><path class="cls-21" d="M2904.9,964.2a91.63,91.63,0,0,0,8.17,37.95l83.22,208.23,83.21-208.23a91.46,91.46,0,1,0-174.6-37.95Zm50.34-.65a41.2,41.2,0,1,1,41.19,41.31,41.21,41.21,0,0,1-41.19-41.31Z" transform="translate(-438.85 -410)"/><polygon class="cls-108" points="2535.92 800.38 2557.44 800.38 2537.42 750.28 2535.92 800.38"/><path class="cls-108" d="M3853.58,1684.75a91.62,91.62,0,0,0,8.17,37.94L3945,1930.92l83.21-208.23a91.46,91.46,0,1,0-174.6-37.94Zm50.33-.66a41.2,41.2,0,1,1,41.2,41.31,41.21,41.21,0,0,1-41.2-41.31Z" transform="translate(-438.85 -410)"/><path class="cls-21" d="M3871.76,1684.75a91.62,91.62,0,0,0,8.17,37.94l83.22,208.23,83.21-208.23a91.46,91.46,0,1,0-174.6-37.94Zm50.33-.66a41.2,41.2,0,1,1,41.2,41.31,41.21,41.21,0,0,1-41.2-41.31Z" transform="translate(-438.85 -410)"/><polygon class="cls-108" points="3506.12 1520.92 3524.3 1520.92 3510.04 1485.25 3506.12 1520.92"/></g></svg>