<svg xmlns="http://www.w3.org/2000/svg" viewBox="0 0 552.26 521.79"><defs><style>.cls-1{fill:#f0f3fc;}.cls-2{fill:#7676c4;}.cls-3{fill:#9b9be0;}.cls-4{fill:#393768;}.cls-5{fill:#adadea;}.cls-6{opacity:0.1;}.cls-7{fill:#9a9adb;}.cls-8{fill:#e5ac9c;}.cls-9{fill:#edb6a4;}.cls-10{fill:#cce9f1;}.cls-11{fill:#6a6ae5;}.cls-12{fill:#d8a598;}.cls-13{fill:#e6e9f8;}.cls-14{fill:#85b3ba;}.cls-15{fill:#a8cfef;}.cls-16{fill:#7da8c6;}.cls-17{fill:#6499bc;}.cls-18{fill:#9ec8e5;}.cls-19{fill:#acd8ef;}.cls-20{fill:#88b8d8;}</style></defs><title>Asset 1</title><g id="Layer_2" data-name="Layer 2"><g id="Object"><g id="Transmission_Tower" data-name="Transmission Tower"><path class="cls-1" d="M262.81,397.65c-192.64,1.91-349.5,57.5-208.7,65.51,90.86,5.17,69.07,14.58,22.37,24.18-59.38,12.21-22,40,68.49,18.72,100.15-23.55,96.31,7.72,180.16,13.87s183.32-3.08,113.07-25c-66.44-20.69-21-29.88,28.86-30,88.06-.26,98.76-43.78,11.32-53C386.49,402.18,382.55,396.46,262.81,397.65Z"/><path class="cls-1" d="M299.4,0c-100.79,0-85.61,193.87-239,218.72C-76.88,241,84.07,448.54,262.21,346.56c115.64-66.16,218.9,14.72,260.27-99.73C557.23,150.68,400.18,0,299.4,0Zm2.06,145.59A48.79,48.79,0,1,1,350.25,96.8,48.77,48.77,0,0,1,301.46,145.59Z"/><circle class="cls-1" cx="81.46" cy="108.24" r="53.93" transform="translate(-42.31 163.32) rotate(-77.02)"/><circle class="cls-1" cx="179.82" cy="44.13" r="20.49"/><circle class="cls-1" cx="52.19" cy="194.95" r="12.16"/><polygon class="cls-2" points="236.23 439.03 202.1 439.03 202.1 443.9 230.14 448.78 236.23 443.9 236.23 439.03"/><polygon class="cls-3" points="232.73 439.03 226.63 443.9 205.6 439.03 199.51 416.78 205.6 411.9 232.73 411.9 232.73 439.03"/><polygon class="cls-2" points="96.59 439.03 62.46 439.03 62.46 443.9 90.5 448.78 96.59 443.9 96.59 439.03"/><polygon class="cls-3" points="93.09 439.03 86.99 443.9 65.96 439.03 59.87 416.78 65.96 411.9 93.09 411.9 93.09 439.03"/><path class="cls-4" d="M250.29,249.23v14.1a2.81,2.81,0,0,1-2.82,2.81h-21V252.23h-8.67v13.91H207.27l-7.56-78.2a16.31,16.31,0,0,0-.74-3.89l-2-6.24h9.9a11.5,11.5,0,0,0,11.49-11.49v-9.53h-8.67v9.53a2.83,2.83,0,0,1-2.82,2.82h-12.7L161.61,68.56h19v-13H145.19l-.21,0-.22,0H109.32v13h19L95.81,169.14H83.09a2.83,2.83,0,0,1-2.82-2.82v-9.53H71.6v9.53a11.5,11.5,0,0,0,11.49,11.49H93l-2.07,6.4a18.74,18.74,0,0,0-.71,3.5l-7.58,78.43H72.12V252.23H63.45v13.91h-21a2.82,2.82,0,0,1-2.82-2.81v-14.1H31v14.1a11.5,11.5,0,0,0,11.49,11.48H81.8L67.94,418.41l12.94,1.26,2.62-27.13,61.5-33,61.4,32.93L209,419.66,222,418.41,208.1,274.81h39.37A11.5,11.5,0,0,0,259,263.33v-14.1Zm-123.06-135L145,104.73l17.74,9.51,11,33.87L145,163.51l-28.7-15.4Zm1.93-5.95L132.48,98l7.91,4.24Zm20.41-6L157.48,98l3.32,10.26Zm44.49,162.37L145,291,95.85,264.63l.62-6.46,48.51-26,48.45,26Zm-44.5-34.93,39.1-21L192.93,253Zm-47.83-26L103,191l42-22.55,41.95,22.51,1.27,13.14L145,227.25,101.7,204ZM149.57,166,175,152.3l10.7,33.08Zm-9.17,0L104.21,185.4l10.71-33.1Zm-39.16,42.74,39.15,21L97,253Zm39.14,84.72L90.48,320.2l4.91-50.89Zm4.57,2.45,54.81,29.39L145,354.66l-54.84-29.4Zm4.59-2.46,45-24.11,4.91,50.84ZM145.08,68.56a4.09,4.09,0,0,1,3.77,2.81l7.27,22.47-11.14,6-11.14-6,7.27-22.49a4.09,4.09,0,0,1,3.76-2.79ZM84,387.36l5.55-57.53,50.86,27.27Zm65.57-30.24,50.79-27.23,5.54,57.43Z"/><path class="cls-5" d="M89,149.26a1.52,1.52,0,0,1,.65,1.08c0,1.28-2.42,2.39-6.11,3a10.78,10.78,0,0,1,.59,3.43c0,5.1-3.66,9.22-8.17,9.22s-8.17-4.12-8.17-9.22a2.22,2.22,0,0,1,0-.46,10.18,10.18,0,0,1,.59-3c-3.69-.62-6.11-1.73-6.11-3a1.83,1.83,0,0,1,1-1.37c-.65-.42-1-.88-1-1.37,0-2,6.11-3.6,13.66-3.6s13.69,1.6,13.69,3.6c0,.49-.39,1-1,1.37Z"/><path class="cls-6" d="M83.51,153.35a10.78,10.78,0,0,1,.59,3.43c0,5.1-3.66,9.22-8.17,9.22s-8.17-4.12-8.17-9.22a2.22,2.22,0,0,1,0-.46c1.15,1.28,2,2.81,3.3,3.86a6.17,6.17,0,0,0,6.25.72,6.89,6.89,0,0,0,3.82-5.07c.16-1,.13-2.19.82-3s2-1,3-1.18a6.93,6.93,0,0,0,2.81-1A15.28,15.28,0,0,0,89,149.26a1.52,1.52,0,0,1,.65,1.08C89.62,151.62,87.2,152.73,83.51,153.35Z"/><path class="cls-5" d="M122.72,51.93a1.52,1.52,0,0,1,.65,1.08c0,1.27-2.42,2.38-6.11,3a10.78,10.78,0,0,1,.59,3.43c0,5.1-3.66,9.22-8.17,9.22s-8.17-4.12-8.17-9.22a2.12,2.12,0,0,1,0-.45,10.18,10.18,0,0,1,.59-3C98.44,55.39,96,54.28,96,53a1.86,1.86,0,0,1,1-1.38c-.65-.42-1-.88-1-1.37,0-2,6.11-3.59,13.66-3.59s13.69,1.6,13.69,3.59c0,.49-.39,1-1,1.37Z"/><path class="cls-6" d="M117.26,56a10.78,10.78,0,0,1,.59,3.43c0,5.1-3.66,9.22-8.17,9.22s-8.17-4.12-8.17-9.22a2.12,2.12,0,0,1,0-.45c1.15,1.27,2,2.81,3.3,3.85a6.15,6.15,0,0,0,6.25.72,6.87,6.87,0,0,0,3.82-5.06c.16-1,.13-2.19.82-3s2-1,3-1.18a6.79,6.79,0,0,0,2.81-1,15,15,0,0,0,1.14-1.4,1.52,1.52,0,0,1,.65,1.08C123.37,54.28,121,55.39,117.26,56Z"/><path class="cls-5" d="M48.34,235.3a1.47,1.47,0,0,1,.65,1.07c0,1.28-2.41,2.39-6.11,3a10.78,10.78,0,0,1,.59,3.43c0,5.1-3.66,9.22-8.17,9.22s-8.17-4.12-8.17-9.22a2.27,2.27,0,0,1,0-.46,10.51,10.51,0,0,1,.59-3c-3.69-.62-6.11-1.73-6.11-3a1.86,1.86,0,0,1,1-1.37c-.65-.42-1-.88-1-1.37,0-2,6.11-3.6,13.66-3.6S49,231.64,49,233.63c0,.49-.39,1-1,1.37Z"/><path class="cls-6" d="M42.88,239.38a10.78,10.78,0,0,1,.59,3.43c0,5.1-3.66,9.22-8.17,9.22s-8.17-4.12-8.17-9.22a2.27,2.27,0,0,1,0-.46c1.15,1.28,2,2.82,3.3,3.86a6.17,6.17,0,0,0,6.25.72,6.89,6.89,0,0,0,3.82-5.07c.16-1,.13-2.19.82-3s2-1,3-1.18a6.79,6.79,0,0,0,2.81-1,15,15,0,0,0,1.14-1.4,1.47,1.47,0,0,1,.65,1.07C49,237.65,46.58,238.76,42.88,239.38Z"/><path class="cls-5" d="M80.81,237.93a1.52,1.52,0,0,1,.65,1.07c0,1.28-2.42,2.39-6.11,3a10.78,10.78,0,0,1,.59,3.43c0,5.1-3.66,9.22-8.17,9.22s-8.17-4.12-8.17-9.22a2.12,2.12,0,0,1,0-.45,9.86,9.86,0,0,1,.59-3c-3.69-.62-6.11-1.73-6.11-3a1.86,1.86,0,0,1,1-1.37c-.65-.42-1-.88-1-1.37,0-2,6.11-3.59,13.66-3.59s13.69,1.6,13.69,3.59c0,.49-.39,1-1,1.37Z"/><path class="cls-6" d="M75.35,242a10.78,10.78,0,0,1,.59,3.43c0,5.1-3.66,9.22-8.17,9.22s-8.17-4.12-8.17-9.22a2.12,2.12,0,0,1,0-.45c1.14,1.27,2,2.81,3.3,3.85a6.13,6.13,0,0,0,6.24.72A6.86,6.86,0,0,0,73,244.5a5.87,5.87,0,0,1,.81-3c.72-.85,2-1,3-1.18a6.69,6.69,0,0,0,2.81-1,13.51,13.51,0,0,0,1.15-1.4,1.52,1.52,0,0,1,.65,1.07C81.46,240.28,79,241.39,75.35,242Z"/><path class="cls-5" d="M201,149.26a1.48,1.48,0,0,0-.65,1.08c0,1.28,2.41,2.39,6.11,3a10.78,10.78,0,0,0-.59,3.43c0,5.1,3.66,9.22,8.17,9.22s8.17-4.12,8.17-9.22a2.22,2.22,0,0,0,0-.46,10.51,10.51,0,0,0-.59-3c3.69-.62,6.11-1.73,6.11-3a1.83,1.83,0,0,0-1-1.37c.65-.42,1-.88,1-1.37,0-2-6.11-3.6-13.66-3.6s-13.69,1.6-13.69,3.6c0,.49.39,1,1,1.37Z"/><path class="cls-6" d="M206.43,153.35a10.78,10.78,0,0,0-.59,3.43c0,5.1,3.66,9.22,8.17,9.22s8.17-4.12,8.17-9.22a2.22,2.22,0,0,0,0-.46c-1.15,1.28-2,2.81-3.3,3.86a6.17,6.17,0,0,1-6.25.72,6.89,6.89,0,0,1-3.82-5.07c-.16-1-.13-2.19-.82-3s-2-1-3-1.18a6.93,6.93,0,0,1-2.81-1,15.28,15.28,0,0,1-1.14-1.41,1.48,1.48,0,0,0-.65,1.08C200.32,151.62,202.73,152.73,206.43,153.35Z"/><path class="cls-5" d="M167.22,51.93a1.48,1.48,0,0,0-.65,1.08c0,1.27,2.41,2.38,6.11,3a10.78,10.78,0,0,0-.59,3.43c0,5.1,3.66,9.22,8.17,9.22s8.17-4.12,8.17-9.22a2.12,2.12,0,0,0,0-.45,10.51,10.51,0,0,0-.59-3c3.69-.62,6.11-1.73,6.11-3a1.86,1.86,0,0,0-1-1.38c.65-.42,1-.88,1-1.37,0-2-6.11-3.59-13.66-3.59s-13.69,1.6-13.69,3.59c0,.49.39,1,1,1.37Z"/><path class="cls-6" d="M172.68,56a10.78,10.78,0,0,0-.59,3.43c0,5.1,3.66,9.22,8.17,9.22s8.17-4.12,8.17-9.22a2.12,2.12,0,0,0,0-.45c-1.15,1.27-2,2.81-3.3,3.85a6.15,6.15,0,0,1-6.25.72A6.87,6.87,0,0,1,175,58.5c-.16-1-.13-2.19-.82-3s-2-1-3-1.18a6.79,6.79,0,0,1-2.81-1,15,15,0,0,1-1.14-1.4,1.48,1.48,0,0,0-.65,1.08C166.57,54.28,169,55.39,172.68,56Z"/><path class="cls-5" d="M241.6,235.3a1.47,1.47,0,0,0-.65,1.07c0,1.28,2.41,2.39,6.11,3a10.78,10.78,0,0,0-.59,3.43c0,5.1,3.66,9.22,8.17,9.22s8.17-4.12,8.17-9.22a2.27,2.27,0,0,0,0-.46,10.51,10.51,0,0,0-.59-3c3.69-.62,6.11-1.73,6.11-3a1.85,1.85,0,0,0-1-1.37c.66-.42,1-.88,1-1.37,0-2-6.11-3.6-13.66-3.6S241,231.64,241,233.63c0,.49.39,1,1,1.37Z"/><path class="cls-6" d="M247.06,239.38a10.78,10.78,0,0,0-.59,3.43c0,5.1,3.66,9.22,8.17,9.22s8.17-4.12,8.17-9.22a2.27,2.27,0,0,0,0-.46c-1.15,1.28-2,2.82-3.31,3.86a6.15,6.15,0,0,1-6.24.72,6.89,6.89,0,0,1-3.82-5.07c-.16-1-.13-2.19-.82-3s-2-1-3-1.18a6.79,6.79,0,0,1-2.81-1,15,15,0,0,1-1.14-1.4,1.47,1.47,0,0,0-.65,1.07C241,237.65,243.36,238.76,247.06,239.38Z"/><path class="cls-5" d="M209.13,237.93a1.52,1.52,0,0,0-.65,1.07c0,1.28,2.42,2.39,6.11,3a10.78,10.78,0,0,0-.59,3.43c0,5.1,3.66,9.22,8.17,9.22s8.17-4.12,8.17-9.22a2.12,2.12,0,0,0,0-.45,9.86,9.86,0,0,0-.59-3c3.69-.62,6.11-1.73,6.11-3a1.86,1.86,0,0,0-1-1.37c.65-.42,1-.88,1-1.37,0-2-6.11-3.59-13.66-3.59s-13.69,1.6-13.69,3.59c0,.49.39,1,1,1.37Z"/><path class="cls-6" d="M214.59,242a10.78,10.78,0,0,0-.59,3.43c0,5.1,3.66,9.22,8.17,9.22s8.17-4.12,8.17-9.22a2.12,2.12,0,0,0,0-.45c-1.15,1.27-2,2.81-3.3,3.85a6.13,6.13,0,0,1-6.24.72,6.86,6.86,0,0,1-3.83-5.06c-.16-1.05-.13-2.19-.82-3s-2-1-3-1.18a6.69,6.69,0,0,1-2.81-1,13.51,13.51,0,0,1-1.15-1.4,1.52,1.52,0,0,0-.65,1.07C208.48,240.28,210.9,241.39,214.59,242Z"/><rect class="cls-5" x="59.87" y="416.78" width="27.13" height="27.13"/><rect class="cls-7" x="56.36" y="443.9" width="34.13" height="4.88"/><polygon class="cls-2" points="56.36 443.9 59.87 442.14 59.87 443.9 56.36 443.9"/><rect class="cls-5" x="199.51" y="416.78" width="27.13" height="27.13"/><rect class="cls-7" x="196" y="443.9" width="34.13" height="4.88"/><polygon class="cls-2" points="196 443.9 199.51 442.14 199.51 443.9 196 443.9"/><path class="cls-6" d="M345.34,153.42c0,.67-2.54,1.22-5.68,1.22s-5.69-.55-5.69-1.22,2.54-1.22,5.69-1.22S345.34,152.75,345.34,153.42Z"/><path class="cls-8" d="M271.35,89a78.44,78.44,0,0,0,15.08,5.33c2.6.54,4.72.66,6,.14,7-3.07,8.15-7,10.63-15l-5.44-3.11C294.8,78,293,83.57,291.13,88.2L287,87.65l-14.3-1.84Z"/><path class="cls-9" d="M271.37,89c-.87.55-1.46-1-2.42-2.13-1-.29-2-1.08-3-.61-.68-.7.32-1.31,1.62-1.6l2.61-.14a5,5,0,0,1,2.53,1.24Z"/><path class="cls-10" d="M286.14,94.84c2.59.53,5.47.59,6.67-.09,6.49-3.71,8.34-6.83,10.82-14.84l-6-3.48C294.8,78,292.85,83,291,87.64l-3.87-.24C286.77,88.5,285.38,92.39,286.14,94.84Z"/><path class="cls-11" d="M286.61,87a20,20,0,0,0-1.18,7.89,3.58,3.58,0,0,0,2.24.7,45,45,0,0,0,.86-8.3C288.18,86.87,287.3,87,286.61,87Z"/><path class="cls-9" d="M335.55,141.53l2.73,1a1.69,1.69,0,0,1,1.67-.06l1.76,1.26-6.28,7.82-1.59-.91,1.12-4.32-1.6-1.18Z"/><path class="cls-4" d="M339.77,142.11c.9,0,1.56.6,2.44,1.57l-7.23,9.4c-1.16,1.37-2.23,1.14-1.78-.4l1.58-6.3a2.19,2.19,0,0,0,1.9-.83,9.63,9.63,0,0,0,1.69-2.31c-.37-.28-.69-.57-.4-1.16Z"/><path class="cls-4" d="M325.14,102.07l-9.37-2.86c-2.89,5.87-4.81,18.13-2.33,25.21,3.59,6.74,6.33,12.16,19.3,21.73l3.7-5.12-13.27-17C324.89,115.57,326.66,108,325.14,102.07Z"/><path class="cls-6" d="M313.43,124.42c2.18,4.07,4.05,7.67,8.06,12-1.13-2.81-3.07-5.3-4-8.2a26.07,26.07,0,0,1-.95-5.19,13.24,13.24,0,0,1-.05-3.5c.32-2.26,2-4.48,2-6.78,0-2.12-3-2.45-4.54-1.94a4.55,4.55,0,0,0-1.28.65C312.06,116.11,312.21,120.9,313.43,124.42Z"/><path class="cls-9" d="M311.07,149.21l1.45,2.52a1.66,1.66,0,0,1,1.33,1l.55,2.09-9.82,2-.64-1.72,3.62-2.6-.48-1.94Z"/><path class="cls-4" d="M314,152.34a3.7,3.7,0,0,1,.88,2.77l-11.57,2.62c-1.77.32-2.44-.54-1.11-1.44l5.24-3.84a2.18,2.18,0,0,0,2,.57,9.47,9.47,0,0,0,2.77-.7c-.11-.45-.17-.88.43-1.15Z"/><path class="cls-4" d="M321,101.85l-11.28-5c-4,5.46-6.94,17.46-9.08,22.73-2.18,5.78,1.45,15.8,5.33,31.44l6.12-1.57-2.23-24C315,117.07,321.21,109.56,321,101.85Z"/><path class="cls-10" d="M297.37,91.1c3,4.24,8.21,8.34,9.6,11.51.23.1.45.17.71.26,5.6,1.71,15.54-.71,16.69-2.91.79-1.51-12.73-22.53-20.69-25.45-4.09-1.19-9.84,3.1-9.09,7.87C295.35,86,295.86,88.94,297.37,91.1Z"/><path class="cls-12" d="M299.52,75.06a6.63,6.63,0,0,1-2.43-2.78l-3.77,2.13L295,79.15A13.46,13.46,0,0,0,299.52,75.06Z"/><path class="cls-6" d="M294.23,76.83c.24-.14.53-.33.81-.52a3.58,3.58,0,0,1,1.67-.71,4.83,4.83,0,0,1,1.67.24.62.62,0,0,0,.42,0,2.72,2.72,0,0,0,.72-.81,6.89,6.89,0,0,1-2.42-2.81l-3.76,2.13Z"/><path class="cls-9" d="M298.3,73.23c-2.39,2.19-4.67,3.77-6.65,3.56-2-3.71-2.81-7.44-1.22-11.2l8.18,0Z"/><path class="cls-6" d="M289.65,71a3.06,3.06,0,0,0,.94.12,6.11,6.11,0,0,0,1.08-.15c1-.3,2.09-.6,3.09-1a4.14,4.14,0,0,0,1.1-.68,2.5,2.5,0,0,0,.93-2.09,2.58,2.58,0,0,0-.26-1,1.7,1.7,0,0,0-.72-.71l-4-.07c-.06,0-.06,0-.15,0-.51.23-1,.51-1.54.77A10.61,10.61,0,0,0,289.65,71Z"/><path class="cls-4" d="M288.92,69.91c1.41.43,2.78-.15,4.14-1.17a4,4,0,0,1,.1,2.52.72.72,0,0,0,.67.38c.26-.76.46-1.66,1-1.68a1.46,1.46,0,0,1,1.2,1.26c.16.88-.59,2-1.29,3.23,1.26.28,2.15.41,2.85-.06a4.81,4.81,0,0,0,3-2.76c.69-1.5-1-2.73-.48-3.94s-.83-4.92-2.23-4.24-1.53.56-3.1-.79-2.91-.59-3.21,1-.77.88-2.3.73-2.68,2.55-1.39,2.73C288,68.5,288,69.34,288.92,69.91Z"/><path class="cls-11" d="M295.35,79c-1.13-.75-3.52,3.21-.83,2.58s5.88,2.23,2.85,9.51c-.11,1.14,6.56,12.07,7.81,15.12s20.21-1.54,20.66-4.92c.38-2.91-14.67-29.39-25.91-26.73-.87.35-.34.62.05.83C299.55,76.37,297.05,78.88,295.35,79Z"/><polygon class="cls-13" points="304.26 76.66 300.83 80.24 302.88 81.97 305.69 78.06 304.26 76.66"/><path class="cls-11" d="M289.1,68.92c4.34-.37,9.39-1.06,11-2.61s-2.59-7.91-8.39-5.46c-3,1.29-4.38,3.51-4.57,5.29C283.08,67.66,286.43,69.25,289.1,68.92Z"/><path class="cls-11" d="M271.23,90.81a4,4,0,0,0,1.14,5.58l8.14,5.49-4.29,6.36-8.14-5.49a11.63,11.63,0,0,1-5-11.62l-42.3-24.67A14.55,14.55,0,0,1,207.38,65l-10.93-7.39,4.29-6.35,10.93,7.38a6.71,6.71,0,0,0,7.51-11.13l-10.93-7.38,4.29-6.36,10.93,7.38a14.43,14.43,0,0,1,6.3,11.93l38.74,29.94a11.76,11.76,0,0,1,12.66.31l8.14,5.49L285,95.21l-8.14-5.49A4.1,4.1,0,0,0,271.23,90.81Z"/><path class="cls-6" d="M279.31,103.66l-3.09,4.58-8.14-5.49a11.63,11.63,0,0,1-5-11.62l-42.3-24.67A14.55,14.55,0,0,1,207.38,65l-10.93-7.39,4.2-6.23a4.66,4.66,0,0,1,.85.67c3.62,3,6.94,6.44,11.16,8.55,4.84,2.43,10.43,2.78,15.7,4.3,8.9,2.58,16.46,8.24,23.9,13.82,2.67,2.08,5.38,4.09,8.05,6.17a25.9,25.9,0,0,1,4.17,3.55c2.64,3.08,3.85,7,6.15,10.36a13.27,13.27,0,0,0,3.79,3.57C276,103.31,277.8,103,279.31,103.66Z"/><path class="cls-9" d="M269,94.21a78.34,78.34,0,0,0,15.41,4.27c2.63.36,4.75.33,6-.29,6.8-3.54,7.65-7.49,9.56-15.66l-5.64-2.73c-2.7,1.79-4.15,7.45-5.65,12.19l-4.17-.25-14.39-.84Z"/><path class="cls-9" d="M269,94.22c-.83.6-2.93,1.23-4,.14a2.5,2.5,0,0,1-1.64-2.84c-.25-1.69,2.51-1.11,3.79-1.49a2.37,2.37,0,0,1-1.27-1c.1-.49.44-.73,1.1-.61,1.09.18,2.5,1.9,3.09,2.47Z"/><path class="cls-10" d="M284.11,99c2.63.36,5.5.22,6.65-.55,6.22-4.15,7.85-7.39,9.75-15.56l-6.23-3c-2.7,1.79-4.29,6.9-5.8,11.64l-3.87,0C284.3,92.6,283.19,96.57,284.11,99Z"/><path class="cls-11" d="M284,91.15a20,20,0,0,0-.63,7.95,3.57,3.57,0,0,0,2.29.54A47.19,47.19,0,0,0,286,91.3C285.59,90.87,284.72,91,284,91.15Z"/><rect class="cls-14" x="453.75" y="331.82" width="38.03" height="30.09" rx="2.43"/><path class="cls-4" d="M498.71,338.41a3.07,3.07,0,0,0-3,3.13,3.19,3.19,0,0,0,.25,1.24L489.85,351a1.54,1.54,0,0,0,.26,2.11,1.39,1.39,0,0,0,.88.31,1.43,1.43,0,0,0,1.15-.58l6.13-8.21a3.12,3.12,0,0,0,.44.09,3.13,3.13,0,0,0,0-6.26Z"/><rect class="cls-10" x="452.73" y="332.43" width="38.03" height="30.09" rx="2.43"/><rect class="cls-15" x="455.73" y="335.74" width="22.64" height="23.47" rx="1.66"/><path class="cls-16" d="M484.16,338.27H486a2.33,2.33,0,0,1,2.33,2.33v.08A2.33,2.33,0,0,1,486,343h-1.8a2.33,2.33,0,0,1-2.33-2.33v-.08A2.32,2.32,0,0,1,484.16,338.27Z"/><path class="cls-17" d="M475,338.6a1.53,1.53,0,1,1-1.53-1.53A1.53,1.53,0,0,1,475,338.6Z"/><path class="cls-9" d="M526,444.35l.27,1.67c.47.24.5.46.74,1a3.53,3.53,0,0,1,.4,1.73l-8.51-1.54,2.74-1.44.77-1.05Z"/><path class="cls-13" d="M521.52,445.77c-1.74.82-3.45.05-4.63,1.06a1.73,1.73,0,0,0-.45,2.43c1.71.81,6.93,2.26,10.84,1.39,1.17-.26.38-3.69-.34-4.35l-.79-.5c.43.49.8.93,0,1.44a5.69,5.69,0,0,1-4.6-.4C521.54,446.43,521.9,446.14,521.52,445.77Z"/><path class="cls-6" d="M516.44,449.27c1.71.79,6.92,2.25,10.83,1.37.65-.14.71-1.28.49-2.38-.1.07-.23.13-.33.19a3.72,3.72,0,0,1-.4.2,8.91,8.91,0,0,1-1.48.58,5,5,0,0,1-3.29-.09c-.33-.13-.66-.32-1-.43a6.33,6.33,0,0,0-1.57-.12,9.21,9.21,0,0,1-2.2-.37,5.59,5.59,0,0,0-1.17-.31s-.09,0-.13,0A1.46,1.46,0,0,0,516.44,449.27Z"/><path class="cls-9" d="M549.72,444.75l.49,1.63c.5.17.56.38.87.87a3.59,3.59,0,0,1,.62,1.66l-8.63-.4,2.52-1.79.62-1.14Z"/><path class="cls-13" d="M545.45,446.76c-1.62,1-3.42.5-4.45,1.66a1.74,1.74,0,0,0-.13,2.47c1.81.58,7.18,1.33,10.94-.05,1.12-.42-.11-3.71-.91-4.27l-.85-.4c.48.44.91.82.22,1.43a5.74,5.74,0,0,1-4.62.22C545.56,447.41,545.88,447.07,545.45,446.76Z"/><path class="cls-6" d="M540.88,450.9c1.8.56,7.16,1.31,10.92-.07.62-.23.53-1.37.17-2.43a2.26,2.26,0,0,1-.31.23c-.13.11-.25.18-.36.26a9.54,9.54,0,0,1-1.4.77,5.12,5.12,0,0,1-3.27.35,9,9,0,0,0-1.08-.29,5.55,5.55,0,0,0-1.57.08,8.78,8.78,0,0,1-2.23-.08,6.67,6.67,0,0,0-1.2-.15.59.59,0,0,1-.13,0A1.45,1.45,0,0,0,540.88,450.9Z"/><path class="cls-4" d="M551.21,444.55c-1.77,1.3-4.46,1.55-7.06,1.66-3.36-7.6-11.33-26.92-11.15-30.95-.91-3.57,1.4-15.12,2.2-21.92l.52-7.45,8.28,0c2.67,8.6-.24,21.38-1.36,27.11Z"/><path class="cls-4" d="M537,386.18c0,7.61-3.14,24-7.38,29.29l-1.84,29.85c-2.51-.14-5.14.1-6.61-1.18-.09-10.28-2-22.06-1.67-30.19.07-6.61,3.61-19.11,6-27.95Z"/><path class="cls-10" d="M544.76,387.37c-4.34,3.95-10.42,2.4-17.35.82v0c-.52-.1-1.79-.73-2.33-.88-1.67-4.4-1.79-10.9-2.24-19.19v0c-.21-3.51-.34-7.24-.42-11.11a37.16,37.16,0,0,1,15.51-6.26C544.64,354.18,545.14,374.56,544.76,387.37Z"/><path class="cls-9" d="M528.14,353.59a7.65,7.65,0,0,0,5.69-2,26.5,26.5,0,0,1-2.82-5.47l-3.8,1.2C527.8,349.8,528.34,352.19,528.14,353.59Z"/><path class="cls-6" d="M527.76,349.72c.09.45.18.89.24,1.3a.17.17,0,0,0,.11,0c.44,0,.75.31,1.15.16s.69-.45,1.11-.3c.24.11.65,0,.83.18a4.48,4.48,0,0,0,1.63,1.3,6.6,6.6,0,0,0,1-.79,12.8,12.8,0,0,1-1.63-2.84c-.22,0-.42,0-.64.06a25.43,25.43,0,0,0-3.72.88Z"/><path class="cls-9" d="M524.9,349.25c.73,1.77,4.33,2.05,7.78.73,1-.38,2.18-2.86,3.55-5.23l-3.35-8-6.4.35C523.79,340.73,523.53,344.84,524.9,349.25Z"/><path class="cls-6" d="M524.19,342.61a6.66,6.66,0,0,0,2,1.12c1.56.6,3.3.58,4.89,1.08a6.17,6.17,0,0,0,1.76.49,4.61,4.61,0,0,0,2.31-.86,1.35,1.35,0,0,0,.51-.44,1,1,0,0,0,.11-.42l-1.68-4a5.9,5.9,0,0,0-.81-.38,13.3,13.3,0,0,0-3.86-.61,9.65,9.65,0,0,0-4.27.72A11.92,11.92,0,0,0,524.19,342.61Z"/><path class="cls-13" d="M524.34,338.22c-.92,2.49,2.2,4.26,3.54,4.5a1.86,1.86,0,0,1,1.42,2.64l.42.3s.31-1.87,1-1.38,1.18.62.61,2-.76,3.43,1.39,3.75,2.39-1.81,3.19-2.44a2.62,2.62,0,0,0,.7-3.23,4,4,0,0,1-.43-3.38c.33-1-.37-3.7-1.35-4a8.26,8.26,0,0,1-2.58-.79c-1.22-.64-1.47-1.58-3.36-.85C526.68,336.14,524.4,336,524.34,338.22Z"/><path class="cls-9" d="M500.47,347.35l-2.85,1.44-.61-1.54a5.33,5.33,0,0,1-1.21-1.11c-.16-.81-.83-1.84-.68-2.64.2-.45-.61-1.76.07-2.36a2.84,2.84,0,0,1,2.31-.89,2.74,2.74,0,0,1,1.6.53c.61,1,0,.85.32,2.13a2.84,2.84,0,0,1,.79-1.08.69.69,0,0,1,.65.57,16.49,16.49,0,0,1-.69,4.08Z"/><path class="cls-9" d="M497.62,348.79c2.68,4.38,6.05,10,8.87,13.42,0,0,.83-.33.28-.25l3.45-4.23.43-.45L500.32,347A7.39,7.39,0,0,1,497.62,348.79Z"/><path class="cls-10" d="M506.14,362.18c.52.64,1.05,1.22,1.56,1.74a16.88,16.88,0,0,0,2.2,1.88c3.57,2,8.55,1.67,13.74,2.35L522.41,357l-9.27,2.32-.71-.69-1.78-1.74,0,0-4.41,5.17A.66.66,0,0,0,506.14,362.18Z"/><path class="cls-11" d="M506.2,362.82l.68.93a.61.61,0,0,0,.82.17.49.49,0,0,0,.15-.13l4.58-5.2.4-.46a.62.62,0,0,0-.26-1l-1.26-.44a.62.62,0,0,0-.66.15l0,0-4.41,5.17a.66.66,0,0,0-.08.13A.62.62,0,0,0,506.2,362.82Z"/><path class="cls-11" d="M523.64,341.05c4.83,2.13,10.57,4.36,13.24,3.68s1.87-9.89-5.7-10.69c-4-.39-6.7,1.17-7.93,3C518,336.2,520.63,339.84,523.64,341.05Z"/><path class="cls-6" d="M508.78,364.92a9.56,9.56,0,0,0,1.12.88c3.37,1.94,8,1.7,12.93,2.27v0c.46,8.3.57,14.8,2.25,19.21.55.15,1.8.77,2.33.88v0c4.54,1,8.72,2.05,12.27,1.52-1.35-.55-2.71-1-4.12-1.43a25.64,25.64,0,0,1-6.17-2.25c-1.87-1.14-3.41-3.13-3.32-5.31,0-1.36.72-2.64,1-4a15.23,15.23,0,0,0-.07-4.47,10.59,10.59,0,0,1,.16-4.45,4.05,4.05,0,0,1,3.08-2.91L523.4,366h0a4.41,4.41,0,0,1-.62.09,32,32,0,0,1-5.06.57,19.28,19.28,0,0,1-7.16-1.23A5.21,5.21,0,0,0,508.78,364.92Z"/><path class="cls-11" d="M522.62,356.66s3.6,4.72-.34,12.6c0,0,.31,17.46,3,20.44,0,0,15.38,6,21.09-.49.67-2.22-.23-38.5-8.81-38.54-1.87,0-3.5-.11-3.39.4s.86,1.48-.29,2-5.94,2.49-7,.88C526.45,353.38,522.23,355.69,522.62,356.66Z"/><path class="cls-13" d="M537.68,356.17l-6.52,1.42s.33,1.71.75,1.68,6.52-1.31,6.52-1.31Z"/><path class="cls-4" d="M431.9,436.81h-8.24v-2.52h8.24a7.77,7.77,0,0,0,7.76-7.76V347.64a10.29,10.29,0,0,1,10.28-10.28h2.79v2.52h-2.79a7.77,7.77,0,0,0-7.76,7.76v78.89A10.29,10.29,0,0,1,431.9,436.81Z"/><path class="cls-10" d="M340,430.13,361.79,317a19.49,19.49,0,0,0-1.35-11.67l-64-143.16h38L414.8,304.7A19.51,19.51,0,0,1,417,318L395.4,430.13Z"/><rect class="cls-18" x="325.13" y="430.13" width="92.19" height="13.77" rx="4.89"/><path class="cls-15" d="M279.62,110.84h70.66a4.61,4.61,0,0,1,4.61,4.61v43.68a3,3,0,0,1-3,3H279.62a4.61,4.61,0,0,1-4.61-4.61v-42.1A4.61,4.61,0,0,1,279.62,110.84Z"/><path class="cls-5" d="M326.91,162.19a9.45,9.45,0,0,1-18.53,2.61,9.73,9.73,0,0,1-.36-2.61,9.43,9.43,0,0,1,9.44-9.45,9.72,9.72,0,0,1,2.07.23A9.49,9.49,0,0,1,326.91,162.19Z"/><path class="cls-6" d="M326.91,162.19a9.45,9.45,0,0,1-18.53,2.61c3.12,1.28,6.79,2.06,9.82.6a7.66,7.66,0,0,0,4.17-7.39c0-1.92-1.42-3.85-2.84-5A9.49,9.49,0,0,1,326.91,162.19Z"/><path class="cls-5" d="M403.23,314.76a15.16,15.16,0,0,1-29.72,4.2,15.55,15.55,0,0,1-.59-4.2,15.14,15.14,0,0,1,15.16-15.15,15.82,15.82,0,0,1,3.31.37A15.2,15.2,0,0,1,403.23,314.76Z"/><path class="cls-6" d="M403.23,314.76a15.16,15.16,0,0,1-29.72,4.2c5,2.06,10.89,3.31,15.74,1a12.25,12.25,0,0,0,6.7-11.84c0-3.09-2.28-6.18-4.56-8.09A15.2,15.2,0,0,1,403.23,314.76Z"/><rect class="cls-19" x="332.72" y="406.98" width="79.11" height="23.15" rx="6.64"/><path class="cls-20" d="M426.89,399.13a1.48,1.48,0,0,1-1.48,1.48h-8.87v12h1.64a6.2,6.2,0,0,1,1.46.19,5.45,5.45,0,0,1,4,5.27v21.16a5.49,5.49,0,0,1-5.48,5.48h-6.24a5.49,5.49,0,0,1-5.48-5.48V418a5.47,5.47,0,0,1,5.48-5.46h1.64v-12h-8.87a1.48,1.48,0,1,1,0-3h20.7A1.48,1.48,0,0,1,426.89,399.13Z"/><path class="cls-6" d="M423.66,418v21.16a5.49,5.49,0,0,1-5.48,5.48h-6.24a5.49,5.49,0,0,1-5.48-5.48V437.5a15.69,15.69,0,0,1,5.08-.21c2.59.16,5.56.16,7.3-1.77,1.46-1.62,1.54-4,1.54-6.14,0-4.42,0-8.84-.37-13.26a16.67,16.67,0,0,1-.4-3.2.3.3,0,0,1,0-.16A5.45,5.45,0,0,1,423.66,418Z"/></g></g></g></svg>