<svg id="Layer_1" data-name="Layer 1" xmlns="http://www.w3.org/2000/svg" viewBox="0 0 1860.34 961.85"><defs><style>.cls-1{fill:#ebedfc;}.cls-2{fill:#494e6d;}.cls-3{fill:#9fa3bf;}.cls-4{fill:#47103d;}.cls-5{fill:#68a3c1;}.cls-6{fill:#ff9e1d;}.cls-7{fill:#d7e3ff;}.cls-8{fill:#e57d00;}.cls-9{fill:#ffaa40;}.cls-10{fill:#fff;}.cls-11{fill:#5a4ac4;}.cls-12{fill:#19274a;}.cls-13{fill:#5a174a;}.cls-14{fill:#fd8680;}.cls-15{fill:#2dea43;}.cls-16{fill:#8e3332;}.cls-17{fill:#fefefe;}.cls-18{fill:#cc5754;}</style></defs><title>Online Delivery 3 [Converted]</title><path class="cls-1" d="M173.51,1450.87H1842.75S2051.1,967.74,1529.24,946.1,1311.83,642.5,984.88,543.51,560.85,673.92,526,752C469,879.46-27.45,878,173.51,1450.87Z" transform="translate(-69.83 -519.14)"/><path class="cls-2" d="M263.12,1413.92c-.13,11.59-.8,22.45-1.61,31.62H228.18a265,265,0,0,1-38.32-60.27,212.21,212.21,0,0,1-10-26,124.22,124.22,0,0,1-5.29-25.57c-.93-10.75.36-19.87,4.36-26.33,5.29-8.54,15.33-12.42,31.27-9.26a50.77,50.77,0,0,1,7.23,2h0a47.46,47.46,0,0,1,9.4,4.45,52.77,52.77,0,0,1,12.66,11,79.1,79.1,0,0,1,13,22.8c.51,1.29,1,2.59,1.43,3.91a152.53,152.53,0,0,1,6.11,24.94c.12.79.25,1.57.37,2.37.15,1,.29,2,.42,2.94a266.57,266.57,0,0,1,2.28,30.35C263.14,1406.6,263.16,1410.3,263.12,1413.92Z" transform="translate(-69.83 -519.14)"/><path d="M249.33,1445.67q-.95-3.36-2-7l-.19-.67c-2.6-9-5.25-17.82-7.87-26.3-2.16-7-4.36-13.84-6.55-20.46-3.15-9.52-6.11-18-9-26-4-10.87-7.87-20.73-11.58-29.31-7.49-17.3-14.48-30-20.77-37.59l.77-.64c6.35,7.71,13.39,20.44,20.91,37.83,3.73,8.6,7.63,18.48,11.61,29.36,2.93,8,5.88,16.52,9,26,2.19,6.64,4.4,13.53,6.55,20.48,2.63,8.49,5.28,17.34,7.88,26.33l.2.66c.69,2.43,1.36,4.76,2,7Z" transform="translate(-69.83 -519.14)"/><polygon points="187.07 954.35 186.89 953.68 187.86 953.42 188.04 954.1 187.07 954.35"/><polygon points="143.11 817.56 108.3 788.25 108.94 787.48 142.37 815.63 147.07 780.88 148.06 781.01 143.11 817.56"/><polygon points="154.62 846.7 104.43 814.99 104.96 814.15 154.05 845.16 169.39 795.48 170.35 795.77 154.62 846.7"/><polygon points="163.63 872.69 109.73 840.55 110.24 839.7 163.1 871.21 182.16 819.03 183.1 819.38 163.63 872.69"/><polygon points="170.13 893.1 119.8 866.57 120.26 865.69 169.72 891.75 190.51 853.14 191.4 853.62 170.13 893.1"/><polygon points="177.96 919.38 137.6 899.06 138.05 898.17 177.63 918.09 192.86 895.66 193.68 896.23 177.96 919.38"/><path class="cls-3" d="M267,1409.76s-86.45-142.1-8.94-172.9S285.91,1390.88,267,1409.76Z" transform="translate(-69.83 -519.14)"/><path d="M266,1409.34c-.06-.38-5.8-38.79-8.35-79.43-3.44-54.68.23-87.15,10.9-96.49l.66.75c-24.95,21.84-2.45,173.49-2.22,175Z" transform="translate(-69.83 -519.14)"/><polygon points="188.73 743.89 178.37 722.72 179.27 722.28 189 742.17 213.91 716.33 214.63 717.02 188.73 743.89"/><polygon points="187.05 770.36 165.4 735.05 166.25 734.53 187.3 768.85 227.12 735.58 227.76 736.34 187.05 770.36"/><polygon points="187.65 799.87 156.25 760.23 157.04 759.61 187.81 798.47 229.99 764.96 230.61 765.75 187.65 799.87"/><polygon points="189.63 829.23 158.99 799.53 159.69 798.81 189.73 827.93 226.16 802.04 226.74 802.85 189.63 829.23"/><polygon points="191.62 850.26 165.88 824.09 166.6 823.39 191.73 848.95 220.7 828.18 221.28 828.99 191.62 850.26"/><path class="cls-3" d="M339.36,1382.61a131.7,131.7,0,0,1-8.77,22.94,149,149,0,0,1-28.49,40H252.72c-.38-3-.72-6.13-1-9.41h0c-.1-1.26-.2-2.56-.29-3.86-.89-13.54-.57-28.94,2.7-43.68h0c.14-.62.28-1.22.43-1.84.43-1.78.89-3.55,1.42-5.3a87.2,87.2,0,0,1,4.38-11.85c.2-.45.41-.91.63-1.35.12-.27.25-.53.38-.8q1.31-2.68,2.83-5.27a66.48,66.48,0,0,1,20.7-22,69.06,69.06,0,0,1,8.77-5q3.4-1.61,7.15-2.94A56.47,56.47,0,0,1,315,1329c6.34-.53,11.53.56,15.63,2.94,5.38,3.11,8.89,8.43,10.71,15.25C343.85,1356.72,343.06,1369.17,339.36,1382.61Z" transform="translate(-69.83 -519.14)"/><path d="M268,1445.71l-.94-.34c1.06-3,2.22-6.14,3.46-9.43,2.35-6.22,4.79-12.31,7.27-18.1,3.35-7.88,6.93-15.65,10.65-23.11a329.52,329.52,0,0,1,22.41-38.51,224.8,224.8,0,0,1,19.37-24.63l.74.67a225,225,0,0,0-19.29,24.52,329.87,329.87,0,0,0-22.34,38.4c-3.7,7.43-7.28,15.19-10.62,23-2.47,5.78-4.91,11.86-7.26,18.06C270.22,1439.57,269.06,1442.74,268,1445.71Z" transform="translate(-69.83 -519.14)"/><polygon points="240.82 838.17 244.63 809.78 245.63 809.92 242.02 836.75 271.32 827.56 271.62 828.52 240.82 838.17"/><polygon points="218.6 876.45 214.57 821.04 215.57 820.97 219.51 875.2 269.42 862.98 269.66 863.96 218.6 876.45"/><polygon points="200.83 917.54 183.84 869.6 184.78 869.26 201.49 916.41 247.13 908.43 247.3 909.41 200.83 917.54"/><polygon points="185.37 926.59 181.39 916.99 181.9 916.98 182.35 916.79 186.3 926.21 185.37 926.59"/><polygon points="208.06 899.49 193.88 843.15 194.85 842.91 208.78 898.29 260.65 885.93 260.88 886.9 208.06 899.49"/><path class="cls-2" d="M1662.89,1405c-.17,14.8-1,28.65-2.06,40.35H1618.3a338.51,338.51,0,0,1-48.9-76.91,270.91,270.91,0,0,1-12.81-33.17,159.41,159.41,0,0,1-6.76-32.63c-1.18-13.72.47-25.37,5.57-33.61,6.76-10.89,19.57-15.85,39.91-11.82a66.1,66.1,0,0,1,9.23,2.53h0a60.23,60.23,0,0,1,12,5.68,67.29,67.29,0,0,1,16.16,14c6.94,8.21,12.38,18.11,16.6,29.1q1,2.46,1.83,5a193.81,193.81,0,0,1,7.78,31.83c.17,1,.33,2,.49,3,.19,1.24.36,2.5.53,3.75a338.61,338.61,0,0,1,2.9,38.73C1662.91,1395.67,1662.94,1400.39,1662.89,1405Z" transform="translate(-69.83 -519.14)"/><path d="M1645.43,1445.49c-.81-2.88-1.67-5.89-2.57-9l-.22-.77c-3.33-11.48-6.71-22.77-10.06-33.57-2.75-8.9-5.56-17.68-8.35-26.11-4-12.13-7.79-23-11.52-33.2-5.07-13.87-10-26.46-14.79-37.41-9.57-22.09-18.49-38.24-26.52-48l.77-.64c8.09,9.83,17.07,26.06,26.67,48.25,4.75,11,9.73,23.57,14.81,37.46,3.73,10.22,7.51,21.09,11.53,33.22,2.79,8.44,5.6,17.23,8.36,26.14,3.34,10.8,6.73,22.1,10.06,33.59l.22.77q1.35,4.68,2.57,9Z" transform="translate(-69.83 -519.14)"/><rect x="1654.96" y="1479.98" width="1" height="0.89" transform="translate(-394.66 -44.03) rotate(-14.89)"/><polygon points="1528.93 787.06 1484.69 749.81 1485.33 749.04 1528.18 785.12 1534.22 740.53 1535.21 740.66 1528.93 787.06"/><polygon points="1543.64 824.3 1479.73 783.93 1480.27 783.08 1543.07 822.75 1562.69 759.18 1563.65 759.48 1543.64 824.3"/><polygon points="1555.14 857.47 1486.5 816.54 1487.01 815.69 1554.61 855.99 1578.99 789.25 1579.93 789.59 1555.14 857.47"/><polygon points="1563.44 883.53 1499.34 849.74 1499.8 848.86 1563.03 882.19 1589.64 832.79 1590.52 833.27 1563.44 883.53"/><polygon points="1573.46 917.08 1522.06 891.2 1522.51 890.31 1573.12 915.79 1592.62 887.07 1593.45 887.63 1573.46 917.08"/><path class="cls-2" d="M1667.88,1399.7s-110.32-181.34-11.41-220.65S1692,1375.61,1667.88,1399.7Z" transform="translate(-69.83 -519.14)"/><path d="M1666.76,1399.14c-.08-.49-7.4-49.5-10.66-101.35-4.39-69.74.28-111.14,13.86-123l.66.75c-31.89,27.92-3.17,221.53-2.88,223.48Z" transform="translate(-69.83 -519.14)"/><polygon points="1587.28 693.07 1574.15 666.24 1575.05 665.79 1587.55 691.35 1619.48 658.23 1620.2 658.93 1587.28 693.07"/><polygon points="1585.13 726.88 1584.83 726.39 1557.58 681.95 1558.44 681.43 1585.38 725.37 1636.32 682.8 1636.96 683.57 1585.13 726.88"/><polygon points="1585.88 764.56 1545.91 714.07 1546.69 713.45 1586.04 763.15 1639.99 720.31 1640.61 721.09 1585.88 764.56"/><polygon points="1588.4 802.03 1588.11 801.75 1549.39 764.21 1550.09 763.49 1588.5 800.74 1635.09 767.62 1635.67 768.44 1588.4 802.03"/><polygon points="1590.94 828.88 1558.19 795.56 1558.9 794.86 1591.06 827.56 1628.12 800.98 1628.7 801.79 1590.94 828.88"/><path class="cls-3" d="M1760.19,1365a168.57,168.57,0,0,1-11.2,29.28,189.51,189.51,0,0,1-36.35,51h-63c-.48-3.8-.92-7.82-1.28-12h0c-.12-1.61-.25-3.26-.37-4.92-1.14-17.28-.72-36.93,3.45-55.75h0c.18-.79.36-1.56.55-2.34.54-2.27,1.14-4.53,1.81-6.76a110.63,110.63,0,0,1,5.6-15.13c.25-.57.52-1.16.79-1.73.16-.34.32-.67.49-1,1.11-2.28,2.3-4.53,3.61-6.72a84.78,84.78,0,0,1,26.42-28.11,88.48,88.48,0,0,1,11.19-6.31,95,95,0,0,1,9.12-3.75,71.08,71.08,0,0,1,18-4.16c8.09-.69,14.71.71,19.94,3.74,6.87,4,11.35,10.76,13.67,19.46C1765.91,1332,1764.91,1347.9,1760.19,1365Z" transform="translate(-69.83 -519.14)"/><path d="M1669,1445.52l-.94-.33c1.36-3.81,2.84-7.86,4.41-12,3-7.94,6.12-15.71,9.28-23.1,4.27-10,8.84-20,13.58-29.48a420.43,420.43,0,0,1,28.6-49.13,286.74,286.74,0,0,1,24.71-31.42l.73.68a287,287,0,0,0-24.62,31.3,418.53,418.53,0,0,0-28.52,49c-4.73,9.49-9.29,19.39-13.56,29.42-3.15,7.38-6.27,15.14-9.26,23.06C1671.83,1437.68,1670.35,1441.72,1669,1445.52Z" transform="translate(-69.83 -519.14)"/><polygon points="1653.89 813.43 1658.72 777.42 1659.71 777.55 1655.09 812 1692.69 800.22 1692.98 801.17 1653.89 813.43"/><polygon points="1625.49 862.3 1620.36 791.75 1621.35 791.67 1626.4 861.05 1690.25 845.42 1690.49 846.39 1625.49 862.3"/><polygon points="1602.77 914.76 1602.63 914.36 1581.13 853.68 1582.07 853.34 1603.43 913.63 1661.79 903.42 1661.96 904.4 1602.77 914.76"/><polygon points="1583.09 926.41 1578.02 914.21 1578.53 914.2 1578.98 914.01 1584.01 926.02 1583.09 926.41"/><polygon points="1612.01 891.71 1611.89 891.23 1593.95 819.95 1594.92 819.7 1612.74 890.51 1679.06 874.7 1679.29 875.68 1612.01 891.71"/><path class="cls-3" d="M538.75,1400.5c-.16,14.8-1,28.65-2,40.35H494.17a337.61,337.61,0,0,1-48.9-76.91,268.69,268.69,0,0,1-12.81-33.17,158.74,158.74,0,0,1-6.76-32.63c-1.18-13.72.47-25.36,5.57-33.61,6.75-10.89,19.56-15.85,39.9-11.82a66.24,66.24,0,0,1,9.24,2.53h0a60.5,60.5,0,0,1,12,5.68,67.48,67.48,0,0,1,16.16,14c6.93,8.21,12.37,18.11,16.6,29.11q1,2.45,1.82,5a194.83,194.83,0,0,1,7.79,31.83c.16,1,.33,2,.48,3,.19,1.24.37,2.5.53,3.75a338.64,338.64,0,0,1,2.91,38.73C538.78,1391.17,538.8,1395.89,538.75,1400.5Z" transform="translate(-69.83 -519.14)"/><path d="M521.29,1441q-1.2-4.27-2.54-8.91l-.25-.87c-3.31-11.44-6.7-22.73-10.05-33.57-2.75-8.88-5.57-17.67-8.36-26.11-4-12.15-7.79-23-11.52-33.2-5.07-13.87-10-26.46-14.79-37.41-9.56-22.09-18.48-38.24-26.52-48l.78-.64c8.09,9.83,17.06,26.06,26.66,48.25,4.75,11,9.73,23.56,14.81,37.46,3.73,10.19,7.5,21.06,11.53,33.23,2.8,8.45,5.61,17.24,8.36,26.13,3.36,10.84,6.74,22.14,10.06,33.59l.25.86q1.34,4.64,2.54,8.92Z" transform="translate(-69.83 -519.14)"/><polygon points="461.12 957.35 460.9 956.49 461.86 956.23 462.09 957.1 461.12 957.35"/><polygon points="404.79 782.56 360.55 745.31 361.2 744.54 404.05 780.62 410.08 736.03 411.07 736.16 404.79 782.56"/><polygon points="419.5 819.8 355.6 779.43 356.13 778.58 418.93 818.25 438.56 754.68 439.51 754.98 419.5 819.8"/><polygon points="431 852.97 362.36 812.05 362.88 811.19 430.48 851.49 454.86 784.75 455.8 785.09 431 852.97"/><polygon points="439.31 879.04 375.2 845.24 375.67 844.36 438.9 877.69 465.51 828.29 466.39 828.77 439.31 879.04"/><polygon points="449.32 912.58 397.92 886.71 398.37 885.81 448.99 911.29 468.49 882.57 469.31 883.13 449.32 912.58"/><path class="cls-3" d="M543.75,1395.2s-110.33-181.34-11.41-220.65S567.84,1371.11,543.75,1395.2Z" transform="translate(-69.83 -519.14)"/><path d="M542.62,1394.64c-.07-.49-7.4-49.5-10.66-101.35-4.38-69.74.28-111.13,13.87-123l.66.75c-31.89,27.92-3.17,221.53-2.88,223.48Z" transform="translate(-69.83 -519.14)"/><polygon points="463.14 688.57 450.01 661.74 450.91 661.3 463.42 686.85 495.35 653.73 496.06 654.43 463.14 688.57"/><polygon points="461 722.38 433.45 677.45 434.3 676.93 461.25 720.87 512.19 678.3 512.83 679.07 461 722.38"/><polygon points="461.75 760.06 421.77 709.57 422.56 708.95 461.91 758.65 515.85 715.81 516.47 716.59 461.75 760.06"/><polygon points="464.27 797.53 425.26 759.71 425.95 759 464.37 796.24 510.96 763.12 511.54 763.94 464.27 797.53"/><polygon points="466.81 824.38 434.05 791.06 434.76 790.36 466.92 823.07 503.99 796.48 504.57 797.29 466.81 824.38"/><path class="cls-3" d="M636.06,1360.54a169.38,169.38,0,0,1-11.2,29.28,189.77,189.77,0,0,1-36.36,51h-63c-.48-3.8-.93-7.82-1.28-12h0c-.13-1.61-.26-3.26-.37-4.92-1.14-17.28-.72-36.93,3.45-55.75h0c.18-.78.35-1.56.54-2.34.55-2.27,1.15-4.53,1.82-6.76a111.92,111.92,0,0,1,5.59-15.13c.25-.57.52-1.16.8-1.73.15-.34.32-.67.48-1,1.12-2.28,2.31-4.53,3.62-6.72a84.53,84.53,0,0,1,26.41-28.1,86.77,86.77,0,0,1,11.2-6.32,96.49,96.49,0,0,1,9.12-3.75,71.54,71.54,0,0,1,18-4.16c8.09-.69,14.71.71,20,3.74,6.86,4,11.35,10.76,13.67,19.46C641.78,1327.51,640.77,1343.4,636.06,1360.54Z" transform="translate(-69.83 -519.14)"/><path d="M544.85,1441l-.94-.33c1.36-3.81,2.85-7.86,4.42-12,3-8,6.12-15.72,9.28-23.1,4.27-10,8.84-20,13.58-29.48A419.83,419.83,0,0,1,599.78,1327a288,288,0,0,1,24.71-31.42l.74.68a285.78,285.78,0,0,0-24.62,31.3,419.36,419.36,0,0,0-28.53,49c-4.73,9.49-9.29,19.39-13.55,29.42-3.15,7.37-6.27,15.13-9.27,23.06C547.69,1433.18,546.21,1437.22,544.85,1441Z" transform="translate(-69.83 -519.14)"/><polygon points="529.75 808.93 534.59 772.92 535.58 773.05 530.95 807.5 568.55 795.72 568.85 796.67 529.75 808.93"/><polygon points="501.36 857.8 496.22 787.25 497.22 787.18 502.27 856.55 566.11 840.92 566.35 841.89 501.36 857.8"/><polygon points="478.63 910.26 457 849.18 457.94 848.84 479.3 909.13 537.65 898.92 537.82 899.9 478.63 910.26"/><polygon points="458.95 921.91 453.88 909.71 454.39 909.7 454.84 909.51 459.88 921.52 458.95 921.91"/><polygon points="487.87 887.21 469.82 815.45 470.79 815.2 488.6 886.01 554.92 870.2 555.15 871.18 487.87 887.21"/><ellipse class="cls-2" cx="335.32" cy="899.29" rx="164.82" ry="32.96"/><rect class="cls-4" x="691.04" y="731.82" width="662.74" height="120.1" rx="9.95"/><rect class="cls-5" x="653.41" y="472.8" width="544.08" height="367.55" rx="10.25"/><rect class="cls-2" x="678.01" y="503.19" width="491.99" height="13.8"/><rect class="cls-4" x="634.6" y="789.7" width="57.88" height="57.88" rx="6.68"/><path class="cls-4" d="M1278,1097.85l2.21,247.62a15.74,15.74,0,0,0,15.61,15.59l318.84,2.64a15.74,15.74,0,0,0,15.87-15.74v-23.38a15.74,15.74,0,0,0-15.74-15.74H1440a15.71,15.71,0,0,1-13.7-8L1307.44,1090C1299.46,1075.82,1277.85,1081.59,1278,1097.85Z" transform="translate(-69.83 -519.14)"/><path class="cls-2" d="M1276,1035.35h144.7L1496,1165.58l115.76,86.83v56.43l-334.27-8.68S1276,1090.34,1276,1035.35Z" transform="translate(-69.83 -519.14)"/><rect class="cls-6" x="1537.55" y="737.61" width="14.47" height="34.73" rx="3.52"/><polygon class="cls-7" points="1381.27 667.07 1236.57 667.07 1236.57 548.42 1334.97 548.42 1389.95 646.81 1381.27 667.07"/><polygon class="cls-5" points="1207.63 743.4 1538.16 741.95 1544.79 808.51 1546.45 840.24 1209.07 840.35 1207.63 743.4"/><circle class="cls-2" cx="799.56" cy="844.69" r="86.82"/><circle class="cls-3" cx="869.39" cy="1363.83" r="46.31" transform="translate(-81.74 -511.47) rotate(-0.5)"/><circle class="cls-2" cx="1413.11" cy="841.79" r="86.82"/><circle class="cls-3" cx="1413.11" cy="841.79" r="46.31"/><rect class="cls-4" x="1375.48" y="621.85" width="28.94" height="60.78" rx="13.58"/><rect class="cls-8" x="1047.04" y="828.24" width="197.97" height="99.34"/><rect class="cls-9" x="1047.04" y="828.24" width="98.98" height="99.34"/><rect class="cls-8" x="1047.04" y="891.62" width="22.95" height="8.53"/><rect class="cls-6" x="1222.05" y="842.87" width="22.95" height="6.7"/><rect class="cls-8" x="915.06" y="798.25" width="139.48" height="129.33"/><rect class="cls-9" x="915.06" y="798.25" width="69.74" height="129.33"/><rect class="cls-8" x="915.06" y="880.77" width="16.17" height="11.11"/><rect class="cls-6" x="1038.36" y="817.29" width="16.17" height="8.73"/><rect class="cls-8" x="1054.53" y="741.98" width="131.98" height="86.62"/><rect class="cls-9" x="1054.53" y="741.98" width="65.99" height="86.62"/><rect class="cls-8" x="1054.53" y="797.25" width="15.3" height="7.44"/><rect class="cls-6" x="1171.21" y="754.73" width="15.3" height="5.85"/><rect class="cls-8" x="961.8" y="736.76" width="94.23" height="61.84"/><rect class="cls-9" x="961.8" y="736.76" width="47.12" height="61.84"/><rect class="cls-8" x="961.8" y="776.22" width="10.93" height="5.31"/><rect class="cls-6" x="1045.11" y="745.86" width="10.93" height="4.17"/><path class="cls-10" d="M469.86,682s26.83,95.65,104.88,58.53S676.08,755.11,739,729.83s12.74-126.41-78.28-106.19S617.69,538,474,592.11,469.86,682,469.86,682Z" transform="translate(-69.83 -519.14)"/><path class="cls-10" d="M1177.91,629.19s-142.72-45-214.65-6.74S1080.14,786.53,1294.79,673,1177.91,629.19,1177.91,629.19Z" transform="translate(-69.83 -519.14)"/><path class="cls-10" d="M1876.61,1091.54s2.25-94.4-83.16-67.43-145-9-187.69,40.46S1729.39,1188.2,1866.5,1141,1876.61,1091.54,1876.61,1091.54Z" transform="translate(-69.83 -519.14)"/><path class="cls-10" d="M129.77,1060.54s130.36,87.66,227,32.59,141.61-9,174.2-56.19-66.31-104.52-165.21-73.05-101.14-156.22-236-40.46S129.77,1060.54,129.77,1060.54Z" transform="translate(-69.83 -519.14)"/><path class="cls-11" d="M1500.8,1029.43a3,3,0,0,1-2.74-1.77c-1.89-4.24-3.81-8.49-5.72-12.65a3,3,0,1,1,5.46-2.5c1.91,4.17,3.84,8.45,5.74,12.7a3,3,0,0,1-1.52,4A2.91,2.91,0,0,1,1500.8,1029.43ZM526,1024.93a3,3,0,0,1-3-2.83c0-.15-.19-3.71-.19-9.89,0-3.36.05-6.86.16-10.4a3,3,0,0,1,6,.19c-.11,3.48-.16,6.92-.16,10.21,0,6,.18,9.53.18,9.56a3,3,0,0,1-2.83,3.16Zm960.63-26.28a3,3,0,0,1-2.7-1.71c-2.88-6-5.83-12.05-8.75-17.92a3,3,0,0,1,5.37-2.68c2.94,5.9,5.89,12,8.79,18a3,3,0,0,1-2.71,4.3ZM527.13,984.89h-.27a3,3,0,0,1-2.72-3.25c.59-6.77,1.37-13.53,2.33-20.07a3,3,0,1,1,5.94.86c-.94,6.44-1.71,13.07-2.3,19.73A3,3,0,0,1,527.13,984.89Zm941.61-22a3,3,0,0,1-2.66-1.62c-3.08-5.92-6.24-11.84-9.38-17.59a3,3,0,0,1,5.27-2.87c3.16,5.78,6.33,11.73,9.43,17.69a3,3,0,0,1-2.66,4.39ZM533,945.27a3.34,3.34,0,0,1-.62-.06,3,3,0,0,1-2.31-3.56c1.44-6.76,3.1-13.36,4.94-19.63a3,3,0,1,1,5.76,1.69c-1.8,6.12-3.43,12.58-4.83,19.19A3,3,0,0,1,533,945.27Zm916.64-17.5a3,3,0,0,1-2.61-1.52c-3.32-5.81-6.71-11.6-10.07-17.19a3,3,0,0,1,5.15-3.09c3.38,5.63,6.79,11.46,10.13,17.31a3,3,0,0,1-1.12,4.09A2.94,2.94,0,0,1,1449.6,927.77ZM544.32,906.93a3.06,3.06,0,0,1-1.1-.21,3,3,0,0,1-1.69-3.89A184.09,184.09,0,0,1,550,884.34a3,3,0,0,1,5.3,2.81A177.43,177.43,0,0,0,547.11,905,3,3,0,0,1,544.32,906.93ZM1429,893.48a3,3,0,0,1-2.54-1.4c-3.55-5.63-7.2-11.26-10.83-16.71a3,3,0,0,1,5-3.33c3.65,5.5,7.32,11.16,10.91,16.84a3,3,0,0,1-2.54,4.6ZM563.18,871.75a3,3,0,0,1-2.43-4.75A124.2,124.2,0,0,1,574,851.42a3,3,0,0,1,4.22,4.27,117.57,117.57,0,0,0-12.62,14.82A3,3,0,0,1,563.18,871.75Zm843.69-11.55a3,3,0,0,1-2.46-1.27c-3.84-5.47-7.77-10.9-11.66-16.13a3,3,0,1,1,4.81-3.58c3.93,5.27,7.89,10.74,11.76,16.26a3,3,0,0,1-.73,4.18A2.94,2.94,0,0,1,1406.87,860.2ZM591.56,843.92a3,3,0,0,1-1.67-5.49,103.74,103.74,0,0,1,18.1-9.66,3,3,0,1,1,2.29,5.55,97.77,97.77,0,0,0-17,9.09A3,3,0,0,1,591.56,843.92Zm121.25-7.54-1.77-.55q-2.38-.74-4.72-1.41a3,3,0,1,1,1.66-5.76l3.08.9c1.66-1.67,4.9-4.88,9.63-9.33a3,3,0,0,1,4.11,4.37c-6.91,6.5-10.67,10.4-10.71,10.44Zm-25.08-6.59a3,3,0,0,1-.59-.06,188,188,0,0,0-19.46-2.84,3,3,0,1,1,.54-6,194.87,194.87,0,0,1,20.09,2.94,3,3,0,0,1-.58,5.94Zm-59.54-1a3,3,0,0,1-.6-5.93,126.7,126.7,0,0,1,20.25-2.45,3,3,0,1,1,.26,6,121.72,121.72,0,0,0-19.3,2.32A3.23,3.23,0,0,1,628.19,828.75Zm754.79-.6a3,3,0,0,1-2.35-1.14c-4.15-5.23-8.38-10.42-12.59-15.4a3,3,0,1,1,4.59-3.87c4.25,5,8.52,10.26,12.7,15.55a3,3,0,0,1-2.35,4.86Zm-645.4-16.22a3,3,0,0,1-2-5.25c4.94-4.35,10.09-8.75,15.3-13.07a3,3,0,0,1,3.83,4.61c-5.16,4.29-10.27,8.65-15.17,13A3,3,0,0,1,737.58,811.93Zm619.61-14.32a3,3,0,0,1-2.23-1c-4.47-5-9-9.83-13.58-14.51a3,3,0,0,1,4.31-4.18c4.59,4.73,9.21,9.67,13.73,14.67a3,3,0,0,1-.22,4.24A3,3,0,0,1,1357.19,797.61ZM768.41,786.33a3,3,0,0,1-1.86-5.36c5.26-4.12,10.64-8.22,16-12.2a3,3,0,0,1,3.58,4.82c-5.32,3.94-10.65,8-15.86,12.1A3,3,0,0,1,768.41,786.33Zm560.93-17.39a3,3,0,0,1-2.07-.83c-4.82-4.6-9.75-9.11-14.65-13.41a3,3,0,0,1,4-4.51c5,4.35,10,8.92,14.83,13.58a3,3,0,0,1-2.07,5.17Zm-528.76-6.47a3,3,0,0,1-1.72-5.46c5.49-3.84,11.09-7.64,16.63-11.3a3,3,0,1,1,3.3,5c-5.49,3.63-11,7.4-16.49,11.21A2.94,2.94,0,0,1,800.58,762.47Zm498.72-19.88a3,3,0,0,1-1.87-.66c-5.19-4.17-10.49-8.23-15.76-12.07a3,3,0,0,1,3.54-4.85c5.34,3.9,10.72,8,16,12.24a3,3,0,0,1,.46,4.22A3,3,0,0,1,1299.3,742.59ZM834,740.44a3,3,0,0,1-1.58-5.55c5.72-3.54,11.53-7,17.26-10.32a3,3,0,0,1,3,5.2C847,733,841.27,736.49,835.59,740A2.91,2.91,0,0,1,834,740.44Zm34.67-20a3,3,0,0,1-1.42-5.64c5.94-3.18,12-6.28,17.89-9.21a3,3,0,0,1,2.65,5.38c-5.87,2.9-11.83,6-17.7,9.12A3,3,0,0,1,868.69,720.43ZM1267,719.06a3,3,0,0,1-1.64-.5c-5.55-3.64-11.22-7.15-16.85-10.44a3,3,0,1,1,3-5.18c5.72,3.34,11.48,6.91,17.12,10.61a3,3,0,0,1-1.65,5.51ZM904.58,702.72a3,3,0,0,1-1.24-5.74c6.14-2.77,12.37-5.44,18.49-7.94a3,3,0,0,1,2.27,5.56c-6.06,2.47-12.21,5.11-18.29,7.85A3,3,0,0,1,904.58,702.72Zm327.92-3.8a3,3,0,0,1-1.36-.33c-5.89-3-11.9-5.89-17.88-8.54a3,3,0,1,1,2.43-5.48c6.08,2.69,12.2,5.61,18.19,8.68a3,3,0,0,1-1.38,5.67ZM941.64,687.64a3,3,0,0,1-1-5.83c6.34-2.29,12.76-4.47,19.06-6.46a3,3,0,1,1,1.81,5.72c-6.23,2-12.56,4.11-18.83,6.39A3,3,0,0,1,941.64,687.64ZM1196,682.76a3.06,3.06,0,0,1-1.06-.2c-6.17-2.31-12.48-4.45-18.74-6.38a3,3,0,1,1,1.76-5.73c6.38,2,12.8,4.14,19.09,6.49a3,3,0,0,1-1,5.82Zm-216.2-7.16a3,3,0,0,1-.77-5.9c6.51-1.75,13.1-3.35,19.57-4.77a3,3,0,1,1,1.28,5.86c-6.38,1.4-12.87,3-19.3,4.7A3,3,0,0,1,979.78,675.6Zm178-4.56a2.88,2.88,0,0,1-.71-.09c-6.39-1.54-12.91-2.9-19.38-4.05a3,3,0,1,1,1-5.91c6.58,1.17,13.23,2.56,19.74,4.13a3,3,0,0,1-.7,5.92Zm-138.94-4a3,3,0,0,1-.5-5.95c6.65-1.12,13.37-2.07,19.95-2.83a3,3,0,1,1,.69,6c-6.49.75-13.09,1.68-19.64,2.78A2.89,2.89,0,0,1,1018.85,667.06Zm99.6-3-.35,0c-6.51-.75-13.15-1.31-19.74-1.67a3,3,0,0,1,.33-6c6.71.36,13.47.94,20.1,1.7a3,3,0,0,1-.34,6Zm-59.89-1.55a3,3,0,0,1-.18-6c6.72-.41,13.5-.63,20.15-.65h0a3,3,0,0,1,0,6c-6.53,0-13.2.24-19.81.64Z" transform="translate(-69.83 -519.14)"/><path class="cls-5" d="M576.83,1087.25c-7.24,163.33-171,345.27-171,345.27S251.05,1256,243.28,1087.25C238.09,974.39,318,909.09,410.05,909.09S581.12,990.23,576.83,1087.25Z" transform="translate(-69.83 -519.14)"/><circle class="cls-2" cx="339.75" cy="566.13" r="101.87"/><path class="cls-5" d="M738.4,779.42c-1.11,25.16-26.34,53.19-26.34,53.19s-23.84-27.19-25-53.19C686.22,762,698.52,752,712.71,752S739.07,764.48,738.4,779.42Z" transform="translate(-69.83 -519.14)"/><circle class="cls-2" cx="712.64" cy="779.12" r="15.69" transform="translate(-412.02 212.97) rotate(-45)"/><path class="cls-9" d="M1555.74,913.54c-2.35,53.24-55.73,112.54-55.73,112.54s-50.46-57.54-53-112.54c-1.69-36.79,24.34-58.08,54.36-58.08S1557.15,881.91,1555.74,913.54Z" transform="translate(-69.83 -519.14)"/><circle class="cls-8" cx="1431.4" cy="393.75" r="33.21"/><rect class="cls-12" x="708.77" y="1198.79" width="32.74" height="2" transform="translate(-732.72 877.34) rotate(-66.92)"/><path class="cls-13" d="M730,1012.75l-19.38-1.47-17.26.23-11.1,3.23s4.61,19.39,19,21.18S727.85,1027.66,730,1012.75Z" transform="translate(-69.83 -519.14)"/><path class="cls-10" d="M560.53,1436.42h41.69a20.9,20.9,0,0,0-38.33-10.14h0a18.79,18.79,0,0,0-1,1.67l-.09.17A20.68,20.68,0,0,0,560.53,1436.42Z" transform="translate(-69.83 -519.14)"/><path class="cls-2" d="M807.76,1271c-2.54,12.32-33.78,120-33.78,120l-6.47-1.59L748,1384s-6.71-1.88-6.7-1.91c.41-2.37,9.81-38.65,14.43-67.49,3.06-19.12,7.37-41.67,7.37-41.67l-16.6-21.71v0l-27.77-36.3v0l9.36-22.31c7.21-16.4,13.26-28.65,15-32.13l8.08-.37,14.23-.64s7.51,16.61,16.22,37.09C794.19,1226,809.26,1263.67,807.76,1271Z" transform="translate(-69.83 -519.14)"/><path class="cls-12" d="M781.43,1197.46c-.87-.15-21.51-4.26-31.22-37.15l1.91-.56c9.35,31.62,29.47,35.71,29.67,35.75Z" transform="translate(-69.83 -519.14)"/><rect class="cls-12" x="764.98" y="1271.92" width="2" height="9.66" transform="translate(-682.69 195.82) rotate(-36.87)"/><path class="cls-2" d="M645,1300.54c3.64-9.67,3.51-57.84,2.83-94.63-.45-24.29-1.14-43.62-1.14-43.62l34.77-1,61.62-.86c-1.75,3.48-7.8,15.75-15,32.14-2.57,5.84-5.28,12.21-8,18.89-.46,1.14-1.37,3.43-1.37,3.43-17.24,43.44-31.15,90.66-45.92,112.51-10.93,16.15-59.34,77.36-59.34,77.36l-31.61-22.62S642.18,1308,645,1300.54Z" transform="translate(-69.83 -519.14)"/><path class="cls-12" d="M648.05,1206.89l-.44-2c7.21-1.63,24.79-8.79,32.11-40.09l.76-3.8,2,.4-.77,3.83a79.13,79.13,0,0,1-9,22.55C666.27,1198.24,658,1204.65,648.05,1206.89Z" transform="translate(-69.83 -519.14)"/><path class="cls-14" d="M746.75,1391.7l17,6.27,3.82-8.57,0,0L748,1384A69.5,69.5,0,0,1,746.75,1391.7Z" transform="translate(-69.83 -519.14)"/><path class="cls-5" d="M742.16,1417.77l27,16.45,19,11.55a12.73,12.73,0,0,0,4.38-5.4l-22-13.59a17.45,17.45,0,0,1,10.15-9.56c-1.77-.93-3.93-2-6.15-3.1l-1.28-.6s-4.54,4.83-6.61,4.19a20.72,20.72,0,0,1-4.3-2.08,8.72,8.72,0,0,1-2.56-2.17c-1.07-1.69.79-8.74.79-8.74-.09-2.57,3.14-6.75,3.14-6.75l-17-6.27-5.41,17-.11.35-1.25,2.7A4.51,4.51,0,0,0,742.16,1417.77Z" transform="translate(-69.83 -519.14)"/><path class="cls-12" d="M759.8,1413.46a8.72,8.72,0,0,0,2.56,2.17,2.18,2.18,0,0,0,.38-.18h0l.19-.12a4.11,4.11,0,0,0,.84-.87l.15-.2c.13-.18.24-.37.36-.57s.12-.2.17-.3.25-.49.37-.73l.21-.48c.08-.15.14-.31.21-.47l.19-.45c.12-.31.24-.6.35-.86s.11-.26.16-.39l0-.07c0-.06,0-.13.08-.19l.19-.38a25.63,25.63,0,0,1-5.14-3.32,1.93,1.93,0,0,1-.52-1.32S758.73,1411.77,759.8,1413.46Z" transform="translate(-69.83 -519.14)"/><path class="cls-12" d="M762.36,1415.63a20.72,20.72,0,0,0,4.3,2.08c2.07.64,6.61-4.19,6.61-4.19-2.12-1-5.12-3.29-6.9-4.09l-.12-.07-.19.38c0,.06,0,.13-.08.19l0,.07c-.05.13-.11.25-.16.39s-.23.55-.35.86l-.19.45c-.07.16-.13.32-.21.47s-.14.32-.21.48-.24.49-.37.73-.11.2-.17.3-.23.39-.36.57l-.15.2a4.11,4.11,0,0,1-.84.87l-.19.12h0A2.18,2.18,0,0,1,762.36,1415.63Z" transform="translate(-69.83 -519.14)"/><path class="cls-12" d="M742.16,1417.77l27,16.45,19,11.55a12.73,12.73,0,0,0,4.38-5.4l-22-13.59-29.21-18-.11.35-1.25,2.7A4.51,4.51,0,0,0,742.16,1417.77Z" transform="translate(-69.83 -519.14)"/><path class="cls-10" d="M770.55,1426.78l22,13.59a15.69,15.69,0,0,0-7.62-20.84s-1.72-1-4.21-2.31A17.45,17.45,0,0,0,770.55,1426.78Z" transform="translate(-69.83 -519.14)"/><path class="cls-5" d="M563.89,1426.29h0a20.89,20.89,0,0,1,38.33,10.14l-1.05-31-19.8-12.8L562.9,1428A18.79,18.79,0,0,1,563.89,1426.29Zm28.76-18-7.85-4.52a1.81,1.81,0,0,1-.66-2.47l.85-1.47a1.8,1.8,0,0,1,2.47-.66l7.84,4.52a1.82,1.82,0,0,1,.67,2.48l-.85,1.46A1.79,1.79,0,0,1,592.65,1408.3Zm-11.34-1.17.85-1.47a1.81,1.81,0,0,1,2.47-.66l7.85,4.52a1.82,1.82,0,0,1,.66,2.48l-.84,1.46a1.82,1.82,0,0,1-2.48.67L582,1409.6A1.82,1.82,0,0,1,581.31,1407.13Z" transform="translate(-69.83 -519.14)"/><path class="cls-12" d="M582,1409.6l7.84,4.53a1.82,1.82,0,0,0,2.48-.67l.84-1.46a1.82,1.82,0,0,0-.66-2.48l-7.85-4.52a1.81,1.81,0,0,0-2.47.66l-.85,1.47A1.82,1.82,0,0,0,582,1409.6Z" transform="translate(-69.83 -519.14)"/><path class="cls-12" d="M584.8,1403.78l7.85,4.52a1.79,1.79,0,0,0,2.47-.66l.85-1.46a1.82,1.82,0,0,0-.67-2.48l-7.84-4.52a1.8,1.8,0,0,0-2.47.66l-.85,1.47A1.81,1.81,0,0,0,584.8,1403.78Z" transform="translate(-69.83 -519.14)"/><path class="cls-12" d="M566.18,1436.42h30.38a5.65,5.65,0,0,1,5.65,5.65v2.1a0,0,0,0,1,0,0H560.53a0,0,0,0,1,0,0v-2.1A5.65,5.65,0,0,1,566.18,1436.42Z" transform="translate(1092.92 2361.45) rotate(180)"/><path class="cls-9" d="M625.14,1126.46c2.61,3.42,11.72,5.77,23.29,7.38l-2.49,32.57c19.89,0,120.46,8.7,122.2,6.95.82-.81,1.92-21.37,2.85-42.83,17.39.77,86.2,3.8,90.76,3.8,5.22,0,4.64-13.92,3.23-17.9s-53.64-18.21-63.8-20.94c-9.21-23.21-27.83-69.77-30.43-73.37-1.76-2.43-12.15-4.8-22-6.55-9.64-1.71-18.76-2.82-18.76-2.82-13.55,29.09-35.44,27.6-47.74,2,0,0-6,1.62-13.72,4-11.5,3.63-26.74,9.06-31.28,13.6C628,1041.6,616,1114.53,625.14,1126.46Z" transform="translate(-69.83 -519.14)"/><polygon class="cls-12" points="731.09 577.32 729.38 576.86 729.89 574.93 731.61 575.39 731.09 577.32"/><path class="cls-12" d="M772,1130.57l-2-.09c1-23.72,1.86-48.89,1.87-49.14l2,.07C773.85,1081.66,773,1106.83,772,1130.57Z" transform="translate(-69.83 -519.14)"/><path class="cls-12" d="M805.38,1108.84l-5.13-13,1.85-.74c3.1,7.82,5.14,13,5.14,13Z" transform="translate(-69.83 -519.14)"/><path class="cls-12" d="M715.36,1138.32c-10.38,0-43.84-.26-67.06-3.49l.27-2c25.15,3.49,62.43,3.49,69,3.47v-15.06c-17.49-6.73-56.57-21.87-57.89-23.19-1.09-1.08-1.18-9.73-.29-25.71l2,.12c-.6,10.67-.84,22.5-.23,24.22,2.31,1.4,35.69,14.44,57.77,22.94l.64.25v18.41h-4.18Zm-54.2-41.54Z" transform="translate(-69.83 -519.14)"/><path class="cls-12" d="M744.49,1154.86l-.93-1.77c5.5-2.88,14.65-7.88,15.79-9l1.42,1.41C759,1147.22,746,1154.08,744.49,1154.86Z" transform="translate(-69.83 -519.14)"/><rect class="cls-12" x="668.62" y="1139.52" width="2" height="17.4" transform="translate(-704.41 372.43) rotate(-48.62)"/><path class="cls-14" d="M693.34,992.06c.38,0,.76-.12,1.16-.21,2.23,3.42,9.56,13.95,16.86,16.31a8.68,8.68,0,0,0,3.43.44c19.85-1.66,17-26.93,16-32.8-.53.28.33,2.4-1.11,2.08-3.53-.79-11.36-7.29-11.72-7.58-1.34.53-2.66,1.06-4,1.61q-5.14,2.15-9.88,4.44-4.11,2-7.87,4.11c-1.66-1.12-5-3-8.18-2.48a5.61,5.61,0,0,0-2.85,1.35,3.92,3.92,0,0,0-.37.34C681.48,983,684,993.36,693.34,992.06Z" transform="translate(-69.83 -519.14)"/><polygon class="cls-15" points="647.58 451.98 647.42 451.86 648.13 451.15 648.71 450.33 648.19 451.09 648.84 450.44 648.19 451.09 647.58 451.98"/><path class="cls-16" d="M718,970.3c.36.29,8.19,6.79,11.72,7.58,1.44.32.58-1.8,1.11-2.08,2.16-1.15,7.88,7.11,9,5s-6.94-8-5.9-10c1.51-2.78,12.58,4.51,12.58,1.57,0-4.32-13-6.19-16.23-6.59-2,.69-4,1.38-5.9,2.09Q721.09,969.07,718,970.3Z" transform="translate(-69.83 -519.14)"/><path class="cls-5" d="M688.08,978c3.14-.54,6.52,1.36,8.18,2.48q3.76-2.12,7.87-4.11c-1.66-3.4-4.54-8-6.17-10.61C692.71,969.26,688.64,973.46,688.08,978Z" transform="translate(-69.83 -519.14)"/><path class="cls-2" d="M719.46,956.11a95.61,95.61,0,0,1,4.87,11.77c1.93-.71,3.9-1.4,5.9-2.09,0,0-2.13-9.37-5.57-10.43a6.91,6.91,0,0,0-2.7.17C721.23,955.66,720.39,955.86,719.46,956.11Z" transform="translate(-69.83 -519.14)"/><path class="cls-5" d="M708.82,959.9a125.24,125.24,0,0,1,5.19,12c1.3-.55,2.62-1.08,4-1.61q3.12-1.23,6.36-2.42a95.61,95.61,0,0,0-4.87-11.77A77.35,77.35,0,0,0,708.82,959.9Z" transform="translate(-69.83 -519.14)"/><path class="cls-2" d="M698,965.74c1.63,2.57,4.51,7.21,6.17,10.61q4.73-2.29,9.88-4.44a125.24,125.24,0,0,0-5.19-12A69.17,69.17,0,0,0,698,965.74Z" transform="translate(-69.83 -519.14)"/><path class="cls-2" d="M685.23,979.33a5.61,5.61,0,0,1,2.85-1.35c.56-4.52,4.63-8.72,9.88-12.24a69.17,69.17,0,0,1,10.86-5.84,77.35,77.35,0,0,1,10.64-3.79c.93-.25,1.77-.45,2.5-.58-1.58-2.47-7.39-10.21-17.85-9.63a26.41,26.41,0,0,0-12.39,3.74,24.62,24.62,0,0,0-5.19,4.21,22,22,0,0,0-6.14,13.37C680.24,970.22,683.8,976.82,685.23,979.33Zm12.28-23.13c0-1.54,6.83-4.05,7.85-4.48s3.57,1.6,3.69,2.63c.2,1.74-7.3,6-8.52,6.17S697.51,957.73,697.51,956.2Z" transform="translate(-69.83 -519.14)"/><path class="cls-5" d="M686.53,953.85a24.62,24.62,0,0,1,5.19-4.21,3.53,3.53,0,0,0-5.19-.67C683.44,951.17,686.53,953.85,686.53,953.85Z" transform="translate(-69.83 -519.14)"/><path class="cls-17" d="M697.51,956.2c0,1.53,1.8,4.47,3,4.32s8.72-4.43,8.52-6.17c-.12-1-2.66-3.06-3.69-2.63S697.51,954.66,697.51,956.2Z" transform="translate(-69.83 -519.14)"/><path class="cls-18" d="M693,986.71a4.75,4.75,0,0,0-5.21-1.6l-.67-1.88a6.69,6.69,0,0,1,7.47,2.28l-1.6,1.2.8-.6Z" transform="translate(-69.83 -519.14)"/><path class="cls-14" d="M693.34,992.06v19.45q7.15,14.5,18.39,10.37l-.37-13.72c-7.3-2.36-14.63-12.89-16.86-16.31C694.1,991.94,693.72,992,693.34,992.06Z" transform="translate(-69.83 -519.14)"/><path class="cls-18" d="M711.36,1008.16c-4.1-1.33-8.22-5.24-11.43-9,0,0,1,9.49,11.8,15.44l-.37-6.42Z" transform="translate(-69.83 -519.14)"/><path class="cls-14" d="M860.34,1115.17s21.91-5,21.17-3-7.49,3.7-7.49,3.7l1.76,3.25s15.79,2.7,16,4.94-13.49,0-13.49,0,11.37,3.61,12.49,6.34-13.3-1.48-13.3-1.48,9.88,3.73,9.74,5.72-25.45-1.74-25.45-1.74Z" transform="translate(-69.83 -519.14)"/><rect class="cls-8" x="728.49" y="1039.03" width="157.05" height="126.68" transform="translate(1544.2 1685.6) rotate(180)"/><rect class="cls-9" x="807.01" y="1039.03" width="78.52" height="126.68" transform="translate(1622.72 1685.6) rotate(180)"/><rect class="cls-8" x="867.33" y="1119.86" width="18.21" height="10.88" transform="translate(1683.04 1731.45) rotate(180)"/><rect class="cls-6" x="728.49" y="1057.68" width="18.21" height="8.55" transform="translate(1405.36 1604.77) rotate(180)"/><path class="cls-14" d="M717,1120.34s21.91-5,21.17-3-7.49,3.7-7.49,3.7l1.75,3.25s15.8,2.7,16,5-13.49-.06-13.49-.06,11.37,3.61,12.49,6.35-13.3-1.49-13.3-1.49,9.88,3.74,9.74,5.72-25.45-1.73-25.45-1.73Z" transform="translate(-69.83 -519.14)"/><polygon class="cls-14" points="511.54 873.52 515.19 865.23 535.55 879.79 531.34 886.32 511.54 873.52"/></svg>