<svg xmlns="http://www.w3.org/2000/svg" viewBox="0 0 517.97 534.55"><defs><style>.cls-1{fill:#f0f3fc;}.cls-2{fill:#393768;}.cls-3{fill:#adadea;}.cls-4{fill:#9accd8;}.cls-5{fill:#cce9f1;}.cls-6{fill:#8383ba;}.cls-7{fill:#e6e9f8;}.cls-8{fill:#7c7cc1;}.cls-9{fill:#9494ed;}.cls-10{fill:#bac2e0;}.cls-11{fill:#8dc5ce;}.cls-12{fill:#83d7ea;}.cls-13{fill:#48488c;}.cls-14{fill:#85b3ba;}.cls-15{fill:#a8cfef;}.cls-16{fill:#7da8c6;}.cls-17{fill:#6499bc;}.cls-18{fill:#edb6a4;}.cls-19{opacity:0.1;}.cls-20{fill:#6a6ae5;}</style></defs><title>Asset 1</title><g id="Layer_2" data-name="Layer 2"><g id="Object"><g id="Pressure_Meter" data-name="Pressure Meter"><path class="cls-1" d="M63.41,421.35C-18.52,442-17,471.17,44.78,483.44c90.59,18,119.85,65.81,225.07,46.67,87.71-16,48-60.88,116.83-63.16S420,424.41,328.36,414C223.41,402.16,144.87,400.81,63.41,421.35Z"/><path class="cls-1" d="M451.87,209.18C490.38,297.49,350,396.08,263.66,397,110.73,398.51,22.5,286.24,9.31,200.9-15,43.5,205.07-4.38,265.67,57.13,389,182.28,417.35,130,451.87,209.18Z"/><circle class="cls-1" cx="386.16" cy="109.16" r="21.54"/><circle class="cls-1" cx="444.54" cy="72.3" r="9.66"/><path class="cls-1" d="M391.78,40c.73,7.92-2.39,17.14-6,22.91a32.81,32.81,0,0,1-3.31,4.46,29.47,29.47,0,0,1-20.05,9.92c-8.2.49-15.25-3.06-20.58-9.17a38.41,38.41,0,0,1-8.71-18.5c-2.11-12.1,2.45-23.48,8.28-33.85,2.58-4.6,10-17.65,16.95-15.57,3.75,1.12,5,7.38,6.52,10.49,4.43,9,11.66,12,19.7,16.84C389.23,30.31,391.31,34.89,391.78,40Z"/><path class="cls-2" d="M263.16,348.1h0a1.81,1.81,0,0,1,0-3.62h46.72a12.49,12.49,0,0,0,5.81-1.38,1.86,1.86,0,0,1,2.39.87,1.41,1.41,0,0,1,.22.8,1.85,1.85,0,0,1-1,1.59A16.22,16.22,0,0,1,310,348.1ZM322,342a2,2,0,0,1-1.09-.37,1.84,1.84,0,0,1-.36-2.54,13.54,13.54,0,0,0,2.61-7.9v-5.15a1.87,1.87,0,0,1,1.81-1.6,1.9,1.9,0,0,1,1.82,1.81v4.94a16.64,16.64,0,0,1-3.34,10A1.76,1.76,0,0,1,322,342Zm3-21.19a1.8,1.8,0,0,1-1.81-1.81V261a1.84,1.84,0,0,1,1.81-1.81,1.9,1.9,0,0,1,1.82,1.81V319A1.85,1.85,0,0,1,325,320.82Z"/><path class="cls-2" d="M431.7,303.34h-21a1.89,1.89,0,0,1-1.81-1.82,1.84,1.84,0,0,1,1.81-1.81h21a9.32,9.32,0,0,0,9.22-9.21V270.69a1.78,1.78,0,0,1,1.81-1.74,1.83,1.83,0,0,1,1.81,1.74c0,.14,0,.21-.07.29V290.5A12.85,12.85,0,0,1,431.7,303.34Zm-28.22,0H388.9a1.9,1.9,0,0,1-1.82-1.82,1.84,1.84,0,0,1,1.82-1.81h14.58a1.78,1.78,0,0,1,1.74,1.81A1.83,1.83,0,0,1,403.48,303.34Zm-21.84,0H352.76a12.87,12.87,0,0,1-12.84-12.84V278.67a1.82,1.82,0,0,1,3.63,0V290.5a9.22,9.22,0,0,0,9.21,9.21h28.88a1.8,1.8,0,0,1,1.81,1.81,1.83,1.83,0,0,1-1.67,1.82Zm-39.9-30.11a1.8,1.8,0,0,1-1.82-1.81V261a1.8,1.8,0,0,1,1.82-1.81,1.84,1.84,0,0,1,1.81,1.81v10.46A1.8,1.8,0,0,1,341.74,273.23Zm101-8a1.79,1.79,0,0,1-1.81-1.82V248.92a1.84,1.84,0,0,1,1.81-1.81,1.89,1.89,0,0,1,1.81,1.81v14.51A1.84,1.84,0,0,1,442.73,265.25Zm0-21.7a1.81,1.81,0,0,1-1.81-1.88V203.72a9.32,9.32,0,0,0-9.22-9.21h-2.76a1.82,1.82,0,0,1,0-3.63h2.76a12.8,12.8,0,0,1,12.77,12.84l.07,37.95A1.91,1.91,0,0,1,442.73,243.55Z"/><path class="cls-3" d="M396.22,236H385.67a4,4,0,0,1-4-4h0a4,4,0,0,1,4-4h10.55a12.36,12.36,0,0,0,12.36-12.36V103.77h7.92V215.68A20.28,20.28,0,0,1,396.22,236Z"/><circle class="cls-4" cx="413.08" cy="101.6" r="15.87"/><circle class="cls-5" cx="410.99" cy="102.23" r="15.87" transform="translate(6.05 226.28) rotate(-31)"/><path class="cls-2" d="M409.45,100.69l7.09-5.06a.75.75,0,0,1,1,1.05l-5.06,7.09a2.21,2.21,0,0,1-3.6-2.56A2.33,2.33,0,0,1,409.45,100.69Z"/><path class="cls-4" d="M412.11,90.08A1.12,1.12,0,1,1,411,89,1.12,1.12,0,0,1,412.11,90.08Z"/><path class="cls-4" d="M405.89,91.15a1.12,1.12,0,1,1-1.53-.41A1.12,1.12,0,0,1,405.89,91.15Z"/><path class="cls-4" d="M401,95.19a1.12,1.12,0,0,1-1.12,1.94,1.13,1.13,0,0,1-.41-1.53A1.12,1.12,0,0,1,401,95.19Z"/><path class="cls-4" d="M398.85,101.11a1.12,1.12,0,1,1-1.12,1.12A1.12,1.12,0,0,1,398.85,101.11Z"/><path class="cls-4" d="M399.91,107.34a1.12,1.12,0,1,1-.41,1.52A1.11,1.11,0,0,1,399.91,107.34Z"/><path class="cls-4" d="M404,112.19a1.12,1.12,0,1,1,.41,1.53A1.12,1.12,0,0,1,404,112.19Z"/><path class="cls-4" d="M423.14,103.35a1.12,1.12,0,1,1,1.12-1.12A1.12,1.12,0,0,1,423.14,103.35Z"/><path class="cls-4" d="M422.07,97.13a1.12,1.12,0,1,1,.41-1.53A1.13,1.13,0,0,1,422.07,97.13Z"/><path class="cls-4" d="M418,92.27a1.12,1.12,0,1,1-.41-1.53A1.13,1.13,0,0,1,418,92.27Z"/><circle class="cls-4" cx="413.08" cy="147.14" r="15.87"/><circle class="cls-5" cx="410.99" cy="147.77" r="15.87" transform="translate(-17.4 232.78) rotate(-31)"/><path class="cls-2" d="M408.74,149.16l-2.9-8.21a.75.75,0,0,1,1.29-.72l5.43,6.82a2.21,2.21,0,0,1-3.46,2.75A2.27,2.27,0,0,1,408.74,149.16Z"/><path class="cls-4" d="M412.11,135.62a1.12,1.12,0,0,1-2.24,0,1.12,1.12,0,0,1,2.24,0Z"/><path class="cls-4" d="M405.89,136.69a1.12,1.12,0,1,1-1.53-.41A1.12,1.12,0,0,1,405.89,136.69Z"/><path class="cls-4" d="M401,140.73a1.11,1.11,0,0,1,.41,1.53,1.12,1.12,0,1,1-1.94-1.12A1.12,1.12,0,0,1,401,140.73Z"/><path class="cls-4" d="M398.85,146.65a1.12,1.12,0,1,1-1.12,1.12A1.12,1.12,0,0,1,398.85,146.65Z"/><path class="cls-4" d="M399.91,152.88a1.12,1.12,0,1,1-.41,1.52A1.12,1.12,0,0,1,399.91,152.88Z"/><path class="cls-4" d="M404,157.73a1.12,1.12,0,1,1,.41,1.53A1.12,1.12,0,0,1,404,157.73Z"/><path class="cls-4" d="M423.14,148.89a1.12,1.12,0,1,1,1.12-1.12A1.12,1.12,0,0,1,423.14,148.89Z"/><path class="cls-4" d="M422.07,142.67a1.13,1.13,0,0,1-1.53-.41,1.12,1.12,0,1,1,1.53.41Z"/><path class="cls-4" d="M418,137.81a1.12,1.12,0,1,1-.41-1.53A1.13,1.13,0,0,1,418,137.81Z"/><circle class="cls-4" cx="413.08" cy="192.68" r="15.87"/><circle class="cls-5" cx="410.99" cy="193.31" r="15.87" transform="translate(-40.86 239.29) rotate(-31)"/><path class="cls-2" d="M411.4,195.51l-8.69-.68a.75.75,0,0,1-.12-1.48l8.43-2.18a2.21,2.21,0,0,1,1.11,4.28A2.3,2.3,0,0,1,411.4,195.51Z"/><path class="cls-4" d="M412.11,181.16A1.12,1.12,0,1,1,411,180,1.12,1.12,0,0,1,412.11,181.16Z"/><path class="cls-4" d="M405.89,182.23a1.12,1.12,0,1,1-1.53-.41A1.12,1.12,0,0,1,405.89,182.23Z"/><path class="cls-4" d="M401,186.27a1.11,1.11,0,0,1,.41,1.53,1.12,1.12,0,1,1-1.94-1.12A1.12,1.12,0,0,1,401,186.27Z"/><path class="cls-4" d="M398.85,192.19a1.12,1.12,0,1,1-1.12,1.12A1.12,1.12,0,0,1,398.85,192.19Z"/><path class="cls-4" d="M399.91,198.41a1.13,1.13,0,0,1,1.53.41,1.12,1.12,0,0,1-1.94,1.12A1.13,1.13,0,0,1,399.91,198.41Z"/><path class="cls-4" d="M404,203.27a1.12,1.12,0,1,1,.41,1.53A1.11,1.11,0,0,1,404,203.27Z"/><path class="cls-4" d="M423.14,194.43a1.12,1.12,0,1,1,1.12-1.12A1.12,1.12,0,0,1,423.14,194.43Z"/><path class="cls-4" d="M422.07,188.21a1.13,1.13,0,0,1-1.53-.41,1.12,1.12,0,1,1,1.53.41Z"/><path class="cls-4" d="M418,183.35a1.12,1.12,0,1,1-.41-1.53A1.13,1.13,0,0,1,418,183.35Z"/><circle class="cls-6" cx="337.39" cy="211.59" r="51.56" transform="translate(-44.5 98.62) rotate(-15.61)"/><circle class="cls-3" cx="332.13" cy="213.49" r="51.56"/><circle class="cls-7" cx="332.13" cy="213.49" r="42.37"/><rect class="cls-8" x="330.24" y="176.29" width="3.79" height="7.17"/><rect class="cls-9" x="313.43" y="180.79" width="3.79" height="7.17" transform="translate(-49.94 182.37) rotate(-30)"/><rect class="cls-8" x="301.12" y="193.1" width="3.79" height="7.17" transform="translate(-18.82 360.76) rotate(-60)"/><rect class="cls-9" x="296.62" y="209.9" width="3.79" height="7.17" transform="translate(85.03 512) rotate(-90)"/><rect class="cls-8" x="301.12" y="226.71" width="3.79" height="7.17" transform="translate(255.08 607.87) rotate(-120)"/><rect class="cls-8" x="359.35" y="226.71" width="3.79" height="7.17" transform="translate(741.31 32.6) rotate(120)"/><rect class="cls-9" x="363.86" y="209.9" width="3.79" height="7.17" transform="translate(579.24 -152.26) rotate(90)"/><rect class="cls-8" x="359.35" y="193.1" width="3.79" height="7.17" transform="translate(350.95 -214.51) rotate(60)"/><rect class="cls-9" x="347.05" y="180.79" width="3.79" height="7.17" transform="translate(138.94 -149.77) rotate(30)"/><path class="cls-9" d="M328.88,210.24l18.84-14.78a1.74,1.74,0,0,1,2.44,2.44l-14.78,18.84A4.63,4.63,0,1,1,328.1,211,4.8,4.8,0,0,1,328.88,210.24Z"/><path class="cls-10" d="M324.87,239.35h14.52a4.43,4.43,0,0,1,4.43,4.43v4.83a0,0,0,0,1,0,0H320.44a0,0,0,0,1,0,0v-4.83A4.43,4.43,0,0,1,324.87,239.35Z"/><path class="cls-5" d="M272.29,119.88V431.57c0,11.49-46.74,20.82-104.44,20.82S63.41,443.06,63.41,431.57V119.88Z"/><ellipse class="cls-11" cx="167.85" cy="119.28" rx="104.44" ry="20.83"/><path class="cls-5" d="M167.85,85.73c-26.14,0-47.33,4.23-47.33,9.44-1,0,0,6.8,0,6.8,0,5.22,21.19,9.44,47.33,9.44s47.33-4.22,47.33-9.44v-6.8C215.18,90,194,85.73,167.85,85.73Z"/><path class="cls-12" d="M167.62,185.55a3.26,3.26,0,0,1-3.26-3.26v-6.53a3.26,3.26,0,1,1,6.52,0v6.53A3.26,3.26,0,0,1,167.62,185.55Z"/><path class="cls-12" d="M167.62,272.52a3.26,3.26,0,0,1-3.26-3.27V241.58a3.26,3.26,0,1,1,6.52,0v27.67A3.26,3.26,0,0,1,167.62,272.52Zm0-35.58a3.26,3.26,0,0,1-3.26-3.26V210a3.26,3.26,0,1,1,6.52,0v23.72A3.26,3.26,0,0,1,167.62,236.94Z"/><path class="cls-12" d="M167.62,391.11a3.26,3.26,0,0,1-3.26-3.26V360.17a3.26,3.26,0,1,1,6.52,0v27.68A3.26,3.26,0,0,1,167.62,391.11Zm0-35.58a3.26,3.26,0,0,1-3.26-3.26V328.55a3.26,3.26,0,1,1,6.52,0v23.72A3.26,3.26,0,0,1,167.62,355.53Zm0-51.39a3.26,3.26,0,0,1-3.26-3.26V293a3.26,3.26,0,1,1,6.52,0v7.91A3.26,3.26,0,0,1,167.62,304.14Z"/><path class="cls-12" d="M167.62,421.35a3.26,3.26,0,0,1-3.26-3.26v-6.53a3.26,3.26,0,0,1,6.52,0v6.53A3.26,3.26,0,0,1,167.62,421.35Z"/><path class="cls-12" d="M114,205.13a3.26,3.26,0,0,1-3.27-3.26v-6.53a3.27,3.27,0,0,1,6.53,0v6.53A3.26,3.26,0,0,1,114,205.13Z"/><path class="cls-12" d="M114,294.62a3.28,3.28,0,0,1-3.27-3.26V252.19a3.27,3.27,0,0,1,6.53,0v39.17A3.27,3.27,0,0,1,114,294.62Zm0-50.32a3.28,3.28,0,0,1-3.27-3.27,3.27,3.27,0,0,1,6.53,0A3.28,3.28,0,0,1,114,244.3Z"/><path class="cls-12" d="M114,395.27a3.28,3.28,0,0,1-3.27-3.26V352.85a3.27,3.27,0,1,1,6.53,0V392A3.27,3.27,0,0,1,114,395.27ZM114,345a3.28,3.28,0,0,1-3.27-3.27,3.27,3.27,0,0,1,6.53,0A3.28,3.28,0,0,1,114,345Zm0-39.17a3.28,3.28,0,0,1-3.27-3.26V291.36a3.27,3.27,0,1,1,6.53,0v11.16A3.27,3.27,0,0,1,114,305.78Z"/><path class="cls-12" d="M114,401.77a3.26,3.26,0,0,1-3.27-3.26V392a3.27,3.27,0,0,1,6.53,0v6.53A3.26,3.26,0,0,1,114,401.77Z"/><path class="cls-12" d="M221.24,205.13a3.26,3.26,0,0,1-3.26-3.26v-6.53a3.27,3.27,0,0,1,6.53,0v6.53A3.26,3.26,0,0,1,221.24,205.13Z"/><path class="cls-12" d="M221.24,294.62a3.27,3.27,0,0,1-3.26-3.26V252.19a3.27,3.27,0,0,1,6.53,0v39.17A3.28,3.28,0,0,1,221.24,294.62Zm0-50.32A3.28,3.28,0,0,1,218,241a3.27,3.27,0,0,1,6.53,0A3.28,3.28,0,0,1,221.24,244.3Z"/><path class="cls-12" d="M221.24,395.27a3.28,3.28,0,0,1-3.26-3.33V352.85a3.27,3.27,0,1,1,6.53,0v39.09A3.29,3.29,0,0,1,221.24,395.27Zm0-50.32a3.27,3.27,0,0,1-3.26-3.27,3.27,3.27,0,0,1,6.53,0A3.28,3.28,0,0,1,221.24,345Zm0-39.17a3.27,3.27,0,0,1-3.26-3.26V291.36a3.27,3.27,0,1,1,6.53,0v11.16A3.28,3.28,0,0,1,221.24,305.78Z"/><path class="cls-12" d="M221.24,401.77a3.26,3.26,0,0,1-3.26-3.26V392a3.27,3.27,0,0,1,6.53,0v6.53A3.26,3.26,0,0,1,221.24,401.77Z"/><rect class="cls-13" x="13.37" y="153.37" width="39.64" height="7.72"/><rect class="cls-13" x="26.44" y="175.16" width="26.57" height="7.72"/><rect class="cls-13" x="26.44" y="196.96" width="26.57" height="7.72"/><rect class="cls-13" x="13.37" y="218.75" width="39.64" height="7.72"/><rect class="cls-13" x="26.44" y="240.54" width="26.57" height="7.72"/><rect class="cls-13" x="26.44" y="262.34" width="26.57" height="7.72"/><rect class="cls-13" x="13.37" y="284.13" width="39.64" height="7.72"/><rect class="cls-13" x="26.44" y="305.92" width="26.57" height="7.72"/><rect class="cls-13" x="26.44" y="327.72" width="26.57" height="7.72"/><rect class="cls-13" x="13.37" y="349.51" width="39.64" height="7.72"/><rect class="cls-13" x="26.44" y="371.3" width="26.57" height="7.72"/><rect class="cls-13" x="26.44" y="393.1" width="26.57" height="7.72"/><rect class="cls-14" x="361.47" y="275.68" width="60.42" height="47.81" rx="3.86"/><path class="cls-2" d="M432.89,286.14a4.88,4.88,0,0,0-4.8,5,5.19,5.19,0,0,0,.41,2l-9.68,13a2.44,2.44,0,0,0,.41,3.35,2.24,2.24,0,0,0,3.23-.43l9.74-13.05a4.22,4.22,0,0,0,.69.14,5,5,0,0,0,0-9.94Z"/><rect class="cls-5" x="359.85" y="276.64" width="60.42" height="47.81" rx="3.86"/><rect class="cls-15" x="364.62" y="281.9" width="35.97" height="37.29" rx="2.63"/><rect class="cls-16" x="406.09" y="285.92" width="10.24" height="7.52" rx="3.69"/><path class="cls-17" d="M395.16,286.45a2.44,2.44,0,1,1-2.44-2.43A2.44,2.44,0,0,1,395.16,286.45Z"/><path class="cls-18" d="M476.29,454.44l.42,2.66c.75.38.8.72,1.19,1.55a5.76,5.76,0,0,1,.62,2.75L465,459l4.36-2.3,1.22-1.66Z"/><path class="cls-7" d="M469.14,456.71c-2.77,1.29-5.49.07-7.36,1.68a2.76,2.76,0,0,0-.72,3.86c2.72,1.28,11,3.59,17.23,2.21,1.86-.43.6-5.87-.54-6.92l-1.25-.79c.67.79,1.26,1.48.05,2.29-2.5.63-5.2.77-7.32-.63C469.17,457.75,469.74,457.29,469.14,456.71Z"/><path class="cls-19" d="M461.06,462.26c2.73,1.26,11,3.57,17.22,2.19,1-.23,1.12-2,.77-3.8a3.18,3.18,0,0,1-.53.31,5.36,5.36,0,0,1-.63.32,14,14,0,0,1-2.35.92,8,8,0,0,1-5.23-.14,14.4,14.4,0,0,0-1.64-.68,9.36,9.36,0,0,0-2.49-.19,14.93,14.93,0,0,1-3.49-.6,9.3,9.3,0,0,0-1.85-.48,1.62,1.62,0,0,0-.22,0A2.35,2.35,0,0,0,461.06,462.26Z"/><path class="cls-18" d="M513.94,455.09l.78,2.58c.79.28.88.61,1.38,1.38a5.66,5.66,0,0,1,1,2.64l-13.71-.64,4-2.85,1-1.81Z"/><path class="cls-7" d="M507.15,458.28c-2.57,1.65-5.43.79-7.07,2.64a2.75,2.75,0,0,0-.2,3.92c2.87.91,11.4,2.11,17.37-.09,1.79-.67-.17-5.89-1.45-6.78l-1.34-.63c.77.7,1.45,1.31.35,2.27-2.39.95-5,1.46-7.34.34C507.33,459.31,507.83,458.77,507.15,458.28Z"/><path class="cls-19" d="M499.89,464.86c2.86.88,11.38,2.07,17.35-.12,1-.37.85-2.17.26-3.86a3.41,3.41,0,0,1-.48.37,5.74,5.74,0,0,1-.58.41,15.32,15.32,0,0,1-2.21,1.22,8.06,8.06,0,0,1-5.21.55,15.73,15.73,0,0,0-1.71-.46,9.53,9.53,0,0,0-2.49.14,14.49,14.49,0,0,1-3.54-.13,9.15,9.15,0,0,0-1.9-.23h-.22A2.38,2.38,0,0,0,499.89,464.86Z"/><path class="cls-2" d="M516.3,454.76c-2.8,2.08-7.08,2.46-11.22,2.64-5.32-12.08-18-42.76-17.7-49.17-1.45-5.66,2.21-24,3.5-34.82l.81-11.84,13.16,0c4.24,13.67-.37,34-2.16,43.07Z"/><path class="cls-2" d="M493.71,362c.06,12.09-5,38.06-11.72,46.53L479.06,456c-4-.22-8.15.16-10.49-1.87-.15-16.34-3.19-35.06-2.66-48,.12-10.5,5.73-30.37,9.49-44.42Z"/><path class="cls-5" d="M506.06,363.92c-6.9,6.28-16.55,3.81-27.56,1.31v0c-.83-.17-2.85-1.16-3.71-1.4-2.65-7-2.83-17.32-3.56-30.49v-.07c-.33-5.57-.54-11.5-.67-17.64a58.81,58.81,0,0,1,24.64-10C505.87,311.19,506.66,343.58,506.06,363.92Z"/><path class="cls-18" d="M479.65,310.25a12.1,12.1,0,0,0,9-3.14c-1.41-1.67-2.94-5.14-4.47-8.69l-6,1.92C479.11,304.24,480,308,479.65,310.25Z"/><path class="cls-19" d="M479.05,304.12c.14.7.28,1.4.39,2.06a.27.27,0,0,0,.17,0c.7,0,1.19.5,1.82.25s1.1-.71,1.77-.47c.38.18,1,0,1.31.29a7.1,7.1,0,0,0,2.59,2.06,9,9,0,0,0,1.57-1.26,20.21,20.21,0,0,1-2.58-4.51c-.35,0-.67.07-1,.1a39.91,39.91,0,0,0-5.91,1.4S479.09,304.12,479.05,304.12Z"/><path class="cls-18" d="M474.51,303.36c1.15,2.81,6.88,3.26,12.36,1.17,1.57-.61,3.47-4.56,5.64-8.31l-5.33-12.78L477,284C472.75,289.82,472.33,296.35,474.51,303.36Z"/><path class="cls-19" d="M473.38,292.82a10.79,10.79,0,0,0,3.15,1.78c2.49.95,5.25.91,7.77,1.72a10.53,10.53,0,0,0,2.8.77,7.25,7.25,0,0,0,3.67-1.37,2.17,2.17,0,0,0,.81-.7,1.5,1.5,0,0,0,.17-.66l-2.66-6.3a10.64,10.64,0,0,0-1.29-.6,21.51,21.51,0,0,0-6.12-1,15.44,15.44,0,0,0-6.79,1.16A18.41,18.41,0,0,0,473.38,292.82Z"/><path class="cls-7" d="M473.62,285.84c-1.46,4,3.48,6.77,5.61,7.14a3,3,0,0,1,2.26,4.2l.68.48s.49-3,1.51-2.2,1.88,1,1,3.11-1.19,5.44,2.22,6,3.8-2.89,5.06-3.88,2.24-3.45,1.12-5.14a6.23,6.23,0,0,1-.69-5.36c.53-1.66-.58-5.88-2.14-6.31s-2.16-.23-4.1-1.25-2.33-2.51-5.35-1.36C477.34,282.54,473.71,282.35,473.62,285.84Z"/><path class="cls-18" d="M435.7,300.35l-4.54,2.28-1-2.44a8.75,8.75,0,0,1-1.94-1.77c-.25-1.29-1.31-2.92-1.08-4.2.32-.71-1-2.78.13-3.74a4.43,4.43,0,0,1,3.66-1.41,4.25,4.25,0,0,1,2.54.84c1,1.54,0,1.34.51,3.39a4.29,4.29,0,0,1,1.25-1.72,1.1,1.1,0,0,1,1,.91,25.59,25.59,0,0,1-1.11,6.47Z"/><path class="cls-18" d="M431.16,302.63c4.27,7,9.62,15.9,14.1,21.32,0-.07,1.32-.53.45-.39l5.47-6.73.69-.7-16.41-16.35A11.66,11.66,0,0,1,431.16,302.63Z"/><path class="cls-5" d="M444.7,323.91c.84,1,1.68,1.93,2.48,2.77a25.52,25.52,0,0,0,3.5,3c5.67,3.25,13.57,2.66,21.83,3.74l-2-17.77-14.73,3.67-1.12-1.08-2.83-2.76,0,0-7,8.22A.64.64,0,0,0,444.7,323.91Z"/><path class="cls-20" d="M444.8,324.93l1.09,1.47a1,1,0,0,0,1.29.28,1.38,1.38,0,0,0,.25-.21l7.27-8.26.63-.74a1,1,0,0,0-.42-1.57l-2-.7a1,1,0,0,0-1.05.25l0,0-7,8.22a.64.64,0,0,0-.14.21A1,1,0,0,0,444.8,324.93Z"/><path class="cls-20" d="M472.51,290.33c7.66,3.4,16.79,6.93,21,5.85s3-15.71-9.06-17c-6.3-.63-10.64,1.85-12.6,4.69C463.55,282.64,467.72,288.41,472.51,290.33Z"/><path class="cls-19" d="M448.89,328.26a16.82,16.82,0,0,0,1.79,1.4c5.35,3.08,12.73,2.69,20.54,3.6v0c.73,13.19.91,23.51,3.56,30.51.88.24,2.87,1.22,3.71,1.4v0c7.21,1.61,13.86,3.25,19.49,2.42a68.23,68.23,0,0,0-6.54-2.28c-3.33-1-6.79-1.75-9.8-3.57s-5.42-5-5.28-8.43c.07-2.17,1.15-4.2,1.57-6.33a24.22,24.22,0,0,0-.1-7.11,17.13,17.13,0,0,1,.24-7.06c.74-2.24,2.56-4.34,4.9-4.62L472.13,330h-.07a8.56,8.56,0,0,1-1,.14,50.88,50.88,0,0,1-8.05.91,30.77,30.77,0,0,1-11.37-2A8.16,8.16,0,0,0,448.89,328.26Z"/><path class="cls-20" d="M470.89,315.14s5.72,7.5-.55,20c0,0,.49,27.73,4.75,32.46,0,0,24.44,9.53,33.51-.78,1.06-3.52-.36-61.16-14-61.22-3,.05-5.57-.17-5.4.63s1.38,2.36-.46,3.17-9.43,3.95-11.15,1.4C477,309.92,470.26,313.59,470.89,315.14Z"/><path class="cls-7" d="M494.8,314.35l-10.35,2.26s.52,2.73,1.19,2.68S496,317.2,496,317.2Z"/><path class="cls-18" d="M249.68,456.4l-1.11,2.52c-.84.18-1,.5-1.57,1.22a5.85,5.85,0,0,0-1.32,2.55l14,1.07-3.71-3.38-.77-2Z"/><path class="cls-3" d="M256.15,460.48c2.4,2,5.4,1.48,6.83,3.55a2.81,2.81,0,0,1-.29,4c-3,.56-11.8.71-17.57-2.26-1.72-.9.92-5.94,2.31-6.68l1.45-.47c-.87.61-1.63,1.14-.64,2.26,2.29,1.25,4.93,2.09,7.38,1.25C255.84,461.5,255.4,460.89,256.15,460.48Z"/><path class="cls-18" d="M286.05,456.49l-.1,2.74c-.72.48-.72.83-1,1.72a5.71,5.71,0,0,0-.3,2.85L298,459.68l-4.69-1.79-1.44-1.54Z"/><path class="cls-3" d="M293.57,457.9c3,1,5.56-.6,7.65.8a2.81,2.81,0,0,1,1.2,3.82c-2.6,1.64-10.71,5-17.17,4.35-1.93-.2-1.33-5.86-.3-7.06l1.17-1c-.59.88-1.1,1.65.23,2.33,2.6.32,5.36.14,7.33-1.54C293.66,459,293,458.57,293.57,457.9Z"/><path class="cls-2" d="M246.64,456.4c2.86,2.12,7.22,2.51,11.43,2.7,4.62-13.3,14.82-38.65,15.33-44.22,1.47-5.77.47-21.55-.84-32.55l-.83-12.08-13.42,0c-4.32,13.94-2.55,32.54-.73,41.83Z"/><path class="cls-19" d="M273.42,414.87c-.29,2.64-2.68,9.67-5.6,17.77a68.93,68.93,0,0,1,2.81-15.2,34.61,34.61,0,0,0,1.68-6.49c.68-5.85-2.14-17.23-.78-23,.32-1.28.85-2.53,1.24-3.82C274,394.47,274.81,409.42,273.42,414.87Z"/><path class="cls-2" d="M269.67,370.72c-.05,12.33,3.09,30.29,11.95,45.68l3,41.25c4.07-.22,8.32.17,10.7-1.9l2-41.71c1.28-13.06-4.66-30.69-9-43.62Z"/><path class="cls-5" d="M257.08,372.65c7,6.4,16.88,3.89,28.11,1.33v0c.84-.18,2.9-1.19,3.78-1.43,2.7-7.13,2.89-17.67,3.63-31.09v-.08c.34-5.67.55-11.73.69-18a60,60,0,0,0-25.12-10.15C257.28,318.88,256.47,351.91,257.08,372.65Z"/><path class="cls-18" d="M284,317.92a12.37,12.37,0,0,1-9.22-3.2c1.44-1.71,3-5.25,4.57-8.86l6.15,1.95C284.56,311.79,283.68,315.67,284,317.92Z"/><path class="cls-19" d="M284.62,311.67c-.14.71-.29,1.42-.39,2.1a.3.3,0,0,1-.18,0c-.71,0-1.21.51-1.86.26s-1.12-.73-1.8-.48c-.39.18-1.05,0-1.34.29a7.1,7.1,0,0,1-2.64,2.1,9.87,9.87,0,0,1-1.6-1.28,20.94,20.94,0,0,0,2.64-4.6c.36,0,.68.07,1,.1a40,40,0,0,1,6,1.43S284.58,311.67,284.62,311.67Z"/><path class="cls-18" d="M289.25,310.89c-1.17,2.87-7,3.32-12.6,1.19-1.6-.61-3.54-4.64-5.75-8.47l5.43-13,10.37.57C291.05,297.09,291.47,303.75,289.25,310.89Z"/><path class="cls-19" d="M290.4,300.14a10.65,10.65,0,0,1-3.21,1.82c-2.53,1-5.35.93-7.92,1.75a10.61,10.61,0,0,1-2.86.79,7.47,7.47,0,0,1-3.74-1.4,2.15,2.15,0,0,1-.82-.71,1.44,1.44,0,0,1-.18-.68l2.71-6.42a11.1,11.1,0,0,1,1.32-.61,22,22,0,0,1,6.24-1,15.63,15.63,0,0,1,6.93,1.17A18.86,18.86,0,0,1,290.4,300.14Z"/><path class="cls-2" d="M290.16,293c1.49,4-3.55,6.9-5.73,7.28a3,3,0,0,0-2.3,4.29l-.69.48s-.49-3-1.54-2.24-1.91,1-1,3.16,1.22,5.56-2.26,6.08-3.87-2.94-5.17-3.95-2.27-3.51-1.13-5.24a6.41,6.41,0,0,0,.71-5.47c-.55-1.69.58-6,2.18-6.44s2.19-.22,4.17-1.27,2.38-2.56,5.45-1.39C286.37,289.66,290.07,289.47,290.16,293Z"/><path class="cls-18" d="M328.13,308.41l4.55,3,.77-1.22a8.7,8.7,0,0,0,2.47-1c.69-1.15,2.26-2.35,2.48-3.65-.06-.8,1.89-2.34,1.18-3.64a4.54,4.54,0,0,0-3-2.61,4.21,4.21,0,0,0-2.72-.07c-1.46,1.14-.44,1.29-1.66,3.07a4.28,4.28,0,0,0-.61-2.08,1.13,1.13,0,0,0-1.31.51,26.27,26.27,0,0,0-1.16,6.59Z"/><path class="cls-18" d="M333.45,310.15c-4.35,7.1-9.8,16.21-14.37,21.74,0-.07-1.35-.54-.46-.4L313,324.63l-.7-.72,16.74-16.67A11.87,11.87,0,0,0,333.45,310.15Z"/><path class="cls-5" d="M319.65,331.85c-.85,1-1.71,2-2.53,2.82a25.85,25.85,0,0,1-3.57,3c-5.78,3.32-13.84,2.71-22.26,3.82l2-18.12,15,3.74,1.14-1.1,2.89-2.82,0,0,7.14,8.39A.64.64,0,0,1,319.65,331.85Z"/><path class="cls-20" d="M319.55,332.89l-1.11,1.49a1,1,0,0,1-1.32.29,1.38,1.38,0,0,1-.25-.21L309.45,326l-.64-.75a1,1,0,0,1,.43-1.61l2-.71a1,1,0,0,1,1.07.25l0,0,7.14,8.39a.64.64,0,0,1,.14.21A1,1,0,0,1,319.55,332.89Z"/><path class="cls-20" d="M291.29,297.61c-7.81,3.46-17.12,7.06-21.44,6s-3-16,9.24-17.31c6.42-.64,10.85,1.9,12.84,4.79C300.42,289.76,296.18,295.65,291.29,297.61Z"/><path class="cls-19" d="M302.42,462.54c-2.6,1.6-10.7,5-17.16,4.32-1.07-.11-1.39-1.93-1.25-3.75a4,4,0,0,0,.57.25c.25.11.47.18.68.25a15.28,15.28,0,0,0,2.5.64,8.19,8.19,0,0,0,5.28-.78,15.71,15.71,0,0,1,1.57-.9,9.4,9.4,0,0,1,2.5-.49,15.3,15.3,0,0,0,3.46-1,9.69,9.69,0,0,1,1.82-.71c.07,0,.14,0,.21,0A2.38,2.38,0,0,1,302.42,462.54Z"/><path class="cls-19" d="M263.68,466a2.36,2.36,0,0,1-1,2c-3,.57-11.78.72-17.55-2.24-.75-.4-.68-1.57-.25-2.82.35.14.71.32,1,.46,1.61.75,3.25,1.39,4.92,2A17.68,17.68,0,0,0,253,466a15,15,0,0,0,2.5.14c1.82,0,3.6,0,5.42,0,.9,0,1.79-.11,2.68-.18Z"/><path class="cls-19" d="M315.37,336.28a14.4,14.4,0,0,1-1.82,1.43c-5.45,3.14-13,2.75-20.94,3.68v0c-.75,13.45-.93,24-3.64,31.11-.89.25-2.92,1.25-3.78,1.43v0c-7.35,1.65-14.13,3.32-19.87,2.47a68.2,68.2,0,0,1,6.67-2.32c3.39-1,6.92-1.79,10-3.64s5.53-5.07,5.39-8.6c-.07-2.21-1.18-4.28-1.61-6.46a24.77,24.77,0,0,1,.11-7.24,17.68,17.68,0,0,0-.25-7.21c-.75-2.28-2.61-4.42-5-4.71l11.06,1.82h.08c.32.07.67.11,1,.15a52.91,52.91,0,0,0,8.21.92,31.33,31.33,0,0,0,11.59-2A8.55,8.55,0,0,1,315.37,336.28Z"/><polygon class="cls-7" points="321.15 298.01 349.11 308.07 357.56 284.63 326.27 277.37 321.15 298.01"/><polygon class="cls-3" points="332.16 272.3 324.51 292.41 335.84 296.55 344.91 276.28 332.16 272.3"/><polygon class="cls-3" points="343.97 285.45 351.36 287.9 348.9 291.71 342.05 289.74 343.97 285.45"/><polygon class="cls-3" points="341.55 293.49 348.16 295.17 346.67 299.55 339.88 297.31 341.55 293.49"/><path class="cls-18" d="M336.85,303.69c1-.82,2.06-2.13,2.73-1.86.63,1.36.31,2.73-1.33,4.14Z"/><path class="cls-20" d="M292,322.81s-5.65,7.4.54,19.76c0,0-.48,27.36-4.68,32,0,0-24.12,9.4-33.07-.77-1.05-3.47.35-60.35,13.8-60.42,2.95,0,5.5-.16,5.33.62s-1.36,2.34.45,3.14,9.31,3.89,11,1.37C286,317.66,292.61,321.28,292,322.81Z"/><path class="cls-7" d="M268.39,322l10.21,2.23s-.51,2.69-1.17,2.64-10.22-2.06-10.22-2.06Z"/></g></g></g></svg>