<svg id="Object" xmlns="http://www.w3.org/2000/svg" viewBox="0 0 565.64 510.54"><defs><style>.cls-1{fill:#f0f3fc;}.cls-2{fill:#393768;}.cls-3{fill:#a8cfef;}.cls-4{fill:#e6e9f8;}.cls-5{fill:#cce9f1;}.cls-6{fill:#adadea;}.cls-7{fill:#9ccfdb;}.cls-8{opacity:0.1;}.cls-9{fill:#edb6a4;}.cls-10{fill:#6767b2;}.cls-11{fill:#8181cc;}</style></defs><title>1110 [Converted]</title><g id="Oil_Pump_Production" data-name="Oil Pump Production"><path class="cls-1" d="M825.52,604.31c-228.91-9.64-299.34,48.08-173.36,68.94,83.31,13.8-33.07,39.57-8.66,64.22,11.34,11.45,39.58,14.84,112.45,2.25s91.54-19.69,133.61-9.8c119.59,28.1,292.57-103.33,99.79-123C912,599.05,825.52,604.31,825.52,604.31Z" transform="translate(-526.16 -237.2)"/><path class="cls-1" d="M874.35,256.84c-84.16,75.24-248.17,52.64-248.17,136.79s87.25,194.8,182.56,192.92c95-1.93,152.49-113.27,186.38-190.31C1050.52,270.21,937.06,200.75,874.35,256.84Zm92.5,64.4c-1.32,13.33-10.84,24.21-24.21,24.21s-25-11.52-24.25-24.21c1.05-18.15,22.53-3.33,21.68-44.17C939.71,261.34,970.34,286.27,966.85,321.24Z" transform="translate(-526.16 -237.2)"/><path class="cls-2" d="M1018.56,538.7v64.18c0,3.14-10.51,5.73-23.45,5.73s-23.44-2.59-23.44-5.73V538.7Z" transform="translate(-526.16 -237.2)"/><ellipse class="cls-3" cx="468.94" cy="301.51" rx="23.44" ry="5.73"/><path class="cls-2" d="M1008.83,537.75v1c0,.53-1.73.95-3.89.95s-3.93-.42-3.93-.95v-1c0-.52,1.77-1,3.93-1S1008.83,537.23,1008.83,537.75Z" transform="translate(-526.16 -237.2)"/><path class="cls-4" d="M995.1,546.07c-9.31,0-25.08-1.55-25.08-7.37s15.77-7.36,25.08-7.36,25.08,1.55,25.08,7.36S1004.41,546.07,995.1,546.07Zm0-11.46c-13.41,0-21.33,2.7-21.81,4.14.48,1.35,8.4,4,21.81,4s21.16-2.64,21.79-4.1C1016.26,537.25,1008.37,534.61,995.1,534.61Z" transform="translate(-526.16 -237.2)"/><path class="cls-4" d="M995.1,569.19c-9.31,0-25.08-1.55-25.08-7.36a1.64,1.64,0,0,1,3.28,0c.47,1.39,8.39,4.09,21.8,4.09s21.33-2.7,21.81-4.14a1.61,1.61,0,0,1,1.63-1.61,1.65,1.65,0,0,1,1.64,1.66C1020.18,567.64,1004.41,569.19,995.1,569.19Z" transform="translate(-526.16 -237.2)"/><path class="cls-4" d="M995.1,592.32c-9.31,0-25.08-1.55-25.08-7.37a1.64,1.64,0,1,1,3.28,0c.47,1.4,8.39,4.09,21.8,4.09s21.33-2.69,21.81-4.13a1.62,1.62,0,0,1,1.63-1.62,1.66,1.66,0,0,1,1.64,1.66C1020.18,590.77,1004.41,592.32,995.1,592.32Z" transform="translate(-526.16 -237.2)"/><path class="cls-2" d="M691.46,376.3a2.19,2.19,0,0,1-2.19-2.2v-4.39a2.2,2.2,0,1,1,4.39,0v4.39A2.19,2.19,0,0,1,691.46,376.3Z" transform="translate(-526.16 -237.2)"/><path class="cls-2" d="M691.46,425.56a2.2,2.2,0,0,1-2.19-2.2V408.2a2.2,2.2,0,0,1,4.39,0v15.16A2.2,2.2,0,0,1,691.46,425.56Zm0-22.74a2.19,2.19,0,0,1-2.19-2.19V389.26a2.2,2.2,0,1,1,4.39,0v11.37A2.19,2.19,0,0,1,691.46,402.82Z" transform="translate(-526.16 -237.2)"/><path class="cls-2" d="M665.51,561.66a29.22,29.22,0,0,1-4.76-.4,2.2,2.2,0,1,1,.74-4.34,23.94,23.94,0,0,0,6.91.17,2.2,2.2,0,1,1,.53,4.36A27.55,27.55,0,0,1,665.51,561.66Zm13.78-4a2.19,2.19,0,0,1-1.17-4.05,23.85,23.85,0,0,0,9-10.29,2.19,2.19,0,1,1,4,1.82,28.14,28.14,0,0,1-10.67,12.19A2.19,2.19,0,0,1,679.29,557.7Zm-31.54-3.07a2.17,2.17,0,0,1-1.5-.6,28.19,28.19,0,0,1-6.89-10.1,2.19,2.19,0,0,1,4.08-1.62,23.91,23.91,0,0,0,5.81,8.52,2.19,2.19,0,0,1,.1,3.1A2.15,2.15,0,0,1,647.75,554.63Zm43.48-15.41-.3,0a2.2,2.2,0,0,1-1.88-2.47,24.26,24.26,0,0,0,.22-3.21v-7.85a2.2,2.2,0,1,1,4.39,0v7.85a28,28,0,0,1-.26,3.81A2.2,2.2,0,0,1,691.23,539.22ZM639.66,538a2.2,2.2,0,0,1-2.19-2c-.07-.8-.1-1.62-.1-2.44v-12.9a2.2,2.2,0,1,1,4.39,0v12.89c0,.7,0,1.39.09,2.08a2.19,2.19,0,0,1-2,2.37Zm51.8-25.27a2.19,2.19,0,0,1-2.19-2.2v-7.57a2.2,2.2,0,1,1,4.39,0v7.57A2.19,2.19,0,0,1,691.46,512.7Zm0-18.94a2.19,2.19,0,0,1-2.19-2.2V476.4a2.2,2.2,0,0,1,4.39,0v15.16A2.19,2.19,0,0,1,691.46,493.76Zm0-22.74a2.19,2.19,0,0,1-2.19-2.19V457.46a2.2,2.2,0,1,1,4.39,0v11.37A2.19,2.19,0,0,1,691.46,471Zm0-26.52a2.19,2.19,0,0,1-2.19-2.2v-7.57a2.2,2.2,0,1,1,4.39,0v7.57A2.19,2.19,0,0,1,691.46,444.5Z" transform="translate(-526.16 -237.2)"/><path class="cls-2" d="M639.56,511.29a2.19,2.19,0,0,1-2.19-2.19v-4.39a2.2,2.2,0,1,1,4.39,0v4.39A2.19,2.19,0,0,1,639.56,511.29Z" transform="translate(-526.16 -237.2)"/><rect class="cls-4" x="559" y="435.78" width="94.29" height="70.59" rx="7.83" transform="translate(686.12 704.96) rotate(-180)"/><rect class="cls-3" x="568.36" y="444.09" width="48.05" height="38.24" rx="4.01" transform="translate(658.62 689.22) rotate(180)"/><path class="cls-2" d="M633.94,460.34h6.95a4.54,4.54,0,0,0,4.54-4.54h0a4.53,4.53,0,0,0-4.54-4.53h-6.95a4.53,4.53,0,0,0-4.53,4.53h0A4.53,4.53,0,0,0,633.94,460.34Z" transform="translate(-526.16 -237.2)"/><path class="cls-2" d="M633.94,475.61h6.95a4.53,4.53,0,0,0,4.54-4.53h0a4.53,4.53,0,0,0-4.54-4.53h-6.95a4.53,4.53,0,0,0-4.53,4.53h0A4.53,4.53,0,0,0,633.94,475.61Z" transform="translate(-526.16 -237.2)"/><path class="cls-2" d="M633.94,490.89h6.95a4.54,4.54,0,0,0,4.54-4.54h0a4.53,4.53,0,0,0-4.54-4.53h-6.95a4.53,4.53,0,0,0-4.53,4.53h0A4.53,4.53,0,0,0,633.94,490.89Z" transform="translate(-526.16 -237.2)"/><path class="cls-5" d="M1015.86,627.41c-22.09,1.63-45.21,10.78-31.48,14.07s24.16,12.63,0,17,4.66,23.06,32.8,10.43,16-11.53,44.5-13.24,42.49-16.69,16-17.14c-28-.49-23.29-1.18-34.16-4.89S1026.49,626.62,1015.86,627.41Z" transform="translate(-526.16 -237.2)"/><path class="cls-3" d="M878.67,662.12H699.43a8,8,0,0,1-6-13.22L732,605.21H921.13a8,8,0,0,1,6,13.22l-32,36.29A21.86,21.86,0,0,1,878.67,662.12Z" transform="translate(-526.16 -237.2)"/><polygon class="cls-6" points="252.74 260.97 258.58 267.52 287.41 241.84 316.25 267.52 322.09 260.97 294.02 235.96 322.23 210.84 316.38 204.28 287.41 230.08 258.44 204.28 252.6 210.84 280.81 235.96 252.74 260.97"/><polygon class="cls-6" points="341.01 265.57 336.76 257.88 287.41 285.11 238.06 257.88 233.82 265.57 278.32 290.13 234.03 314.57 238.28 322.27 287.42 295.15 336.55 322.27 340.8 314.57 296.51 290.13 341.01 265.57"/><polygon class="cls-6" points="239.69 343.89 239.69 346.35 238.85 349.34 239.69 343.89"/><polygon class="cls-5" points="370.02 340.82 370.02 396.47 334.88 396.47 334.88 346.35 335.71 349.34 334.88 343.89 334.88 346.35 287.3 176.23 239.69 346.35 239.69 343.89 238.85 349.34 239.69 346.35 239.69 396.47 204.55 396.47 204.55 340.82 205.38 338.49 278.74 140.16 287.3 142.93 295.83 140.16 369.14 338.49 370.02 340.82"/><polygon class="cls-6" points="335.71 349.34 334.88 346.35 334.88 343.89 335.71 349.34"/><rect class="cls-6" x="201.07" y="382.33" width="42.1" height="14.14" rx="3.48"/><path class="cls-6" d="M899.91,623v7.21a3.45,3.45,0,0,1-3.47,3.47H861.3a3.45,3.45,0,0,1-3.47-3.47V623a3.45,3.45,0,0,1,3.47-3.47h35.14a3.49,3.49,0,0,1,2.94,1.63A3.23,3.23,0,0,1,899.91,623Z" transform="translate(-526.16 -237.2)"/><polygon class="cls-6" points="482.98 205.34 191.31 135.53 202.21 94.87 489.7 180.24 482.98 205.34"/><rect class="cls-7" x="676.46" y="355.1" width="83.46" height="21.41" rx="8.44" transform="translate(-407.01 -410.61) rotate(15)"/><path class="cls-5" d="M680.45,291.31H710a34.23,34.23,0,0,1,34.23,34.23v25.62a0,0,0,0,1,0,0h-62a8.79,8.79,0,0,1-8.79-8.79v-44A7,7,0,0,1,680.45,291.31Z" transform="translate(-418.87 -409.71) rotate(15)"/><path class="cls-8" d="M1012.74,429.1l-3.61,13.45L756.23,382a8.45,8.45,0,0,1-8.65,2.73l-64.32-17.24a8.43,8.43,0,0,1-6-10.33l1.17-4.37a8.37,8.37,0,0,1,1.41-2.89,53.13,53.13,0,0,1,7.32,1.69c11.18,3.27,22.18,8.21,33.73,8.22l1.87-.05a83.52,83.52,0,0,0,9.57-1.25c1.06-.22,2.16-.43,3.25-.59s2-.3,2.93-.4c18.91-2,37.13,6.54,54.86,13.52,26,10.29,53.16,17.47,80.21,24.63,30.17,8.08,60.38,16,90.83,23,15.3,3.51,31.67,5.21,46.63,9.77A11.63,11.63,0,0,1,1012.74,429.1Z" transform="translate(-526.16 -237.2)"/><circle class="cls-5" cx="813.44" cy="376.65" r="31.18" transform="translate(-578.58 371.47) rotate(-39.85)"/><circle class="cls-2" cx="813.44" cy="376.65" r="12.08" transform="translate(-554.24 448.31) rotate(-45)"/><rect class="cls-7" x="482.99" y="168.55" width="34.41" height="61.04"/><polygon class="cls-5" points="517.4 229.59 482.99 229.59 499.01 258.05 517.4 229.59"/><path class="cls-5" d="M1032.49,387.72h-12.26a18,18,0,0,0-18,18h48.32A18,18,0,0,0,1032.49,387.72Z" transform="translate(-526.16 -237.2)"/><path class="cls-8" d="M1050.5,405.76h-6.94v61l-18.4,28.46-6.24-11.11a13.13,13.13,0,0,1,1.49-1.58c4.44-4.09,10.19-6.86,13.62-11.86a19.33,19.33,0,0,0,2-3.91,39.58,39.58,0,0,0,2.15-10.68,141.17,141.17,0,0,0-3.29-45.85c-.4-1.5-.92-4.48-.92-4.48s4.92-2.82,5.31-3.91c1-3-1.54-6.68-3.34-8.79-1.45-1.71-4.3-3.34-6-5.36h2.54a17.92,17.92,0,0,1,12.74,5.27A18.13,18.13,0,0,1,1050.5,405.76Z" transform="translate(-526.16 -237.2)"/><circle class="cls-5" cx="482.99" cy="190.72" r="14.64"/><circle class="cls-2" cx="482.99" cy="190.72" r="8.03"/><path class="cls-2" d="M1025.16,651.23a4.39,4.39,0,0,1-4.4-4.39v-158a4.4,4.4,0,0,1,8.79,0v158A4.39,4.39,0,0,1,1025.16,651.23Z" transform="translate(-526.16 -237.2)"/><path class="cls-8" d="M899.91,623v7.21a3.45,3.45,0,0,1-3.47,3.47H861.3a3.45,3.45,0,0,1-3.47-3.47v-1.45h.09c11.73.52,23.5.57,35.23.13,6.23-.22,1.93-6.63,6.23-7.73A3.23,3.23,0,0,1,899.91,623Z" transform="translate(-526.16 -237.2)"/><path class="cls-8" d="M769.32,623v7.21a3.45,3.45,0,0,1-3.47,3.47H730.71a3.45,3.45,0,0,1-3.47-3.47v-1.45h.09c11.72.52,23.5.57,35.22.13,6.24-.22,1.94-6.63,6.24-7.73A3.23,3.23,0,0,1,769.32,623Z" transform="translate(-526.16 -237.2)"/><path class="cls-2" d="M979,548.51v64.17c0,3.15-10.51,5.73-23.45,5.73s-23.44-2.58-23.44-5.73V548.51Z" transform="translate(-526.16 -237.2)"/><ellipse class="cls-3" cx="429.41" cy="311.31" rx="23.44" ry="5.73"/><path class="cls-2" d="M969.3,547.56v1c0,.52-1.73,1-3.89,1s-3.93-.43-3.93-1v-1c0-.53,1.77-.95,3.93-.95S969.3,547,969.3,547.56Z" transform="translate(-526.16 -237.2)"/><path class="cls-4" d="M955.57,555.87c-9.31,0-25.08-1.55-25.08-7.36s15.77-7.37,25.08-7.37,25.08,1.55,25.08,7.37S964.88,555.87,955.57,555.87Zm0-11.46c-13.41,0-21.33,2.7-21.81,4.14.48,1.35,8.4,4.05,21.81,4.05s21.16-2.64,21.79-4.09C976.73,547.05,968.84,544.41,955.57,544.41Z" transform="translate(-526.16 -237.2)"/><path class="cls-4" d="M955.57,579c-9.31,0-25.08-1.55-25.08-7.37a1.64,1.64,0,0,1,3.28,0c.47,1.4,8.39,4.09,21.8,4.09s21.33-2.69,21.81-4.13A1.62,1.62,0,0,1,979,570a1.66,1.66,0,0,1,1.64,1.66C980.65,577.45,964.88,579,955.57,579Z" transform="translate(-526.16 -237.2)"/><path class="cls-4" d="M955.57,602.12c-9.31,0-25.08-1.55-25.08-7.36a1.64,1.64,0,0,1,3.28,0c.47,1.39,8.39,4.09,21.8,4.09s21.33-2.7,21.81-4.14A1.61,1.61,0,0,1,979,593.1a1.65,1.65,0,0,1,1.64,1.66C980.65,600.57,964.88,602.12,955.57,602.12Z" transform="translate(-526.16 -237.2)"/><path class="cls-8" d="M863.23,489c-.74,2.33-1.36,4.75-1.84,6.94-.22.88-.4,1.72-.53,2.51-.48,2.46-1,5.49-1.27,8.52-.79,8.13-.49,16.69,3.69,17.48a3.88,3.88,0,0,0,3.2-1l2.46.48a13,13,0,0,0,.66,2.59,45.17,45.17,0,0,0,4,7.43c0,.08.09.17.13.26.31.48.66,1,1,1.41s.44.61.66.87.48.57.7.84a15.38,15.38,0,0,0,1.14,1.27,2.6,2.6,0,0,0,.36.4,28.67,28.67,0,0,0,5.75,4.52Zm57.9,116.23h-25V578l-.88-2.33L887,553.33c-1.89,2.19-3.87,4.48-5.71,6.58l-14.72-7.51-16.69-8.56-5.22-2.68-1-2.24-1.28-2.77L840,534.79l-.35,1.89-.26,1.36-5.49-2.24c-2.55,1.05-4.66,2.46-5.76,4.52v0L852.78,554l1.8,6.46a122.8,122.8,0,0,0,12.17,8.79.2.2,0,0,0,.13.08c1.1.66,2.11,1.28,3.16,1.81.22.13.48.26.75.39a29.13,29.13,0,0,0,2.72,1.23c.09,0,.22.13.31.18.88.3,1.71.57,2.5.79a5,5,0,0,1,.84.17,12.14,12.14,0,0,0,1.71.18c.13,0,.31,0,.44,0a42.12,42.12,0,0,0,7.77-1.18c.27,0,.53-.14.79-.18.53-.13,1-.31,1.45-.44s.66-.22,1-.35l.44-.13c-.13,2-.31,3.95-.48,5.93-.4,4.48-.84,8.74-1.36,12.21,0,.22,0,.44-.09.66-.09.39-.13.83-.22,1.23-.09.61-.22,1.23-.35,1.8v.13c-.18.66-.36,1.32-.49,1.85,0,.17.18.35.49.57-1.45,2.81-2.86,5.88-4.18,9-2.06,4.79-4,9.75-5.71,14.32-1.36,3.52-2.59,6.81-3.77,9.62-.62,1.58-1.23,3-1.81,4.31,0,.08,0,.13-.08.22-2.73,6.5-2,15.9.35,28.46h5.62a21.94,21.94,0,0,0,13.22-4.44l-.48-11.15c2.06-3,4.17-5.89,6.24-8.79,0,.35,0,.7.08,1.06a.47.47,0,0,1,0,.26,38.62,38.62,0,0,0,1.1,5.45c0,.13,0,.3.08.43.57,1.19,1.15,2.33,1.67,3.47l24.29-27.54a70,70,0,0,0,1.41-13.79A8,8,0,0,0,921.13,605.2Z" transform="translate(-526.16 -237.2)"/><path class="cls-9" d="M900.29,541.89c-17.86-3.54-26.43-7.95-33.23-23.47-3.11-7.55,2.68-26.25,11.08-44.65l7.13-.67L880.73,517c10.23,4,22.81,6.57,26.43,12.81Z" transform="translate(-526.16 -237.2)"/><path class="cls-10" d="M902,525.11c-4.36-2.51-13.83-5.82-13.83-5.82s-7.88,12.72-7.4,16.14c1.14,1.3,6.82,5.91,10.06,4.34S902,525.11,902,525.11Z" transform="translate(-526.16 -237.2)"/><path class="cls-8" d="M867,518.41c3.67,8.39,7.87,13.48,13.76,17v.06c1.11,1.27,6.8,5.9,10.06,4.31l0-.06a2.16,2.16,0,0,0,.41.14c.27-.13.59-.33.86-.46,2.7-1.5,5.57-3.06,7.29-5.66a23.55,23.55,0,0,1-2.69-.59,78.52,78.52,0,0,1-14-4.13c-1.74-.71-3.49-1.43-5.18-2.26a21.09,21.09,0,0,1-3.77-2.3,15.44,15.44,0,0,1-2.34-2.7,30.16,30.16,0,0,1-4.25-9.41,20.49,20.49,0,0,0-.84-2.92C866,513.15,866.14,516.23,867,518.41Z" transform="translate(-526.16 -237.2)"/><path class="cls-2" d="M870,468.76,933,481c3.09.6,3.61,11.41,1.14,24.11s-7,22.51-10.11,21.91l-63-12.27Z" transform="translate(-526.16 -237.2)"/><ellipse class="cls-3" cx="865.5" cy="491.78" rx="23.44" ry="5.73" transform="translate(-308.89 1010.06) rotate(-78.97)"/><path class="cls-2" d="M867.2,478.12l.93.18c.52.1.6,1.89.19,4s-1.17,3.77-1.69,3.67l-.93-.18c-.51-.1-.59-1.91-.18-4S866.68,478,867.2,478.12Z" transform="translate(-526.16 -237.2)"/><path class="cls-4" d="M872.74,493.19c-1.79,9.14-6.32,24.32-12,23.21s-4.22-16.88-2.44-26,6.32-24.32,12-23.2S874.52,484.05,872.74,493.19ZM861.49,491c-2.57,13.16-1.44,21.45-.11,22.2,1.42-.22,5.58-7.47,8.14-20.63s1.46-21.28.15-22.18C868.12,470.73,864,478,861.49,491Z" transform="translate(-526.16 -237.2)"/><path class="cls-4" d="M895.43,497.61c-1.78,9.15-6.32,24.32-12,23.21a1.63,1.63,0,1,1,.62-3.21c1.46-.2,5.62-7.46,8.19-20.62s1.43-21.45.11-22.2a1.61,1.61,0,0,1-1.27-1.91,1.65,1.65,0,0,1,1.94-1.29C898.71,472.7,897.21,488.47,895.43,497.61Z" transform="translate(-526.16 -237.2)"/><path class="cls-4" d="M918.13,502c-1.78,9.14-6.32,24.31-12,23.2a1.64,1.64,0,0,1,.63-3.21c1.46-.2,5.62-7.46,8.19-20.62s1.43-21.45.11-22.2a1.62,1.62,0,0,1-1.28-1.91,1.67,1.67,0,0,1,2-1.29C921.4,477.13,919.91,492.89,918.13,502Z" transform="translate(-526.16 -237.2)"/><path class="cls-9" d="M940.73,674.78l5.57,2.38a3.56,3.56,0,0,1,3.5,0l3.54,2.81-13.87,15.64-3.22-2.06L939,684.7l-3.21-2.62Z" transform="translate(-526.16 -237.2)"/><path class="cls-2" d="M949.45,676.39c1.87.21,3.19,1.41,4.94,3.53l-16,18.84c-2.54,2.75-4.76,2.16-3.67-1l3.94-13a4.54,4.54,0,0,0,4.05-1.54,20.19,20.19,0,0,0,3.73-4.63c-.73-.62-1.38-1.27-.71-2.47Z" transform="translate(-526.16 -237.2)"/><path class="cls-2" d="M923,591.53l-19.23-6.9c-6.62,11.94-11.84,37.29-7.4,52.27,6.8,14.41,12,26,38,47.22l8.23-10.29L916.7,637.14C921.13,619.64,925.59,604.07,923,591.53Z" transform="translate(-526.16 -237.2)"/><path class="cls-8" d="M896.37,636.91c4.13,8.7,7.68,16.37,15.58,25.81-2.07-6-5.86-11.35-7.58-17.5a54.75,54.75,0,0,1-1.46-10.89,27.51,27.51,0,0,1,.24-7.31c.91-4.67,4.57-9.12,4.77-13.92.17-4.42-5.94-5.4-9.26-4.51a10.37,10.37,0,0,0-2.74,1.23C894.37,619.46,894.19,629.46,896.37,636.91Z" transform="translate(-526.16 -237.2)"/><path class="cls-9" d="M889,688.3l2.77,5.39a3.57,3.57,0,0,1,2.67,2.26l.93,4.42-20.65,3.19-1.18-3.64,7.81-5.07-.8-4.07Z" transform="translate(-526.16 -237.2)"/><path class="cls-2" d="M894.65,695.11c1.31,1.35,1.56,3.12,1.55,5.87l-24.35,4.29c-3.72.49-5-1.38-2.18-3.13l11.3-7.46a4.55,4.55,0,0,0,4.09,1.4,20.27,20.27,0,0,0,5.84-1.19c-.17-.94-.25-1.86,1-2.35Z" transform="translate(-526.16 -237.2)"/><path class="cls-2" d="M914.4,590.66,891.4,579c-8.9,11-16.21,35.66-21.2,46.42-5.11,11.82,1.45,33.06,7.94,66l12.9-2.67-2.21-50.29C900.28,621.75,914.08,606.74,914.4,590.66Z" transform="translate(-526.16 -237.2)"/><path class="cls-10" d="M889.42,548.12c-1,11-2.12,32.47-4.26,39.49.42,2.79,39.82,13.47,39.45,8.56-2.7-35.95,6.12-46.52-3.84-66.84-4.95-7.53-19.7-6.77-25.49.16A47.19,47.19,0,0,0,889.42,548.12Z" transform="translate(-526.16 -237.2)"/><path class="cls-9" d="M913.31,524.5a14,14,0,0,1-.09-7.84l-9-1.76-3.82,10A28.76,28.76,0,0,0,913.31,524.5Z" transform="translate(-526.16 -237.2)"/><path class="cls-9" d="M910.12,542.77c-11.16,14.85-16.46,22.15-33.37,23.28-8.15.36-25.39-13-39.84-27.16l5.2-5.77,36.65,18.76c7.28-8.25,15.22-18.4,22.32-19.69Z" transform="translate(-526.16 -237.2)"/><path class="cls-10" d="M900.54,530.47c-10.48,4-11.39,7.78-16.2,13.79,1.12,6.69,5.54,11.8,11.23,16.31l17.22-16.46Z" transform="translate(-526.16 -237.2)"/><path class="cls-9" d="M836.91,538.89c-2.22.49-4.3.69-5.93,0-1.89-1.36-3.69-3.78-5.46-6.62,1.11-2.07,3.19-3.47,5.77-4.53l5.47,2.24.62-3.24,2.47,1.33,2.26,5Z" transform="translate(-526.16 -237.2)"/><path class="cls-8" d="M876.73,566.07a39.14,39.14,0,0,0,11.42-2.26c-.7,9.5-1.64,19.42-3,23.8.14,1.17,7.25,3.73,15.41,6-2.74-2-5.44-4.32-6.58-7.5-1.05-2.73-.77-5.79-.36-8.64.75-4.89,2-9.88,5-13.76s7.41-6.3,10-10.37a28.08,28.08,0,0,0,2.27-5,35.73,35.73,0,0,1-14.24,11.19,16.71,16.71,0,0,1-1.58.68l-.66.22a28.39,28.39,0,0,1-6.08,1.41h-.06c-1.78.19-3.53.21-5.32.28-5.06.1-10.28.21-15.27-1-.62-.12-2.55-1.1-3.14-.72a.77.77,0,0,0-.39.81C869.23,564.32,873.64,566.19,876.73,566.07Z" transform="translate(-526.16 -237.2)"/><path class="cls-8" d="M902.26,520.11c.92.21,1.88.31,2.86.57,1.15.31,2.34.44,3.49.81a6.1,6.1,0,0,1,3,1.68c.37.37.62.74,1,1.11l.36.31c.11,0,.16-.07.27-.08a14.25,14.25,0,0,1-.08-7.87L904.69,515a1.7,1.7,0,0,0-.55.16Z" transform="translate(-526.16 -237.2)"/><path class="cls-9" d="M914,517.65c-6.47,2.31-12.24,3.51-15.94,1.47-.85-8.9.65-16.85,6.87-22.88l15.92,6.82Z" transform="translate(-526.16 -237.2)"/><path class="cls-8" d="M899,506a3,3,0,0,0,.65.47,2.54,2.54,0,0,0,1.28.24,24.08,24.08,0,0,0,5-.8,5.52,5.52,0,0,1-.58,3.06c-.24.41-.45.93-.13,1.25s.56.15.88.06a5.29,5.29,0,0,0,2.82-3,6.13,6.13,0,0,0,.13-3.86,4.28,4.28,0,0,0-2.67-2.6,5.52,5.52,0,0,0-2-.22c-.86.06-1.77.13-2.61.23a2.11,2.11,0,0,0-.56.09A23.36,23.36,0,0,0,899,506Z" transform="translate(-526.16 -237.2)"/><path class="cls-2" d="M898.38,503.43c2.39,2,5.55,2,9,1.13-.32,2.21-.89,4.16-1.89,5a1.53,1.53,0,0,0,1,1.28c1.14-1.27,2.26-2.86,3.26-2.48a3.11,3.11,0,0,1,1.31,3.45c-.41,1.85-2.82,3.45-5.17,5.24,2.22,1.59,3.84,2.58,5.61,2.23,2.54.36,5.45-.55,8.1-2.93s1.75-5.74,3.74-7.68c1.77-1.83,1-10.7-2.28-10.52-3,.09-1.09-1.51-3-5.43s-14-4.58-16.7-2.69C897.88,492.5,892.89,497.79,898.38,503.43Z" transform="translate(-526.16 -237.2)"/><path class="cls-9" d="M877.26,469.6a2.8,2.8,0,0,0-.52,2.44,3.35,3.35,0,0,0,3.22,2.18c1.51,0,3.62.16,4.75-.67a2.67,2.67,0,0,0,.48-3C882.84,470,879.05,469,877.26,469.6Z" transform="translate(-526.16 -237.2)"/><path class="cls-8" d="M642.94,488.14a6.2,6.2,0,0,0-7.81-.7c-1.06,1.71-.22,1.71-.44,3.47-.05.22-.09.48-.18.79a5.62,5.62,0,0,0-.44-.79,5.1,5.1,0,0,0-1.14-1.36,1.38,1.38,0,0,0-1.19.74c0,.09-.08.27-.13.4a31.62,31.62,0,0,0,1.41,8.12l-.4,1.15-6.45,6.41h10.19a17.64,17.64,0,0,1,1-1.67c.26-.44.48-.84.74-1.23l.22-.62,1-2.46a10.12,10.12,0,0,0,2.46-2.24c.31-1.62,1.62-3.69,1.36-5.27-.22-.57.22-1.71.35-2.81A2.13,2.13,0,0,0,642.94,488.14Zm-7.42,14,2.33,1.19A14.8,14.8,0,0,1,635.52,502.15Zm-48.71-22.31c-2.46-3.56-7.95-6.68-15.86-5.89a16.34,16.34,0,0,0-2.59.48,14.89,14.89,0,0,0-9.36,7c-3.25,5.54-2.81,12.26,0,13.66a1.2,1.2,0,0,0,.53.22h.31a5.42,5.42,0,0,0,1.71,5.63c1.54,1.23,2.06,5.31,6.11,4.87a3.64,3.64,0,0,1-.31.53h14.23a3.9,3.9,0,0,0,1.89-2,30.32,30.32,0,0,0,1.4-13.26l0-.05c-.09-.44-.22-.88-.31-1.36a9.56,9.56,0,0,0-.17-1.05c.52-.27,1-.49,1.58-.71,3-1.23,5.88-3.64,6.63-5.62S592,479.05,586.81,479.84Z" transform="translate(-526.16 -237.2)"/><path class="cls-9" d="M578.68,686.72l-.54,3.35c-.94.48-1,.9-1.49,1.95a7.24,7.24,0,0,0-.79,3.46l17-3.08-5.48-2.89-1.54-2.09Z" transform="translate(-526.16 -237.2)"/><path class="cls-4" d="M587.69,689.57c3.49,1.63,6.91.08,9.27,2.11,1.56,1.25,2.12,3.47.9,4.87-3.42,1.62-13.88,4.53-21.7,2.78-2.34-.53-.77-7.38.67-8.71l1.58-1c-.85,1-1.59,1.87-.06,2.89,3.14.79,6.55,1,9.22-.8C587.64,690.88,586.92,690.3,587.69,689.57Z" transform="translate(-526.16 -237.2)"/><path class="cls-8" d="M597.86,696.57c-3.43,1.58-13.86,4.49-21.69,2.75-1.3-.29-1.42-2.57-1-4.78a6.34,6.34,0,0,0,.66.39,7.36,7.36,0,0,0,.79.4,17.92,17.92,0,0,0,3,1.16,10.06,10.06,0,0,0,6.59-.18c.66-.27,1.33-.64,2.06-.86a12.58,12.58,0,0,1,3.14-.24,18.86,18.86,0,0,0,4.4-.75,12,12,0,0,1,2.34-.61c.08,0,.18,0,.26,0A2.94,2.94,0,0,1,597.86,696.57Z" transform="translate(-526.16 -237.2)"/><path class="cls-9" d="M531.23,687.53l-1,3.25c-1,.35-1.11.77-1.74,1.74a7.1,7.1,0,0,0-1.24,3.32l17.28-.79-5-3.6-1.25-2.28Z" transform="translate(-526.16 -237.2)"/><path class="cls-4" d="M539.79,691.55c3.24,2.08,6.84,1,8.9,3.32,1.39,1.44,1.65,3.72.26,4.94-3.61,1.16-14.36,2.66-21.89-.11-2.25-.84.23-7.42,1.83-8.54l1.7-.79c-1,.87-1.83,1.64-.45,2.86,3,1.19,6.36,1.83,9.24.42C539.57,692.85,538.93,692.17,539.79,691.55Z" transform="translate(-526.16 -237.2)"/><path class="cls-8" d="M548.94,699.83c-3.61,1.12-14.33,2.62-21.86-.14-1.25-.46-1.07-2.74-.33-4.87a6.64,6.64,0,0,0,.6.48c.27.2.5.35.73.5a18.09,18.09,0,0,0,2.79,1.54,10.1,10.1,0,0,0,6.56.7,19.45,19.45,0,0,1,2.16-.58,12.35,12.35,0,0,1,3.14.17,18.54,18.54,0,0,0,4.46-.16,11.76,11.76,0,0,1,2.4-.29c.08,0,.18,0,.26,0A2.94,2.94,0,0,1,548.94,699.83Z" transform="translate(-526.16 -237.2)"/><path class="cls-2" d="M528.26,687.11c3.54,2.62,8.92,3.1,14.13,3.33,6.71-15.22,22.68-53.88,22.32-62,1.82-7.14-2.8-30.27-4.42-43.87l-1-14.93-16.58,0c-5.35,17.23.47,42.8,2.72,54.27Z" transform="translate(-526.16 -237.2)"/><path class="cls-2" d="M556.72,570.28c-.07,15.23,6.29,48,14.77,58.62l3.7,59.76c5-.28,10.27.21,13.21-2.35.18-20.59,4-44.18,3.35-60.43-.14-13.24-7.22-38.26-12-56Z" transform="translate(-526.16 -237.2)"/><path class="cls-5" d="M541.16,572.66c8.7,7.9,20.86,4.8,34.73,1.64v0c1-.21,3.59-1.46,4.67-1.76,3.34-8.81,3.57-21.83,4.48-38.42V534c.42-7,.68-14.49.85-22.22-9-6.5-19.45-10.5-31-12.54C541.41,506.22,540.41,547,541.16,572.66Z" transform="translate(-526.16 -237.2)"/><path class="cls-9" d="M574.44,505a15.3,15.3,0,0,1-11.39-4c1.78-2.11,3.7-6.48,5.64-10.95l7.6,2.41C575.12,497.46,574,502.25,574.44,505Z" transform="translate(-526.16 -237.2)"/><path class="cls-8" d="M575.19,497.31c-.17.88-.35,1.76-.48,2.6a.43.43,0,0,1-.22,0c-.88.05-1.5.63-2.29.32s-1.39-.9-2.23-.59c-.48.22-1.3,0-1.65.36a9,9,0,0,1-3.27,2.6,11.3,11.3,0,0,1-2-1.59,25.37,25.37,0,0,0,3.26-5.68c.44,0,.84.09,1.28.13a50.32,50.32,0,0,1,7.45,1.76S575.15,497.31,575.19,497.31Z" transform="translate(-526.16 -237.2)"/><path class="cls-9" d="M580.91,496.35c-1.44,3.55-8.66,4.1-15.57,1.47-2-.76-4.36-5.74-7.1-10.47L565,471.26l12.81.7C583.14,479.29,583.66,487.52,580.91,496.35Z" transform="translate(-526.16 -237.2)"/><path class="cls-8" d="M582.33,483.07a13.49,13.49,0,0,1-4,2.25c-3.13,1.19-6.62,1.14-9.79,2.16a13.16,13.16,0,0,1-3.53,1c-1.67,0-3.17-.88-4.62-1.72a2.79,2.79,0,0,1-1-.88,1.87,1.87,0,0,1-.22-.84l3.35-7.94a13.14,13.14,0,0,1,1.63-.75,27.26,27.26,0,0,1,7.72-1.23,19.47,19.47,0,0,1,8.55,1.45A22.79,22.79,0,0,1,582.33,483.07Z" transform="translate(-526.16 -237.2)"/><path class="cls-11" d="M582,474.28c1.84,5-4.39,8.52-7.08,9a3.72,3.72,0,0,0-2.84,5.29l-.85.6s-.62-3.73-1.91-2.77-2.36,1.25-1.22,3.91,1.51,6.87-2.8,7.51-4.78-3.63-6.38-4.89-2.81-4.33-1.4-6.47a7.9,7.9,0,0,0,.87-6.76c-.67-2.08.73-7.41,2.7-7.95s2.71-.28,5.16-1.57,2.94-3.17,6.73-1.72C577.35,470.12,581.93,469.88,582,474.28Z" transform="translate(-526.16 -237.2)"/><path class="cls-9" d="M629.82,492.56l5.71,2.88,1.21-3.08a11,11,0,0,0,2.43-2.23c.33-1.62,1.66-3.68,1.37-5.29-.41-.9,1.21-3.51-.16-4.72a5.6,5.6,0,0,0-4.62-1.77,5.31,5.31,0,0,0-3.19,1.06c-1.22,1.93,0,1.69-.65,4.26a5.43,5.43,0,0,0-1.58-2.16,1.4,1.4,0,0,0-1.31,1.15,32.82,32.82,0,0,0,1.4,8.14Z" transform="translate(-526.16 -237.2)"/><path class="cls-9" d="M635.53,495.44c-5.38,8.77-12.11,20-17.75,26.85,0-.08-1.67-.66-.57-.48l-6.9-8.49-.87-.88,20.68-20.6A14.86,14.86,0,0,0,635.53,495.44Z" transform="translate(-526.16 -237.2)"/><path class="cls-5" d="M618.48,522.25c-1.06,1.28-2.11,2.42-3.13,3.48a32.31,32.31,0,0,1-4.41,3.75c-7.14,4.1-17.1,3.35-27.51,4.71l2.47-22.39,18.56,4.63,1.41-1.37,3.57-3.48,0,0L618.3,522A.85.85,0,0,1,618.48,522.25Z" transform="translate(-526.16 -237.2)"/><path class="cls-6" d="M618.35,523.53,617,525.38a1.21,1.21,0,0,1-1.63.35,3,3,0,0,1-.31-.26l-9.17-10.41-.79-.92a1.25,1.25,0,0,1,.53-2l2.51-.88a1.22,1.22,0,0,1,1.32.31l0,0L618.3,522a.85.85,0,0,1,.18.27A1.25,1.25,0,0,1,618.35,523.53Z" transform="translate(-526.16 -237.2)"/><path class="cls-2" d="M583.44,479.94c-9.66,4.27-21.16,8.73-26.5,7.36s-3.74-19.79,11.42-21.38c7.94-.79,13.4,2.34,15.87,5.91C594.72,470.24,589.48,477.51,583.44,479.94Z" transform="translate(-526.16 -237.2)"/><path class="cls-8" d="M613.19,527.73a20.32,20.32,0,0,1-2.25,1.76c-6.74,3.88-16,3.39-25.87,4.54v0c-.93,16.62-1.15,29.63-4.5,38.44-1.1.31-3.61,1.55-4.67,1.77v0c-9.08,2-17.46,4.1-24.56,3,2.69-1.1,5.43-2,8.25-2.86,4.19-1.24,8.55-2.21,12.34-4.5s6.83-6.26,6.66-10.62c-.09-2.74-1.46-5.29-2-8-.57-3-.17-5.95.14-8.95a21.74,21.74,0,0,0-.31-8.91c-.93-2.82-3.22-5.46-6.17-5.81L583.92,530H584a10.73,10.73,0,0,0,1.23.18,66.7,66.7,0,0,0,10.14,1.15,39.07,39.07,0,0,0,14.33-2.47C610.68,528.47,612.05,527.68,613.19,527.73Z" transform="translate(-526.16 -237.2)"/></g></svg>